<svg xmlns="http://www.w3.org/2000/svg" width="176" height="33" viewBox="0 0 176 33">
  <g fill="none">
    <circle cx="15.43" cy="15.62" r="13.81" fill="#FFF"/>
    <polygon fill="#414042" points="37.56 .22 44.77 .22 44.77 2.68 40.2 2.68 40.2 5.89 44.2 5.89 44.2 8.35 40.2 8.35 40.2 11.58 44.85 11.58 44.85 14.04 37.56 14.04 37.56 .18"/>
    <path fill="#414042" d="M46.59.22L50.02.22C53.64.22 55.8 2.74 55.8 6.99L55.8 7.31C55.8 11.55 53.64 14.08 50.02 14.08L46.59 14.08 46.59.22zM49.24 2.64L49.24 11.64 49.97 11.64C51.81 11.64 53.06 10.31 53.06 7.22L53.06 7.02C53.06 3.93 51.81 2.6 49.97 2.6L49.24 2.6 49.24 2.64zM57.43 9.33L57.43.22 60.08.22 60.08 9.47C60.08 11.07 60.77 11.83 61.84 11.83 62.91 11.83 63.6 11.1 63.6 9.49L63.6.22 66.23.22 66.23 9.31C66.23 12.7 64.45 14.31 61.81 14.31 59.17 14.31 57.43 12.68 57.43 9.33zM67.88 7.31L67.88 6.99C67.88 2.48 70.1.06 73.09.06 74.3326297.0324608867 75.5310812.521255291 76.4 1.41L74.89 3.53C74.4328056 2.98821304 73.7769256 2.65306558 73.07 2.6 71.7 2.6 70.59 4.12 70.59 7.09L70.59 7.19C70.59 10.36 71.78 11.71 73.03 11.71 73.8088635 11.677501 74.5366827 11.3135915 75.03 10.71L76.44 12.77C75.5276719 13.7218033 74.268417 14.2630303 72.95 14.27 69.84 14.24 67.88 11.82 67.88 7.31zM80.83.16L83.5.16 87.36 14.08 84.65 14.08 83.9 11.19 80.34 11.19 79.61 14.08 77 14.08 80.83.16zM83.27 8.83L82.14 4.28 80.97 8.83 83.27 8.83 83.27 8.83z"/>
    <polygon fill="#414042" points="89.58 2.71 86.95 2.71 86.95 .21 94.87 .21 94.87 2.71 92.24 2.71 92.24 14.08 89.59 14.08 89.59 2.71"/>
    <polygon fill="#414042" points="96.43 .22 99.06 .22 99.06 14.08 96.43 14.08"/>
    <path fill="#414042" d="M100.92,7.39 L100.92,6.93 C100.92,2.55 102.98,0 105.92,0 C108.86,0 110.92,2.55 110.92,6.91 L110.92,7.37 C110.92,11.73 108.86,14.3 105.92,14.3 C102.98,14.3 100.92,11.74 100.92,7.39 Z M108.29,7.29 L108.29,7.03 C108.29,3.9 107.29,2.44 105.95,2.44 C104.61,2.44 103.63,3.89 103.63,7.01 L103.63,7.27 C103.63,10.4 104.63,11.86 105.97,11.86 C107.31,11.86 108.28,10.42 108.28,7.29 L108.29,7.29 Z"/>
    <polygon fill="#414042" points="112.76 .22 115.22 .22 119.16 7.78 119.16 .22 121.75 .22 121.75 14.08 119.43 14.08 115.33 6.2 115.33 14.08 112.74 14.08 112.74 .22"/>
    <path fill="#414042" d="M126.85,0.16 L129.52,0.16 L133.38,14.08 L130.67,14.08 L129.92,11.19 L126.36,11.19 L125.63,14.08 L123.02,14.08 L126.85,0.16 Z M129.29,8.83 L128.16,4.28 L126.99,8.83 L129.29,8.83 L129.29,8.83 Z"/>
    <polygon fill="#414042" points="134.63 .22 137.28 .22 137.28 11.58 141.43 11.58 141.43 14.06 134.62 14.06 134.62 .2"/>
    <path fill="#414042" d="M37.43 26.41L37.43 17.3 40.08 17.3 40.08 26.58C40.08 28.18 40.77 28.94 41.84 28.94 42.91 28.94 43.6 28.21 43.6 26.6L43.6 17.33 46.23 17.33 46.23 26.42C46.23 29.81 44.45 31.42 41.81 31.42 39.17 31.42 37.43 29.76 37.43 26.41zM47.22 29.46L48.8 27.4C49.459861 28.2111182 50.4111003 28.7316076 51.45 28.85 51.8486751 28.8838345 52.243124 28.7479071 52.5363207 28.4756531 52.8295174 28.203399 52.9942508 27.8200856 52.99 27.42 52.99 26.81 52.67 26.33 51.11 25.42 49.01 24.17 47.78 23.08 47.78 21.14L47.78 21.14C47.7592458 20.0479467 48.2021238 18.9982232 48.9988423 18.2510614 49.7955607 17.5038996 50.8715258 17.1292535 51.96 17.22 53.3726861 17.2210353 54.7236649 17.7989942 55.7 18.82L54.08 20.82C53.5291307 20.1317124 52.7187097 19.7011762 51.84 19.63 51.4918364 19.5906418 51.1431377 19.6992162 50.878861 19.9292701 50.6145843 20.1593239 50.4589946 20.4897343 50.45 20.84 50.45 21.49 50.77 21.97 52.69 23.16 54.61 24.35 55.69 25.44 55.69 27.28L55.69 27.28C55.691107 28.3728023 55.2450614 29.4184773 54.4555205 30.1740189 53.6659795 30.9295605 52.6016958 31.3291767 51.51 31.28 49.8913181 31.285348 48.3410438 30.6276559 47.22 29.46L47.22 29.46z"/>
    <polygon fill="#414042" points="57.16 17.3 64.37 17.3 64.37 19.76 59.8 19.76 59.8 22.97 63.8 22.97 63.8 25.43 59.8 25.43 59.8 28.72 64.43 28.72 64.43 31.18 57.14 31.18 57.14 17.32"/>
    <path fill="#414042" d="M69.82,17.3 L73.27,17.3 C76.16,17.3 78.06,18.92 78.06,22.01 L78.06,22.01 C78.06,25.18 76.06,26.72 73.35,26.84 L72.43,26.84 L72.43,31.12 L69.78,31.12 L69.78,17.26 L69.82,17.3 Z M73.17,24.47 C73.7956175,24.5108167 74.4067516,24.2699734 74.8363186,23.8133166 C75.2658856,23.3566598 75.4689522,22.7319564 75.39,22.11 C75.39,20.59 74.7,19.73 73.19,19.73 L72.43,19.73 L72.43,24.46 L73.12,24.46 L73.17,24.47 Z"/>
    <polygon fill="#414042" points="79.52 17.3 86.73 17.3 86.73 19.76 82.16 19.76 82.16 22.97 86.16 22.97 86.16 25.43 82.16 25.43 82.16 28.72 86.81 28.72 86.81 31.18 79.52 31.18 79.52 17.32"/>
    <path fill="#414042" d="M88.55,17.3 L92.43,17.3 C93.7010985,17.2329651 94.9464379,17.6756724 95.89,18.53 C96.6964296,19.4136207 97.1112112,20.5858295 97.04,21.78 L97.04,21.9 C97.1414518,23.4993684 96.3173667,25.0153739 94.92,25.8 L97.36,31.17 L94.36,31.17 L92.28,26.48 L91.11,26.48 L91.11,31.17 L88.46,31.17 L88.46,17.31 L88.55,17.3 Z M92.25,24.11 C92.847492,24.1673118 93.4391337,23.9532424 93.8616211,23.526879 C94.2841084,23.1005157 94.4927658,22.5069437 94.43,21.91 C94.4894919,21.3047245 94.2703334,20.7052658 93.8344788,20.281086 C93.3986243,19.8569061 92.7934376,19.6541003 92.19,19.73 L91.19,19.73 L91.19,24.11 L92.19,24.11 L92.25,24.11 Z"/>
    <polygon fill="#414042" points="98.8 17.3 101.51 17.3 103.95 22.67 106.37 17.3 109.1 17.3 109.1 31.16 106.51 31.16 106.51 22.53 103.96 28.04 103.96 28.04 101.41 22.57 101.41 31.16 98.86 31.16 98.86 17.3"/>
    <polygon fill="#414042" points="111.29 17.3 113.92 17.3 113.92 31.16 111.29 31.16"/>
    <polygon fill="#414042" points="118.14 19.8 115.51 19.8 115.51 17.31 123.43 17.31 123.43 19.8 120.8 19.8 120.8 31.17 118.15 31.17 118.15 19.8"/>
    <polygon fill="#414042" points="126.93 19.8 124.3 19.8 124.3 17.31 132.22 17.31 132.22 19.8 129.59 19.8 129.59 31.17 126.94 31.17 126.94 19.8"/>
    <polygon fill="#414042" points="133.72 17.3 140.93 17.3 140.93 19.76 136.36 19.76 136.36 22.97 140.36 22.97 140.36 25.43 136.36 25.43 136.36 28.72 141.01 28.72 141.01 31.18 133.72 31.18 133.72 17.32"/>
    <path fill="#414042" d="M142.74 17.3L146.17 17.3C149.79 17.3 151.95 19.81 151.95 24.07L151.95 24.39C151.95 28.63 149.79 31.16 146.17 31.16L142.74 31.16 142.74 17.3zM145.39 19.72L145.39 28.72 146.12 28.72C147.96 28.72 149.21 27.39 149.21 24.3L149.21 24.1C149.21 21.01 147.96 19.68 146.12 19.68L145.43 19.68 145.39 19.72zM15.5.22C6.93958638.22 0 7.15958638 0 15.72L0 31.22 15.5 31.22C24.0604136 31.22 31 24.2804136 31 15.72L31 .22 15.5.22zM15.5 28.39C8.50255222 28.39 2.83 22.7174478 2.83 15.72 2.83 8.72255222 8.50255222 3.05 15.5 3.05 22.4974478 3.05 28.17 8.72255222 28.17 15.72 28.1726535 19.0820252 26.8389539 22.3072589 24.4625803 24.6855081 22.0862067 27.0637573 18.8620263 28.400001 15.5 28.4L15.5 28.39z"/>
    <path fill="#414042" d="M12.08,19.48 C12.950631,20.3746035 14.1518404,20.8702833 15.4,20.85 C17.1119947,20.8833833 18.7365322,20.0952782 19.77,18.73 L22.09,21.12 C20.53822,22.9609879 18.2977971,24.0830148 15.8941181,24.2229615 C13.4904391,24.3629082 11.1349425,23.5084643 9.38,21.86 C6.12293682,18.5230288 6.12293682,13.1969712 9.38,9.86 C10.9874941,8.26377671 13.1751642,7.39015268 15.44,7.44 C18.0096812,7.38728436 20.4679516,8.48800243 22.14,10.44 L19.89,13 C18.8859423,11.6452959 17.2961979,10.8504237 15.61,10.86 C14.3137266,10.8360002 13.0588126,11.3164529 12.11,12.2 C11.1261826,13.132065 10.5968605,14.446244 10.66,15.8 C10.5993754,17.1710256 11.11414,18.5050636 12.08,19.48 L12.08,19.48 Z"/>
  </g>
</svg>
