<svg xmlns="http://www.w3.org/2000/svg" width="176" height="33" viewBox="0 0 176 33">
  <g fill="none">
    <circle cx="15.43" cy="16.23" r="13.81" fill="#FFF"/>
    <polygon fill="#414042" points="37.56 1.21 40.01 1.21 43.95 8.77 43.95 1.21 46.54 1.21 46.54 15.05 44.24 15.05 40.14 7.17 40.14 15.05 37.55 15.05 37.55 1.19"/>
    <path fill="#414042" d="M48.31,8.38 L48.31,7.92 C48.31,3.54 50.37,0.99 53.31,0.99 C56.25,0.99 58.31,3.54 58.31,7.9 L58.31,8.36 C58.31,12.72 56.25,15.29 53.31,15.29 C50.37,15.29 48.31,12.74 48.31,8.38 Z M55.68,8.28 L55.68,8.05 C55.68,4.92 54.68,3.46 53.34,3.46 C52,3.46 51.02,4.91 51.02,8.03 L51.02,8.29 C51.02,11.42 52.02,12.88 53.36,12.88 C54.7,12.88 55.67,11.41 55.67,8.28 L55.68,8.28 Z"/>
    <polygon fill="#414042" points="60.14 1.21 62.6 1.21 66.54 8.77 66.54 1.21 69.13 1.21 69.13 15.05 66.83 15.05 62.73 7.17 62.73 15.05 60.14 15.05 60.14 1.19"/>
    <polygon fill="#414042" points="71.05 7.65 76.54 7.65 76.54 10.22 71.05 10.22"/>
    <path fill="#414042" d="M78.08 8.3L78.08 7.98C78.08 3.47 80.3 1.05 83.29 1.05 84.5326297 1.02246089 85.7310812 1.51125529 86.6 2.4L85.09 4.52C84.6328056 3.97821304 83.9769256 3.64306558 83.27 3.59 81.9 3.59 80.79 5.11 80.79 8.08L80.79 8.18C80.79 11.35 81.98 12.7 83.23 12.7 84.0088635 12.667501 84.7366827 12.3035915 85.23 11.7L86.64 13.76C85.7300841 14.7093211 84.4749388 15.250332 83.16 15.26 80.04 15.23 78.08 12.82 78.08 8.3zM87.22 8.38L87.22 7.92C87.22 3.54 89.28.99 92.22.99 95.16.99 97.22 3.54 97.22 7.9L97.22 8.36C97.22 12.72 95.16 15.29 92.22 15.29 89.28 15.29 87.22 12.74 87.22 8.38zM94.59 8.28L94.59 8.05C94.59 4.92 93.59 3.46 92.25 3.46 90.91 3.46 89.93 4.91 89.93 8.03L89.93 8.29C89.93 11.42 90.93 12.88 92.27 12.88 93.61 12.88 94.59 11.41 94.59 8.28L94.59 8.28z"/>
    <polygon fill="#414042" points="99.06 1.21 101.77 1.21 104.21 6.58 106.63 1.21 109.36 1.21 109.36 15.05 106.77 15.05 106.77 6.42 104.22 11.92 104.22 11.92 101.67 6.45 101.67 15.05 99.12 15.05 99.12 1.19"/>
    <polygon fill="#414042" points="111.43 1.21 114.14 1.21 116.58 6.58 119 1.21 121.73 1.21 121.73 15.05 119.14 15.05 119.14 6.42 116.59 11.92 116.59 11.92 114.04 6.45 114.04 15.05 111.43 15.05 111.43 1.19"/>
    <polygon fill="#414042" points="123.88 1.21 131.09 1.21 131.09 3.67 126.52 3.67 126.52 6.88 130.52 6.88 130.52 9.34 126.52 9.34 126.52 12.63 131.17 12.63 131.17 15.05 123.88 15.05 123.88 1.19"/>
    <path fill="#414042" d="M132.9 1.21L136.82 1.21C138.094497 1.14025796 139.34395 1.58314744 140.29 2.44 141.09643 3.32362073 141.511211 4.49582945 141.44 5.69L141.44 5.81C141.541452 7.40936845 140.717367 8.92537393 139.32 9.71L141.76 15.08 138.76 15.08 136.68 10.39 135.51 10.39 135.51 15.05 132.86 15.05 132.86 1.19 132.9 1.21zM136.6 8.02C137.197492 8.07731179 137.789134 7.86324243 138.211621 7.43687904 138.634108 7.01051566 138.842766 6.41694367 138.78 5.82 138.839492 5.21472449 138.620333 4.61526581 138.184479 4.19108595 137.748624 3.7669061 137.143438 3.56410027 136.54 3.64L135.54 3.64 135.54 8.05 136.54 8.05 136.6 8.02zM142.78 8.3L142.78 7.98C142.78 3.47 145 1.05 147.99 1.05 149.23263 1.02246089 150.431081 1.51125529 151.3 2.4L149.79 4.52C149.332094 3.97910997 148.676616 3.64416783 147.97 3.59 146.6 3.59 145.49 5.11 145.49 8.08L145.49 8.18C145.49 11.35 146.68 12.7 147.93 12.7 148.708864 12.667501 149.436683 12.3035915 149.93 11.7L151.34 13.76C150.427672 14.7118033 149.168417 15.2530303 147.85 15.26 144.74 15.23 142.78 12.82 142.78 8.3z"/>
    <polygon fill="#414042" points="152.84 1.21 155.43 1.21 155.43 15.05 152.8 15.05 152.8 1.19"/>
    <path fill="#414042" d="M160.66,1.15 L163.33,1.15 L167.19,15.07 L164.43,15.07 L163.68,12.18 L160.12,12.18 L159.43,15.05 L156.82,15.05 L160.66,1.15 Z M163.1,9.82 L161.97,5.27 L160.8,9.82 L163.1,9.82 L163.1,9.82 Z"/>
    <polygon fill="#414042" points="168.43 1.21 171.08 1.21 171.08 12.6 175.24 12.6 175.24 15.05 168.43 15.05 168.43 1.19"/>
    <path fill="#414042" d="M37.43 27.4L37.43 18.29 40.08 18.29 40.08 27.54C40.08 29.14 40.77 29.9 41.84 29.9 42.91 29.9 43.6 29.17 43.6 27.56L43.6 18.29 46.23 18.29 46.23 27.38C46.23 30.77 44.45 32.38 41.81 32.38 39.17 32.38 37.43 30.75 37.43 27.4zM47.22 30.45L48.8 28.39C49.459861 29.2011182 50.4111003 29.7216076 51.45 29.84 51.8486751 29.8738345 52.243124 29.7379071 52.5363207 29.4656531 52.8295174 29.193399 52.9942508 28.8100856 52.99 28.41 52.99 27.8 52.67 27.32 51.11 26.41 49.01 25.16 47.78 24.07 47.78 22.13L47.78 22.13C47.7592458 21.0379467 48.2021238 19.9882232 48.9988423 19.2410614 49.7955607 18.4938996 50.8715258 18.1192535 51.96 18.21 53.3726861 18.2110353 54.7236649 18.7889942 55.7 19.81L54.08 21.81C53.5291307 21.1217124 52.7187097 20.6911762 51.84 20.62 51.4918364 20.5806418 51.1431377 20.6892162 50.878861 20.9192701 50.6145843 21.1493239 50.4589946 21.4797343 50.45 21.83 50.45 22.48 50.77 22.96 52.69 24.15 54.61 25.34 55.69 26.43 55.69 28.27L55.69 28.27C55.691107 29.3628023 55.2450614 30.4084773 54.4555205 31.1640189 53.6659795 31.9195605 52.6016958 32.3191767 51.51 32.27 49.8913181 32.275348 48.3410438 31.6176559 47.22 30.45L47.22 30.45z"/>
    <polygon fill="#414042" points="57.16 18.3 64.37 18.3 64.37 20.76 59.8 20.76 59.8 23.97 63.8 23.97 63.8 26.43 59.8 26.43 59.8 29.72 64.43 29.72 64.43 32.18 57.14 32.18 57.14 18.32"/>
    <path fill="#414042" d="M69.82,18.3 L73.27,18.3 C76.16,18.3 78.06,19.92 78.06,23.01 L78.06,23.01 C78.06,26.18 76.06,27.72 73.35,27.84 L72.43,27.84 L72.43,32.12 L69.78,32.12 L69.78,18.26 L69.82,18.3 Z M73.17,25.47 C73.7956175,25.5108167 74.4067516,25.2699734 74.8363186,24.8133166 C75.2658856,24.3566598 75.4689522,23.7319564 75.39,23.11 C75.39,21.59 74.7,20.73 73.19,20.73 L72.43,20.73 L72.43,25.46 L73.12,25.46 L73.17,25.47 Z"/>
    <polygon fill="#414042" points="79.52 18.3 86.73 18.3 86.73 20.76 82.16 20.76 82.16 23.97 86.16 23.97 86.16 26.43 82.16 26.43 82.16 29.72 86.81 29.72 86.81 32.18 79.52 32.18 79.52 18.32"/>
    <path fill="#414042" d="M88.55,18.3 L92.43,18.3 C93.7010985,18.2329651 94.9464379,18.6756724 95.89,19.53 C96.6964296,20.4136207 97.1112112,21.5858295 97.04,22.78 L97.04,22.9 C97.1414518,24.4993684 96.3173667,26.0153739 94.92,26.8 L97.36,32.17 L94.36,32.17 L92.28,27.48 L91.11,27.48 L91.11,32.17 L88.46,32.17 L88.46,18.31 L88.55,18.3 Z M92.25,25.11 C92.847492,25.1673118 93.4391337,24.9532424 93.8616211,24.526879 C94.2841084,24.1005157 94.4927658,23.5069437 94.43,22.91 C94.4894919,22.3047245 94.2703334,21.7052658 93.8344788,21.281086 C93.3986243,20.8569061 92.7934376,20.6541003 92.19,20.73 L91.19,20.73 L91.19,25.11 L92.19,25.11 L92.25,25.11 Z"/>
    <polygon fill="#414042" points="98.8 18.3 101.51 18.3 103.95 23.67 106.37 18.3 109.1 18.3 109.1 32.16 106.51 32.16 106.51 23.53 103.96 29.04 103.96 29.04 101.41 23.57 101.41 32.16 98.86 32.16 98.86 18.3"/>
    <polygon fill="#414042" points="111.29 18.3 113.92 18.3 113.92 32.16 111.29 32.16"/>
    <polygon fill="#414042" points="118.14 20.79 115.51 20.79 115.51 18.3 123.43 18.3 123.43 20.79 120.8 20.79 120.8 32.16 118.15 32.16 118.15 20.79"/>
    <polygon fill="#414042" points="126.93 20.79 124.3 20.79 124.3 18.3 132.22 18.3 132.22 20.79 129.59 20.79 129.59 32.16 126.94 32.16 126.94 20.79"/>
    <polygon fill="#414042" points="133.72 18.3 140.93 18.3 140.93 20.76 136.36 20.76 136.36 23.97 140.36 23.97 140.36 26.43 136.36 26.43 136.36 29.72 141.01 29.72 141.01 32.18 133.72 32.18 133.72 18.32"/>
    <path fill="#414042" d="M142.74 18.3L146.17 18.3C149.79 18.3 151.95 20.81 151.95 25.07L151.95 25.39C151.95 29.63 149.79 32.16 146.17 32.16L142.74 32.16 142.74 18.3zM145.39 20.72L145.39 29.72 146.12 29.72C147.96 29.72 149.21 28.39 149.21 25.3L149.21 25.1C149.21 22.01 147.96 20.68 146.12 20.68L145.43 20.68 145.39 20.72zM15.5 1.22C6.93958638 1.22 0 8.15958638 0 16.72L0 32.22 15.5 32.22C24.0604136 32.22 31 25.2804136 31 16.72L31 1.22 15.5 1.22 15.5 1.22zM15.5 29.39C8.50255222 29.39 2.83 23.7174478 2.83 16.72 2.83 9.72255222 8.50255222 4.05 15.5 4.05 22.4974478 4.05 28.17 9.72255222 28.17 16.72 28.17 20.0802929 26.8351288 23.302957 24.4590429 25.6790429 22.082957 28.0551288 18.8602929 29.39 15.5 29.39z"/>
    <path fill="#414042" d="M12.08,20.47 C12.950631,21.3646035 14.1518404,21.8602833 15.4,21.84 C17.1119947,21.8733833 18.7365322,21.0852782 19.77,19.72 L22.09,22.11 C20.53822,23.9509879 18.2977971,25.0730148 15.8941181,25.2129615 C13.4904391,25.3529082 11.1349425,24.4984643 9.38,22.85 C6.12293682,19.5130288 6.12293682,14.1869712 9.38,10.85 C10.9874941,9.25377671 13.1751642,8.38015268 15.44,8.43 C18.0096812,8.37728436 20.4679516,9.47800243 22.14,11.43 L19.89,13.99 C18.8859423,12.6352959 17.2961979,11.8404237 15.61,11.85 C14.3137266,11.8260002 13.0588126,12.3064529 12.11,13.19 C11.1261826,14.122065 10.5968605,15.436244 10.66,16.79 C10.5993754,18.1610256 11.11414,19.4950636 12.08,20.47 L12.08,20.47 Z"/>
  </g>
</svg>
