<svg xmlns="http://www.w3.org/2000/svg" width="176" height="33" viewBox="0 0 176 33">
  <g fill="none">
    <circle cx="15.43" cy="15.73" r="13.81" fill="#FFF"/>
    <path fill="#414042" d="M37.18 24.22L37.18 23.9C37.18 19.39 39.4 16.97 42.39 16.97 43.6326297 16.9424609 44.8310812 17.4312553 45.7 18.32L44.19 20.44C43.7328056 19.898213 43.0769256 19.5630656 42.37 19.51 41 19.51 39.89 21.03 39.89 24L39.89 24.1C39.89 27.27 41.08 28.61 42.33 28.61 43.1088635 28.577501 43.8366827 28.2135915 44.33 27.61L45.74 29.67C44.8300841 30.6193211 43.5749388 31.160332 42.26 31.17 39.14 31.15 37.18 28.74 37.18 24.22zM46.33 24.3L46.33 23.84C46.33 19.46 48.39 16.91 51.33 16.91 54.27 16.91 56.33 19.46 56.33 23.82L56.33 24.28C56.33 28.64 54.27 31.21 51.33 31.21 48.39 31.21 46.33 28.66 46.33 24.3zM53.7 24.2L53.7 23.94C53.7 20.81 52.7 19.35 51.36 19.35 50.02 19.35 49.04 20.8 49.04 23.92L49.04 24.18C49.04 27.31 50.04 28.77 51.38 28.77 52.72 28.77 53.7 27.33 53.7 24.2zM58.17 17.13L61.62 17.13C64.51 17.13 66.41 18.75 66.41 21.84L66.41 21.84C66.41 25.01 64.41 26.55 61.7 26.67L60.83 26.67 60.83 31.03 58.18 31.03 58.18 17.13 58.17 17.13zM61.52 24.3C62.1456175 24.3408167 62.7567516 24.0999734 63.1863186 23.6433166 63.6158856 23.1866598 63.8189522 22.5619564 63.74 21.94 63.74 20.42 63.05 19.56 61.54 19.56L60.83 19.56 60.83 24.29 61.52 24.29 61.52 24.3z"/>
    <polygon fill="#414042" points="70.28 25.53 66.68 17.13 69.57 17.13 71.63 22.46 73.71 17.13 76.52 17.13 72.94 25.51 72.94 31.03 70.29 31.03 70.29 25.56"/>
    <path fill="#414042" d="M77.68,17.13 L81.6,17.13 C82.8710985,17.0629651 84.1164379,17.5056724 85.06,18.36 C85.8664296,19.2436207 86.2812112,20.4158295 86.21,21.61 L86.21,21.73 C86.3114518,23.3293684 85.4873667,24.8453739 84.09,25.63 L86.53,31 L83.53,31 L81.45,26.31 L80.28,26.31 L80.28,31.03 L77.63,31.03 L77.63,17.13 L77.68,17.13 Z M81.38,23.94 C81.977492,23.9973118 82.5691337,23.7832424 82.9916211,23.356879 C83.4141084,22.9305157 83.6227658,22.3369437 83.56,21.74 C83.6194919,21.1347245 83.4003334,20.5352658 82.9644788,20.111086 C82.5286243,19.6869061 81.9234376,19.4841003 81.32,19.56 L80.32,19.56 L80.32,23.94 L81.32,23.94 L81.38,23.94 Z"/>
    <polygon fill="#414042" points="88.01 17.13 90.64 17.13 90.64 31.03 88.01 31.03"/>
    <path fill="#414042" d="M92.49,24.22 L92.49,23.9 C92.49,19.62 94.83,16.97 98.09,16.97 C99.3839053,16.9623449 100.635915,17.4282916 101.61,18.28 L100.15,20.46 C99.6671109,19.8435079 98.9329271,19.476416 98.15,19.46 C96.45,19.46 95.24,21.1 95.24,23.88 L95.24,24.16 C95.24,27.37 96.61,28.69 98.17,28.69 C98.5649758,28.6998283 98.9553094,28.6031084 99.3,28.41 L99.3,25.41 L97.42,25.41 L97.42,23.07 L101.78,23.07 L101.78,29.94 C100.664505,30.6998929 99.3496312,31.1138348 98,31.13 C94.88,31.15 92.49,28.84 92.49,24.22 Z"/>
    <polygon fill="#414042" points="103.65 17.13 106.3 17.13 106.3 22.77 109.69 22.77 109.69 17.13 112.34 17.13 112.34 31.03 109.69 31.03 109.69 25.31 106.3 25.31 106.3 31.03 103.65 31.03"/>
    <polygon fill="#414042" points="116.43 19.63 113.8 19.63 113.8 17.14 121.72 17.14 121.72 19.63 119.09 19.63 119.09 31.03 116.43 31.03"/>
    <polygon fill="#414042" points="37.18 .03 39.81 .03 39.81 13.89 37.18 13.89"/>
    <polygon fill="#414042" points="42.03 .03 44.48 .03 48.42 7.59 48.42 .03 51.01 .03 51.01 13.89 48.71 13.89 44.61 6.01 44.61 13.89 42.02 13.89 42.02 .03"/>
    <path fill="#414042" d="M15.5,0.03 C6.93958638,0.03 0,6.96958638 0,15.53 L0,31.03 L15.5,31.03 C24.0604136,31.03 31,24.0904136 31,15.53 L31,0.03 L15.5,0.03 Z M15.5,28.2 C8.50255222,28.2 2.83,22.5274478 2.83,15.53 C2.83,8.53255222 8.50255222,2.86 15.5,2.86 C22.4974478,2.86 28.17,8.53255222 28.17,15.53 C28.1832951,18.8989477 26.8542955,22.1344718 24.476767,24.5213827 C22.0992386,26.9082937 18.8689739,28.2500262 15.5,28.25 L15.5,28.2 Z"/>
    <path fill="#414042" d="M12.08,19.33 C12.950631,20.2246035 14.1518404,20.7202833 15.4,20.7 C17.1119947,20.7333833 18.7365322,19.9452782 19.77,18.58 L22.09,20.97 C20.53822,22.8109879 18.2977971,23.9330148 15.8941181,24.0729615 C13.4904391,24.2129082 11.1349425,23.3584643 9.38,21.71 C6.12293682,18.3730288 6.12293682,13.0469712 9.38,9.71 C10.9874941,8.11377671 13.1751642,7.24015268 15.44,7.29 C18.0096812,7.23728436 20.4679516,8.33800243 22.14,10.29 L19.89,12.85 C18.8859423,11.4952959 17.2961979,10.7004237 15.61,10.71 C14.3137266,10.6860002 13.0588126,11.1664529 12.11,12.05 C11.1261826,12.982065 10.5968605,14.296244 10.66,15.65 C10.5993754,17.0210256 11.11414,18.3550636 12.08,19.33 L12.08,19.33 Z"/>
  </g>
</svg>
