<svg xmlns="http://www.w3.org/2000/svg" width="176" height="33" viewBox="0 0 176 33">
  <g fill="none">
    <circle cx="15.24" cy="16.37" r="13.81" fill="#FFF"/>
    <polygon fill="#414042" points="37.64 1 40.27 1 40.27 14.86 37.64 14.86"/>
    <polygon fill="#414042" points="42.49 1 44.94 1 48.88 8.56 48.88 1 51.47 1 51.47 14.86 49.17 14.86 45.07 6.98 45.07 14.86 42.48 14.86 42.48 1"/>
    <polygon fill="#414042" points="59.26 3.49 56.63 3.49 56.63 .99 64.55 .99 64.55 3.49 61.92 3.49 61.92 14.86 59.27 14.86 59.27 3.49"/>
    <polygon fill="#414042" points="66.04 1 68.69 1 68.69 6.64 72.08 6.64 72.08 1 74.73 1 74.73 14.86 72.08 14.86 72.08 9.14 68.69 9.14 68.69 14.86 66.04 14.86"/>
    <polygon fill="#414042" points="76.83 1 84.04 1 84.04 3.46 79.47 3.46 79.47 6.67 83.47 6.67 83.47 9.13 79.47 9.13 79.47 12.42 84.12 12.42 84.12 14.88 76.83 14.88 76.83 1.02"/>
    <path fill="#414042" d="M37.44,27.26 L37.44,18.15 L40.09,18.15 L40.09,27.4 C40.09,29 40.78,29.76 41.85,29.76 C42.92,29.76 43.61,29.03 43.61,27.42 L43.61,18.15 L46.24,18.15 L46.24,27.24 C46.24,30.63 44.46,32.24 41.82,32.24 C39.18,32.24 37.44,30.61 37.44,27.26 Z"/>
    <polygon fill="#414042" points="48.29 18.15 50.74 18.15 54.68 25.71 54.68 18.15 57.27 18.15 57.27 32.01 54.97 32.01 50.87 24.13 50.87 32.01 48.28 32.01 48.28 18.15"/>
    <polygon fill="#414042" points="59.49 18.15 62.12 18.15 62.12 32.01 59.49 32.01"/>
    <polygon fill="#414042" points="66.34 20.65 63.71 20.65 63.71 18.15 71.63 18.15 71.63 20.65 69 20.65 69 32.02 66.35 32.02 66.35 20.65"/>
    <polygon fill="#414042" points="73.13 18.15 80.34 18.15 80.34 20.61 75.77 20.61 75.77 23.82 79.77 23.82 79.77 26.28 75.77 26.28 75.77 29.57 80.42 29.57 80.42 32.03 73.13 32.03 73.13 18.17"/>
    <path fill="#414042" d="M82.15 18.15L85.58 18.15C89.2 18.15 91.36 20.67 91.36 24.92L91.36 25.24C91.36 29.48 89.2 32.01 85.58 32.01L82.15 32.01 82.15 18.15zM84.8 20.57L84.8 29.57 85.53 29.57C87.37 29.57 88.62 28.24 88.62 25.15L88.62 24.95C88.62 21.86 87.37 20.53 85.53 20.53L84.83 20.53 84.8 20.57zM95.67 30.33L97.25 28.27C97.909861 29.0811182 98.8611003 29.6016076 99.9 29.72 100.298675 29.7538345 100.693124 29.6179071 100.986321 29.3456531 101.279517 29.073399 101.444251 28.6900856 101.44 28.29 101.44 27.68 101.12 27.2 99.56 26.29 97.46 25.04 96.23 23.95 96.23 22.01L96.23 22.01C96.2092458 20.9179467 96.6521238 19.8682232 97.4488423 19.1210614 98.2455607 18.3738996 99.3215258 17.9992535 100.41 18.09 101.822447 18.0921968 103.17299 18.6699689 104.15 19.69L102.53 21.69C101.979131 21.0017124 101.16871 20.5711762 100.29 20.5 99.9418364 20.4606418 99.5931377 20.5692162 99.328861 20.7992701 99.0645843 21.0293239 98.9089946 21.3597343 98.9 21.71 98.9 22.36 99.22 22.84 101.14 24.03 103.06 25.22 104.14 26.31 104.14 28.15L104.14 28.15C104.141107 29.2428023 103.695061 30.2884773 102.90552 31.0440189 102.11598 31.7995605 101.051696 32.1991767 99.96 32.15 98.3413181 32.155348 96.7910438 31.4976559 95.67 30.33L95.67 30.33z"/>
    <polygon fill="#414042" points="107.31 20.65 104.68 20.65 104.68 18.15 112.6 18.15 112.6 20.65 109.97 20.65 109.97 32.02 107.32 32.02 107.32 20.65"/>
    <path fill="#414042" d="M116.04,18.09 L118.71,18.09 L122.57,32.01 L119.83,32.01 L119.08,29.12 L115.52,29.12 L114.79,32.01 L112.18,32.01 L116.04,18.09 Z M118.48,26.76 L117.35,22.21 L116.18,26.76 L118.48,26.76 Z"/>
    <polygon fill="#414042" points="124.83 20.65 122.2 20.65 122.2 18.15 130.12 18.15 130.12 20.65 127.49 20.65 127.49 32.02 124.83 32.02"/>
    <polygon fill="#414042" points="131.58 18.15 138.83 18.15 138.83 20.61 134.26 20.61 134.26 23.82 138.26 23.82 138.26 26.28 134.26 26.28 134.26 29.57 138.83 29.57 138.83 32.03 131.54 32.03 131.54 18.17"/>
    <path fill="#414042" d="M139.53 30.33L141.11 28.27C141.769861 29.0811182 142.7211 29.6016076 143.76 29.72 144.158675 29.7538345 144.553124 29.6179071 144.846321 29.3456531 145.139517 29.073399 145.304251 28.6900856 145.3 28.29 145.3 27.68 144.98 27.2 143.42 26.29 141.32 25.04 140.09 23.95 140.09 22.01L140.09 22.01C140.069246 20.9179467 140.512124 19.8682232 141.308842 19.1210614 142.105561 18.3738996 143.181526 17.9992535 144.27 18.09 145.682686 18.0910353 147.033665 18.6689942 148.01 19.69L146.39 21.69C145.839131 21.0017124 145.02871 20.5711762 144.15 20.5 143.801836 20.4606418 143.453138 20.5692162 143.188861 20.7992701 142.924584 21.0293239 142.768995 21.3597343 142.76 21.71 142.76 22.36 143.08 22.84 145 24.03 146.92 25.22 148 26.31 148 28.15L148 28.15C148.001107 29.2428023 147.555061 30.2884773 146.76552 31.0440189 145.97598 31.7995605 144.911696 32.1991767 143.82 32.15 142.201318 32.155348 140.651044 31.4976559 139.53 30.33L139.53 30.33zM31 1.01L31 16.51C31 25.0704136 24.0604136 32.01 15.5 32.01L0 32.01 0 16.51C0 7.94958638 6.93958638 1.01 15.5 1.01L31 1.01zM7 16.66C6.95497284 14.4038826 7.8496643 12.230543 9.47 10.66 11.0804419 9.06940239 13.2670362 8.19981621 15.53 8.25 17.1244822 8.22419519 18.6941339 8.64692702 20.06 9.47L23.12 6.41C18.0799134 2.64229341 11.0375616 3.14833845 6.58795002 7.59795002 2.13833845 12.0475616 1.63229341 19.0899134 5.4 24.13L8.26 21.27C7.37765367 19.8973668 6.92821406 18.2912299 6.97 16.66L7 16.66zM25.51 8.66L13.16 21.01C13.8521809 21.4003766 14.6353943 21.6004928 15.43 21.59 17.1447752 21.623335 18.7723217 20.8355727 19.81 19.47L22.13 21.87C20.5267384 23.8294939 18.1317911 24.9701196 15.6 24.98 13.829496 25.0232467 12.0870585 24.5318793 10.6 23.57L7.74 26.43C9.9581294 28.1822859 12.7032369 29.1337352 15.53 29.13 20.3565722 29.1128166 24.7534389 26.352712 26.8668151 22.0133877 28.9801914 17.6740634 28.4423295 12.5106035 25.48 8.7L25.51 8.66zM10.74 16.57C10.7304151 17.204453 10.8250051 17.8361793 11.02 18.44L17.51 11.95C16.9306243 11.7371356 16.317191 11.6320724 15.7 11.64 14.4051095 11.6132926 13.1503764 12.0900912 12.2 12.97 11.191692 13.9048195 10.6465884 15.2364821 10.71 16.61L10.74 16.57z"/>
  </g>
</svg>
