<svg xmlns="http://www.w3.org/2000/svg" width="176" height="33" viewBox="0 0 176 33">
  <g fill="none">
    <circle cx="15.24" cy="16.67" r="13.81" fill="#FFF"/>
    <path fill="#414042" d="M37.18,8.38 L37.18,7.92 C37.18,3.54 39.24,0.99 42.18,0.99 C45.12,0.99 47.18,3.54 47.18,7.9 L47.18,8.36 C47.18,12.72 45.12,15.29 42.18,15.29 C39.24,15.29 37.18,12.74 37.18,8.38 Z M44.55,8.28 L44.55,8.07 C44.55,4.94 43.55,3.48 42.21,3.48 C40.87,3.48 39.89,4.93 39.89,8.05 L39.89,8.31 C39.89,11.44 40.89,12.9 42.23,12.9 C43.57,12.9 44.55,11.41 44.55,8.28 L44.55,8.28 Z"/>
    <polygon fill="#414042" points="50.55 3.71 47.92 3.71 47.92 1.21 55.83 1.21 55.83 3.71 53.2 3.71 53.2 15.07 50.55 15.07 50.55 3.7"/>
    <polygon fill="#414042" points="57.33 1.21 59.98 1.21 59.98 6.85 63.37 6.85 63.37 1.21 66.02 1.21 66.02 15.07 63.37 15.07 63.37 9.35 59.98 9.35 59.98 15.07 57.33 15.07"/>
    <polygon fill="#414042" points="68.16 1.21 75.37 1.21 75.37 3.67 70.83 3.67 70.83 6.88 74.83 6.88 74.83 9.34 70.83 9.34 70.83 12.63 75.48 12.63 75.48 15.07 68.19 15.07 68.19 1.21"/>
    <path fill="#414042" d="M77.19,1.21 L81.11,1.21 C82.3844973,1.14025796 83.6339498,1.58314744 84.58,2.44 C85.3864296,3.32362073 85.8012112,4.49582945 85.73,5.69 L85.73,5.81 C85.8314518,7.40936845 85.0073667,8.92537393 83.61,9.71 L86.05,15.08 L83.05,15.08 L80.97,10.39 L79.83,10.39 L79.83,15.07 L77.18,15.07 L77.18,1.21 L77.19,1.21 Z M80.89,8.02 C81.487492,8.07731179 82.0791337,7.86324243 82.5016211,7.43687904 C82.9241084,7.01051566 83.1327658,6.41694367 83.07,5.82 C83.1294919,5.21472449 82.9103334,4.61526581 82.4744788,4.19108595 C82.0386243,3.7669061 81.4334376,3.56410027 80.83,3.64 L79.83,3.64 L79.83,8.07 L80.83,8.07 L80.89,8.02 Z"/>
    <polygon fill="#414042" points="91.08 1.21 93.73 1.21 93.73 12.6 97.89 12.6 97.89 15.07 91.08 15.07 91.08 1.21"/>
    <polygon fill="#414042" points="99.35 1.21 106.56 1.21 106.56 3.67 101.99 3.67 101.99 6.88 105.99 6.88 105.99 9.34 101.99 9.34 101.99 12.63 106.64 12.63 106.64 15.07 99.35 15.07"/>
    <path fill="#414042" d="M107.89 8.3L107.89 7.98C107.89 3.7 110.23 1.05 113.49 1.05 114.783905 1.04234494 116.035915 1.5082916 117.01 2.36L115.55 4.54C115.067111 3.92350793 114.332927 3.55641605 113.55 3.54 111.85 3.54 110.64 5.18 110.64 7.96L110.64 8.24C110.64 11.45 112.01 12.77 113.57 12.77 113.964976 12.7798283 114.355309 12.6831084 114.7 12.49L114.7 9.49 112.82 9.49 112.82 7.15 117.18 7.15 117.18 14.07C116.064505 14.8298929 114.749631 15.2438348 113.4 15.26 110.28 15.23 107.89 12.92 107.89 8.3zM122.02 1.16L124.69 1.16 128.55 15.08 125.83 15.08 125.08 12.19 121.52 12.19 120.83 15.07 118.22 15.07 122.02 1.16zM124.46 9.83L123.33 5.28 122.16 9.83 124.46 9.83z"/>
    <polygon fill="#414042" points="129.83 1.21 132.48 1.21 132.48 12.6 136.64 12.6 136.64 15.07 129.83 15.07"/>
    <path fill="#414042" d="M37.56,18.37 L41.48,18.37 C42.7510985,18.3029651 43.9964379,18.7456724 44.94,19.6 C45.7464296,20.4836207 46.1612112,21.6558295 46.09,22.85 L46.09,22.97 C46.1914518,24.5693684 45.3673667,26.0853739 43.97,26.87 L46.41,32.24 L43.41,32.24 L41.33,27.55 L40.16,27.55 L40.16,32.24 L37.51,32.24 L37.51,18.37 L37.56,18.37 Z M41.26,25.18 C41.857492,25.2373118 42.4491337,25.0232424 42.8716211,24.596879 C43.2941084,24.1705157 43.5027658,23.5769437 43.44,22.98 C43.4994919,22.3747245 43.2803334,21.7752658 42.8444788,21.351086 C42.4086243,20.9269061 41.8034376,20.7241003 41.2,20.8 L40.2,20.8 L40.2,25.18 L41.2,25.18 L41.26,25.18 Z"/>
    <polygon fill="#414042" points="47.83 18.37 55.04 18.37 55.04 20.83 50.47 20.83 50.47 24.07 54.47 24.07 54.47 26.53 50.47 26.53 50.47 29.82 55.12 29.82 55.12 32.28 47.83 32.28"/>
    <path fill="#414042" d="M55.77,30.53 L57.35,28.47 C58.009861,29.2811182 58.9611003,29.8016076 60,29.92 C60.3986751,29.9538345 60.793124,29.8179071 61.0863207,29.5456531 C61.3795174,29.273399 61.5442508,28.8900856 61.54,28.49 C61.54,27.88 61.22,27.4 59.66,26.49 C57.56,25.24 56.33,24.15 56.33,22.21 L56.33,22.21 C56.3092458,21.1179467 56.7521238,20.0682232 57.5488423,19.3210614 C58.3455607,18.5738996 59.4215258,18.1992535 60.51,18.29 C61.9226861,18.2910353 63.2736649,18.8689942 64.25,19.89 L62.63,21.89 C62.0791307,21.2017124 61.2687097,20.7711762 60.39,20.7 C60.0418364,20.6606418 59.6931377,20.7692162 59.428861,20.9992701 C59.1645843,21.2293239 59.0089946,21.5597343 59,21.91 C59,22.56 59.32,23.04 61.24,24.23 C63.16,25.42 64.24,26.51 64.24,28.35 L64.24,28.35 C64.241107,29.4428023 63.7950614,30.4884773 63.0055205,31.2440189 C62.2159795,31.9995605 61.1516958,32.3991767 60.06,32.35 C58.4413181,32.355348 56.8910438,31.6976559 55.77,30.53 L55.77,30.53 Z"/>
    <polygon fill="#414042" points="67.41 20.86 64.78 20.86 64.78 18.36 72.7 18.36 72.7 20.86 70.07 20.86 70.07 32.23 67.42 32.23 67.42 20.86"/>
    <path fill="#414042" d="M74.2,18.37 L78.12,18.37 C79.3944973,18.300258 80.6439498,18.7431474 81.59,19.6 C82.3964296,20.4836207 82.8112112,21.6558295 82.74,22.85 L82.74,22.97 C82.8414518,24.5693684 82.0173667,26.0853739 80.62,26.87 L83.06,32.24 L80.06,32.24 L77.98,27.55 L76.83,27.55 L76.83,32.24 L74.18,32.24 L74.18,18.37 L74.2,18.37 Z M77.9,25.18 C78.497492,25.2373118 79.0891337,25.0232424 79.5116211,24.596879 C79.9341084,24.1705157 80.1427658,23.5769437 80.08,22.98 C80.1394919,22.3747245 79.9203334,21.7752658 79.4844788,21.351086 C79.0486243,20.9269061 78.4434376,20.7241003 77.84,20.8 L76.84,20.8 L76.84,25.18 L77.84,25.18 L77.9,25.18 Z"/>
    <polygon fill="#414042" points="84.53 18.37 87.16 18.37 87.16 32.23 84.53 32.23"/>
    <path fill="#414042" d="M89,25.46 L89,25.14 C89,20.63 91.22,18.21 94.21,18.21 C95.4526297,18.1824609 96.6510812,18.6712553 97.52,19.56 L96.01,21.68 C95.5520939,21.13911 94.8966158,20.8041678 94.19,20.75 C92.82,20.75 91.71,22.27 91.71,25.24 L91.71,25.34 C91.71,28.51 92.9,29.86 94.15,29.86 C94.9288635,29.827501 95.6566827,29.4635915 96.15,28.86 L97.56,30.92 C96.6476719,31.8718033 95.388417,32.4130303 94.07,32.42 C90.96,32.39 89,29.97 89,25.46 Z"/>
    <polygon fill="#414042" points="100.98 20.86 98.35 20.86 98.35 18.36 106.27 18.36 106.27 20.86 103.64 20.86 103.64 32.23 100.99 32.23 100.99 20.86"/>
    <polygon fill="#414042" points="107.83 18.37 110.46 18.37 110.46 32.23 107.83 32.23"/>
    <path fill="#414042" d="M112.32,25.54 L112.32,25.07 C112.32,20.69 114.38,18.14 117.32,18.14 C120.26,18.14 122.32,20.69 122.32,25.05 L122.32,25.51 C122.32,29.87 120.26,32.44 117.32,32.44 C114.38,32.44 112.32,29.89 112.32,25.54 Z M119.69,25.44 L119.69,25.18 C119.69,22.05 118.69,20.59 117.35,20.59 C116.01,20.59 115.03,22.04 115.03,25.16 L115.03,25.42 C115.03,28.55 116.03,30.01 117.37,30.01 C118.71,30.01 119.68,28.57 119.68,25.44 L119.69,25.44 Z"/>
    <polygon fill="#414042" points="124.15 18.37 126.61 18.37 130.55 25.93 130.55 18.37 133.14 18.37 133.14 32.23 130.83 32.23 126.73 24.35 126.73 32.23 124.14 32.23 124.14 18.37"/>
    <path fill="#414042" d="M134.21 30.53L135.79 28.47C136.449861 29.2811182 137.4011 29.8016076 138.44 29.92 138.838675 29.9538345 139.233124 29.8179071 139.526321 29.5456531 139.819517 29.273399 139.984251 28.8900856 139.98 28.49 139.98 27.88 139.66 27.4 138.1 26.49 136 25.24 134.77 24.15 134.77 22.21L134.77 22.21C134.749246 21.1179467 135.192124 20.0682232 135.988842 19.3210614 136.785561 18.5738996 137.861526 18.1992535 138.95 18.29 140.362686 18.2910353 141.713665 18.8689942 142.69 19.89L141.07 21.89C140.519131 21.2017124 139.70871 20.7711762 138.83 20.7 138.481836 20.6606418 138.133138 20.7692162 137.868861 20.9992701 137.604584 21.2293239 137.448995 21.5597343 137.44 21.91 137.44 22.56 137.76 23.04 139.68 24.23 141.6 25.42 142.68 26.51 142.68 28.35L142.68 28.35C142.681107 29.4428023 142.235061 30.4884773 141.44552 31.2440189 140.65598 31.9995605 139.591696 32.3991767 138.5 32.35 136.881318 32.355348 135.331044 31.6976559 134.21 30.53zM31 1.22L31 16.72C31 25.2804136 24.0604136 32.22 15.5 32.22L0 32.22 0 16.72C0 8.15958638 6.93958638 1.22 15.5 1.22L31 1.22 31 1.22zM7 16.87C6.95497284 14.6138826 7.8496643 12.440543 9.47 10.87 11.0804419 9.27940239 13.2670362 8.40981621 15.53 8.46 17.1244822 8.43419519 18.6941339 8.85692702 20.06 9.68L23.12 6.62C18.0799134 2.85229341 11.0375616 3.35833845 6.58795002 7.80795002 2.13833845 12.2575616 1.63229341 19.2999134 5.4 24.34L8.26 21.48C7.37958532 20.110207 6.93022744 18.5078455 6.97 16.88L7 16.87zM25.51 8.87L13.16 21.22C13.8521809 21.6103766 14.6353943 21.8104928 15.43 21.8 17.1447752 21.833335 18.7723217 21.0455727 19.81 19.68L22.13 22.08C20.5267384 24.0394939 18.1317911 25.1801196 15.6 25.19 13.829496 25.2332467 12.0870585 24.7418793 10.6 23.78L7.74 26.64C9.9581294 28.3922859 12.7032369 29.3437352 15.53 29.34 20.3528892 29.31988 24.7453994 26.5612277 26.8580037 22.2256115 28.9706081 17.8899953 28.4362778 12.7306543 25.48 8.92L25.51 8.87zM10.74 16.78C10.7304151 17.414453 10.8250051 18.0461793 11.02 18.65L17.51 12.16C16.9306243 11.9471356 16.317191 11.8420724 15.7 11.85 14.4051095 11.8232926 13.1503764 12.3000912 12.2 13.18 11.188951 14.1171125 10.6435956 15.4530503 10.71 16.83L10.74 16.78z"/>
  </g>
</svg>
