<svg xmlns="http://www.w3.org/2000/svg" width="176" height="33" viewBox="0 0 176 33">
  <g fill="none">
    <circle cx="15.13" cy="16.51" r="13.81" fill="#FFF"/>
    <path fill="#414042" d="M31,0.27 L31,15.77 C31,24.3304136 24.0604136,31.27 15.5,31.27 L0,31.27 L0,15.77 C0,7.20958638 6.93958638,0.27 15.5,0.27 L31,0.27 Z M2.83,15.77 C2.83,22.7674478 8.50255222,28.44 15.5,28.44 C22.4974478,28.44 28.17,22.7674478 28.17,15.77 C28.17,8.77255222 22.4974478,3.1 15.5,3.1 C8.5064556,3.09999782 2.83551977,8.76645778 2.83,15.76 L2.83,15.77 Z"/>
    <path fill="#414042" d="M20.6 12.07C20.6291732 12.5521851 20.5470567 13.03462 20.36 13.48 20.21 13.78 20.1 13.99 20.03 14.13 19.9099186 14.3456815 19.7656549 14.5469795 19.6 14.73L19.14 15.24 18.07 16.29C17.806946 16.5207136 17.5809673 16.7905388 17.4 17.09 17.2658872 17.4052896 17.2109567 17.7486054 17.24 18.09L17.24 19.5 13.66 19.5 13.66 17.74C13.6349958 17.2473682 13.7204111 16.755376 13.91 16.3 14.1877253 15.823558 14.5236376 15.3835129 14.91 14.99L16.5 13.35C16.7447592 13.0448853 16.8692703 12.6606799 16.85 12.27 16.8660835 11.8625365 16.7307132 11.4635503 16.47 11.15 16.2287022 10.8475617 15.8563862 10.6800195 15.47 10.7 15.0703568 10.7037113 14.6974318 10.9013615 14.47 11.23 14.1677344 11.640303 13.9937521 12.1309333 13.97 12.64L10.23 12.64C10.3220156 11.2382649 10.9356472 9.92181102 11.95 8.95 12.9434449 8.04785746 14.2487417 7.56733609 15.59 7.61 16.8911267 7.550257 18.1677255 7.97816721 19.17 8.81 20.1145637 9.62492096 20.6401586 10.8231303 20.6 12.07zM16.97 20.96C16.1645419 20.1582536 14.8619525 20.160259 14.058967 20.9644818 13.2559814 21.7687045 13.2559814 23.0712955 14.058967 23.8755182 14.8619525 24.679741 16.1645419 24.6817464 16.97 23.88 17.768019 23.0702371 17.768019 21.7697629 16.97 20.96L16.97 20.96zM37.09 7.31L37.09 6.99C37.09 2.47 39.31.06 42.3.06 43.5426297.0324608867 44.7410812.521255291 45.61 1.41L44.1 3.53C43.6420939 2.98910997 42.9866158 2.65416783 42.28 2.6 40.91 2.6 39.8 4.12 39.8 7.1L39.8 7.2C39.8 10.37 40.99 11.72 42.24 11.72 43.0188635 11.687501 43.7466827 11.3235915 44.24 10.72L45.65 12.78C44.7376719 13.7318033 43.478417 14.2730303 42.16 14.28 39.05 14.24 37.09 11.82 37.09 7.31zM46.2 7.39L46.2 6.93C46.2 2.55 48.26 4.54747351e-13 51.25 4.54747351e-13 54.24 4.54747351e-13 56.25 2.56 56.25 6.91L56.25 7.37C56.25 11.73 54.19 14.3 51.2 14.3 48.21 14.3 46.2 11.74 46.2 7.39zM53.57 7.29L53.57 7.07C53.57 3.94 52.57 2.47 51.23 2.47 49.89 2.47 48.91 3.92 48.91 7.05L48.91 7.31C48.91 10.44 49.91 11.91 51.25 11.91 52.59 11.91 53.57 10.42 53.57 7.29L53.57 7.29zM58 .22L61.43.22C64.32.22 66.22 1.84 66.22 4.93L66.22 4.93C66.22 8.1 64.22 9.64 61.51 9.76L60.64 9.76 60.64 14.07 57.99 14.07 57.99.21 58 .22zM61.35 7.39C61.9756175 7.4308167 62.5867516 7.18997343 63.0163186 6.73331664 63.4458856 6.27665985 63.6489522 5.65195641 63.57 5.03 63.57 3.51 62.88 2.65 61.37 2.65L60.66 2.65 60.66 7.38 61.35 7.38 61.35 7.39z"/>
    <polygon fill="#414042" points="70.08 8.61 66.48 .21 69.37 .21 71.43 5.54 73.51 .21 76.32 .21 72.74 8.59 72.74 14.07 70.09 14.07 70.09 8.6"/>
    <path fill="#414042" d="M77.43,0.22 L81.35,0.22 C82.6244973,0.150257964 83.8739498,0.59314744 84.82,1.45 C85.6264296,2.33362073 86.0412112,3.50582945 85.97,4.7 L85.97,4.82 C86.0714518,6.41936845 85.2473667,7.93537393 83.85,8.72 L86.29,14.09 L83.29,14.09 L81.21,9.4 L80.04,9.4 L80.04,14.07 L77.43,14.07 L77.43,0.21 L77.43,0.22 Z M81.13,7.03 C81.727492,7.08731179 82.3191337,6.87324243 82.7416211,6.44687904 C83.1641084,6.02051566 83.3727658,5.42694367 83.31,4.83 C83.3694919,4.22472449 83.1503334,3.62526581 82.7144788,3.20108595 C82.2786243,2.7769061 81.6734376,2.57410027 81.07,2.65 L80.07,2.65 L80.07,7.07 L81.07,7.07 L81.13,7.03 Z"/>
    <polygon fill="#414042" points="87.74 .22 90.37 .22 90.37 14.07 87.74 14.07 87.74 .21"/>
    <path fill="#414042" d="M92.17,7.31 L92.17,6.99 C92.17,2.71 94.51,0.06 97.77,0.06 C99.0673428,0.0498956489 100.323331,0.515998851 101.3,1.37 L99.83,3.55 C99.3471109,2.93350793 98.6129271,2.56641605 97.83,2.55 C96.13,2.55 94.92,4.19 94.92,6.97 L94.92,7.25 C94.92,10.46 96.29,11.79 97.85,11.79 C98.2449758,11.7998283 98.6353094,11.7031084 98.98,11.51 L98.98,8.51 L97.1,8.51 L97.1,6.17 L101.43,6.17 L101.43,13.07 C100.314505,13.8298929 98.9996312,14.2438348 97.65,14.26 C94.57,14.24 92.17,11.92 92.17,7.31 Z"/>
    <polygon fill="#414042" points="103.3 .22 105.95 .22 105.95 5.87 109.34 5.87 109.34 .22 111.99 .22 111.99 14.07 109.34 14.07 109.34 8.35 105.95 8.35 105.95 14.07 103.3 14.07 103.3 .21"/>
    <polygon fill="#414042" points="116.09 2.71 113.43 2.71 113.43 .21 121.43 .21 121.43 2.71 118.8 2.71 118.8 14.07 116.15 14.07 116.15 2.7"/>
    <path fill="#414042" d="M37.35,26.49 L37.35,17.38 L40,17.38 L40,26.63 C40,28.23 40.69,28.99 41.76,28.99 C42.83,28.99 43.52,28.26 43.52,26.65 L43.52,17.38 L46.15,17.38 L46.15,26.47 C46.15,29.86 44.37,31.47 41.73,31.47 C39.09,31.47 37.35,29.83 37.35,26.49 Z"/>
    <polygon fill="#414042" points="48.16 17.38 50.62 17.38 54.56 24.95 54.56 17.38 57.15 17.38 57.15 31.24 54.85 31.24 50.75 23.36 50.75 31.24 48.16 31.24"/>
    <path fill="#414042" d="M59.25,17.38 L62.68,17.38 C66.3,17.38 68.46,19.9 68.46,24.15 L68.46,24.47 C68.46,28.71 66.3,31.24 62.68,31.24 L59.25,31.24 L59.25,17.38 Z M61.9,19.8 L61.9,28.8 L62.63,28.8 C64.47,28.8 65.72,27.47 65.72,24.38 L65.72,24.18 C65.72,21.09 64.47,19.76 62.63,19.76 L61.9,19.76 L61.9,19.8 Z"/>
    <polygon fill="#414042" points="70.16 17.38 77.37 17.38 77.37 19.84 72.79 19.84 72.79 23.07 76.79 23.07 76.79 25.53 72.79 25.53 72.79 28.82 77.43 28.82 77.43 31.28 70.14 31.28 70.14 17.42"/>
    <polygon fill="#414042" points="81.15 19.87 78.52 19.87 78.52 17.37 86.43 17.37 86.43 19.87 83.8 19.87 83.8 31.24 81.15 31.24"/>
    <polygon fill="#414042" points="87.9 17.38 95.11 17.38 95.11 19.84 90.53 19.84 90.53 23.07 94.53 23.07 94.53 25.53 90.53 25.53 90.53 28.82 95.18 28.82 95.18 31.28 87.89 31.28 87.89 17.42"/>
    <path fill="#414042" d="M96.89,17.38 L100.81,17.38 C102.084497,17.310258 103.33395,17.7531474 104.28,18.61 C105.08643,19.4936207 105.501211,20.6658295 105.43,21.86 L105.43,21.98 C105.531452,23.5793684 104.707367,25.0953739 103.31,25.88 L105.75,31.25 L102.75,31.25 L100.67,26.56 L99.5,26.56 L99.5,31.25 L96.85,31.25 L96.85,17.39 L96.89,17.38 Z M100.59,24.19 C101.187492,24.2473118 101.779134,24.0332424 102.201621,23.606879 C102.624108,23.1805157 102.832766,22.5869437 102.77,21.99 C102.829492,21.3847245 102.610333,20.7852658 102.174479,20.361086 C101.738624,19.9369061 101.133438,19.7341003 100.53,19.81 L99.53,19.81 L99.53,24.19 L100.53,24.19 L100.59,24.19 Z"/>
    <polygon fill="#414042" points="107.1 17.38 109.81 17.38 112.25 22.75 114.67 17.38 117.43 17.38 117.43 31.24 114.84 31.24 114.84 22.6 112.29 28.11 112.29 28.11 109.73 22.64 109.73 31.24 107.17 31.24 107.17 17.38"/>
    <polygon fill="#414042" points="119.56 17.38 122.19 17.38 122.19 31.24 119.56 31.24"/>
    <polygon fill="#414042" points="124.37 17.38 126.83 17.38 130.77 24.95 130.77 17.38 133.36 17.38 133.36 31.24 131.06 31.24 126.96 23.36 126.96 31.24 124.37 31.24"/>
    <polygon fill="#414042" points="135.43 17.38 142.64 17.38 142.64 19.84 138.06 19.84 138.06 23.07 142.06 23.07 142.06 25.53 138.06 25.53 138.06 28.82 142.71 28.82 142.71 31.28 135.43 31.28 135.43 17.42"/>
    <path fill="#414042" d="M144.43,17.38 L147.86,17.38 C151.48,17.38 153.64,19.9 153.64,24.15 L153.64,24.47 C153.64,28.71 151.48,31.24 147.86,31.24 L144.43,31.24 L144.43,17.38 Z M147.08,19.8 L147.08,28.8 L147.81,28.8 C149.65,28.8 150.9,27.47 150.9,24.38 L150.9,24.18 C150.9,21.09 149.65,19.76 147.81,19.76 L147.08,19.76 L147.08,19.8 Z"/>
  </g>
</svg>
