<?xml version="1.0" encoding="UTF-8"?>
<svg width="130px" height="60px" viewBox="0 0 130 60" version="1.1" xmlns="http://www.w3.org/2000/svg" xmlns:xlink="http://www.w3.org/1999/xlink">
    <!-- Generator: Sketch 51.2 (57519) - http://www.bohemiancoding.com/sketch -->
    <title>vermont-logo-stacked</title>
    <desc>Created with Sketch.</desc>
    <defs></defs>
    <g id="Symbols" stroke="none" stroke-width="1" fill="none" fill-rule="evenodd">
        <g id="vermont-logo-stacked">
            <path d="M112.230599,27.74508 L112.333533,27.73508 C112.586767,27.73508 112.735631,27.86088 112.735631,28.12188 C112.735631,28.44548 112.521151,28.52188 112.240032,28.52188 L112.145915,28.51648 L112.145915,27.92428 C112.145915,27.85468 112.130741,27.74508 112.230599,27.74508 Z M112.358754,29.37608 L112.274069,29.37048 C112.161703,29.37048 112.151246,29.32808 112.145915,29.22628 L112.145915,28.63688 L112.219322,28.63688 C112.304826,28.63688 112.388076,28.62848 112.456972,28.70648 C112.551088,28.80688 112.699132,29.26948 112.808423,29.39528 L112.962003,29.47168 L113.298486,29.47168 L113.298486,29.37608 C113.215442,29.37608 113.180584,29.35828 113.140189,29.30408 C113.085647,29.22628 113.021262,29.08568 112.982713,29.00448 C112.902539,28.83548 112.803707,28.61308 112.60112,28.57588 C112.858454,28.53188 113.082366,28.36288 113.082366,28.07708 C113.082366,27.94268 112.996861,27.78368 112.878139,27.71108 C112.730095,27.62448 112.512334,27.62848 112.342965,27.62848 L111.592492,27.62848 L111.592492,27.72948 L111.665899,27.72948 C111.790363,27.73508 111.804511,27.74968 111.804511,27.87008 L111.804511,29.24628 C111.804511,29.37048 111.769858,29.36588 111.655647,29.37608 L111.585931,29.37608 L111.585931,29.47168 L112.358754,29.47168 L112.358754,29.37608 Z M112.38418,27.15208 C113.184479,27.15208 113.832839,27.79208 113.832839,28.59988 C113.832839,29.39528 113.180584,30.04248 112.38418,30.04248 C111.592492,30.04248 110.943312,29.39528 110.943312,28.59988 C110.943312,27.79828 111.585931,27.15208 112.38418,27.15208 Z M112.38418,30.31728 C113.333344,30.31728 114.105347,29.54968 114.105347,28.60308 C114.105347,27.64848 113.333344,26.88088 112.38418,26.88088 C111.438091,26.88088 110.671625,27.65328 110.671625,28.60308 C110.671625,29.54968 111.438091,30.31728 112.38418,30.31728 Z M31.6953943,55.58448 C31.6447476,56.19688 31.5124921,56.80448 31.3835174,57.31588 C30.0248738,57.82068 28.5926183,57.88708 27.1849685,57.88708 C25.9356151,57.88708 24.6040379,57.88708 23.6413407,57.72428 C23.5359464,56.83768 23.5092902,56.02388 23.5092902,54.80228 L23.5092902,48.26288 C29.4011199,47.99108 29.579306,47.78588 29.579306,51.61988 L30.4437855,51.61988 L30.4437855,43.79028 L29.579306,43.79028 C29.5563407,47.11008 29.1944322,46.70388 23.5092902,46.63528 L23.5092902,40.29368 C23.5092902,39.10748 23.5359464,38.32688 23.6413407,37.48348 C24.4988486,37.31288 25.7244164,37.31288 26.8722713,37.31288 C28.1747319,37.31288 29.505694,37.38068 30.7556625,37.88888 C30.9377445,38.93988 31.0937855,39.88968 31.1214669,41.21168 L31.9297634,41.21168 C31.9297634,40.49908 32.0066562,39.92288 32.0066562,39.21108 C32.0335174,38.12528 32.1387066,37.03948 32.4253628,35.92048 C31.5387382,35.74988 29.7414984,35.78848 28.0964038,35.74988 C26.5318927,35.85268 24.9397003,35.92048 23.3247476,35.92048 C21.7087697,35.92048 20.1458991,35.85268 18.5569874,35.74988 L18.5569874,36.76928 C21.0595899,36.93988 21.0325237,37.17468 21.0325237,39.82008 L21.0325237,55.38288 C21.0325237,57.65248 20.0927918,58.36448 18.7913565,58.43008 L18.7913565,59.44628 C20.3825237,59.34828 21.9201735,59.27868 23.5092902,59.27868 C25.098817,59.27868 26.6657886,59.34828 28.2015931,59.44628 C29.8167508,59.41308 31.5631388,59.44628 32.5307571,59.27868 L32.5307571,56.46788 C32.5307571,55.38288 32.6851577,54.43148 32.7872713,53.72108 L31.9297634,53.72108 L31.6953943,55.58448 Z M71.3080757,55.38288 L71.3080757,39.07588 C71.3080757,37.10908 71.7759937,36.80468 73.3394795,36.77008 L73.73153,36.77008 L73.73153,35.75068 C72.9240536,35.85268 72.0925868,35.92128 71.2557886,35.92128 C70.4206309,35.92128 69.5858833,35.85268 68.778612,35.75068 C68.4396688,37.24428 67.9440694,38.70128 67.374653,40.26048 L61.9997476,54.63308 L55.1206151,35.75068 C54.3147792,35.85268 53.4747003,35.92128 52.6426183,35.92128 C51.8080757,35.92128 50.9768139,35.85268 50.1654416,35.75068 L50.1654416,36.77008 L50.5833281,36.80468 C52.1747003,36.80468 52.6426183,37.10908 52.6426183,39.07588 L52.6426183,56.12828 C52.6426183,58.09428 52.1747003,58.39768 50.5833281,58.39768 L50.3407571,58.41708 C49.8408517,58.31028 49.3206467,58.10028 48.9208044,57.48028 L43.0002681,47.44908 C45.5291167,46.80348 48.0854416,44.60108 48.0854416,40.90668 C48.0854416,38.06048 46.4149211,35.51588 42.817571,35.74988 C41.3067823,35.85268 39.793123,35.92128 38.2554732,35.92128 C36.7213091,35.92128 35.2066246,35.85268 33.7491483,35.74988 L33.7491483,36.77008 C36.24847,36.94068 36.2218139,37.17468 36.2218139,39.82088 L36.2218139,55.38288 C36.2218139,58.02628 36.24847,58.26248 33.7491483,58.43088 L33.7491483,59.44628 C34.9193533,59.34828 36.1455363,59.27948 37.4242114,59.27948 C38.7012461,59.27948 39.9245584,59.34828 41.1786278,59.44628 L41.1786278,58.43088 C38.6760252,58.26248 38.7012461,58.02628 38.7012461,55.38288 L38.7012461,39.82088 C38.7012461,38.77008 38.7012461,38.06048 38.8564669,37.48348 C39.5626498,37.20948 40.5507729,37.03948 41.4636435,37.03948 C43.389858,37.03948 45.47847,38.12608 45.47847,41.78868 C45.47847,44.29768 43.9131388,46.12788 42.0873975,46.53328 C41.3067823,46.70468 40.499306,46.73568 39.6908044,46.66608 L39.5856151,47.17728 L45.7909621,57.54988 C46.1569716,58.12588 46.4434227,58.73968 46.8590536,59.44628 C47.4608675,59.34828 48.0300789,59.27948 48.6316877,59.27948 C49.1508675,59.27948 49.6673817,59.33228 50.1654416,59.40928 L50.1654416,59.44628 C50.2164984,59.44168 50.2675552,59.43788 50.318612,59.43328 C50.3464984,59.43788 50.375,59.44168 50.4028864,59.44628 L50.4028864,59.42608 C51.3684543,59.34028 52.3327918,59.27948 53.2942587,59.27948 C54.3361041,59.27948 55.3826656,59.34908 56.3968297,59.44628 L56.3968297,58.43088 L55.978123,58.39768 C54.3361041,58.39768 53.8421451,58.09428 53.8421451,56.12828 L53.8421451,39.82088 L61.1155836,59.72208 L61.6364038,59.72208 L68.8323344,39.82088 L68.8323344,55.38288 C68.8323344,58.02628 68.8591956,58.26248 66.3551577,58.43088 L66.3551577,59.44628 C67.5300789,59.34908 68.7515457,59.27948 70.0316562,59.27948 C71.3080757,59.27948 72.5334385,59.34908 73.7852524,59.44628 L73.7852524,58.43088 C71.2818297,58.26248 71.3080757,58.02628 71.3080757,55.38288 Z M84.2564038,58.50048 C79.0943375,58.50048 76.9552839,52.29628 76.9552839,46.36568 C76.9552839,40.80408 79.0162145,36.70048 83.5541167,36.70048 C88.4018454,36.70048 90.7192902,41.17788 90.7192902,47.88848 C90.7192902,54.12728 88.6116088,58.12668 84.2564038,58.50048 Z M83.9683123,35.24548 C77.9251577,35.14228 74.1660252,40.56628 74.1660252,47.48068 C74.1660252,55.21208 78.130205,59.95768 83.4220662,59.95768 C89.1303785,59.95768 93.509164,54.12728 93.509164,46.83988 C93.509164,39.31368 89.5490852,35.24548 83.9683123,35.24548 Z M122.456719,35.92128 C119.90183,35.92128 117.426909,35.85268 114.949732,35.74988 C115.028675,37.00548 115.054921,38.19488 115.081782,39.37928 C115.104132,40.02568 115.104132,40.63868 115.104132,41.27748 L115.889464,41.27748 C115.912429,40.36308 116.070726,39.48208 116.175915,38.66728 C116.229842,37.78688 116.54336,37.68508 117.08653,37.65188 L121.102997,37.48348 C121.18194,38.49968 121.18194,39.58088 121.209006,40.86908 L121.209006,55.38288 C121.209006,58.02628 121.231151,58.26248 118.731625,58.43088 L118.731625,59.44628 C119.90183,59.34828 121.125757,59.27948 122.406073,59.27948 C123.683107,59.27948 124.907855,59.34828 126.161104,59.44628 L126.161104,58.43088 C123.659117,58.26248 123.683107,58.02628 123.683107,55.38288 L123.683107,40.86908 C123.709968,39.58088 123.709968,38.49968 123.786656,37.48348 L127.85541,37.65188 C128.400836,37.68508 128.715789,37.78688 128.768076,38.66728 C128.868139,39.48208 129.02459,40.36308 129.050836,41.27748 L129.836987,41.27748 C129.836987,40.63868 129.836987,40.02568 129.864669,39.37928 C129.885379,38.19488 129.912855,37.00548 129.991388,35.74988 C127.462744,35.85268 124.985363,35.92128 122.456719,35.92128 Z M108.208186,35.74988 L108.208186,36.76928 L108.623817,36.80388 C110.212729,36.80388 110.683107,37.10828 110.683107,39.07588 L110.683107,55.92508 L98.379858,35.74988 C97.6238486,35.85268 96.8922397,35.92048 96.1362303,35.92048 C95.3545899,35.92048 94.6256467,35.85268 93.868612,35.74988 L93.868612,36.76928 L94.2335962,36.76928 C95.6951735,36.80388 96.1116246,37.10828 96.1116246,39.07588 L96.1116246,56.12828 C96.1116246,58.09428 95.6437066,58.39688 94.0525394,58.39688 L93.6336278,58.43008 L93.6336278,59.44628 C94.6771136,59.34828 95.7173186,59.27868 96.7647003,59.27868 C97.8057256,59.27868 98.847776,59.34828 99.8635804,59.44628 L99.8635804,58.43008 L99.4471293,58.39688 C97.8057256,58.39688 97.3109464,58.09428 97.3109464,56.12828 L97.3109464,39.58088 L109.901672,59.48428 L111.960962,59.95668 L111.882634,58.70128 L111.882634,39.07588 C111.882634,37.10828 112.379054,36.80388 114.018612,36.80388 L114.437524,36.76928 L114.437524,35.74988 C113.422334,35.85268 112.379054,35.92048 111.333927,35.92048 C110.293722,35.92048 109.250032,35.85268 108.208186,35.74988 Z M12.5661199,35.74988 L12.5661199,36.77008 C15.6957571,36.63568 14.8841798,38.12528 14.3631546,40.02568 L13.2454416,44.12628 L9.82607256,55.17688 L5.75977918,41.78788 L4.76858044,38.02248 C4.59039432,37.34668 4.43353312,36.69968 6.93449527,36.77008 L6.93449527,35.74988 C5.78664038,35.85268 4.64022082,35.92128 3.46529968,35.92128 C2.29529968,35.92128 1.14805994,35.85268 0,35.74988 L0,36.77008 L0.493958991,36.80388 C1.92929022,37.07588 1.72116719,37.20868 2.29529968,39.04268 L7.01302839,54.29408 L7.9265142,57.38068 L8.4998265,59.58308 L9.8037224,59.58308 L11.652429,53.31248 L16.0068139,39.37848 C16.4763722,37.88968 16.5300946,36.63568 18.1958991,36.77008 L18.1958991,35.74988 C17.2547319,35.85268 16.3465773,35.92128 15.3783438,35.92128 C14.4146215,35.92128 13.5058517,35.85268 12.5661199,35.74988 Z" id="Fill-1" fill="#332D31"></path>
            <path d="M79.4250174,14.5277 C79.5810584,14.5203 79.67497,14.4943 79.7881562,14.3293 L79.4250174,13.9677 L79.4639763,14.1689 C79.4705379,14.2387 79.3553013,14.3763 79.4250174,14.5277 Z M89.2451435,19.3767 L88.9191183,19.4573 C88.5949385,19.4591 88.6544022,19.4003 88.4723202,19.2951 C88.4991814,19.0859 88.6236451,19.1131 88.7157114,18.9753 L89.1633297,19.0985 L89.4922256,19.2199 L89.8164054,19.2571 L90.1006009,19.5389 L89.2451435,19.3767 Z M89.5311845,18.6201 L89.6138186,18.9019 L89.4506009,18.9409 L89.5311845,18.6201 Z M50.8338344,15.9963 C50.576705,15.9927 50.6862003,15.9845 50.5646073,15.8803 C50.6482666,15.7925 50.7372571,15.8305 50.8338344,15.8387 L50.8338344,15.9963 Z M38.7834085,17.7459 L38.4612792,17.4297 C38.52997,17.4125 38.6404905,17.3453 38.8272886,17.5093 L39.1133297,17.7069 L38.7834085,17.7459 Z M33.7312476,18.6201 L33.4480773,18.7823 C33.3709795,18.8421 33.3504748,18.8611 32.9167997,19.3387 L32.4689763,19.6955 L32.1419259,19.8523 C32.0453486,19.8271 32.0537555,19.8133 31.9795284,19.5751 C32.1493076,19.5335 32.2274306,19.4283 32.3073991,19.2199 L32.6305536,18.8203 L33.2436451,18.5839 C33.2965473,18.5413 33.2715315,18.4843 33.3654432,18.2613 L33.5696703,18.1861 L33.8530457,18.1473 L34.1390868,18.1073 C34.1075095,18.4045 33.9691025,18.4099 33.7312476,18.6201 Z M30.5936136,21.0881 L30.3902066,21.3255 L29.7381562,22.0385 C29.6916104,22.0921 29.5866262,22.0847 29.1677145,22.3991 L28.7990394,22.3991 C28.8174937,21.9995 29.083235,21.7713 29.3703013,21.6427 L30.0241972,21.2069 C30.1113423,21.1525 30.2712792,21.1915 30.4291656,21.0881 C30.496011,20.9703 30.3723675,20.8527 30.9633139,20.6079 C30.9196388,20.9641 30.6668155,20.8407 30.5936136,21.0881 Z M107.506043,28.3263 L107.221027,28.0463 L106.934781,27.8081 L106.812162,27.5235 L106.243771,27.0897 C106.225112,26.8531 106.137762,26.7101 105.95855,26.4129 L105.670459,26.0947 L105.347304,25.9761 C105.178345,25.9145 105.237809,26.0523 105.062084,25.8945 C104.994213,25.7967 105.124418,25.6599 104.855806,25.3401 L104.574481,25.1833 L104.284544,25.1027 L104.042383,24.6651 L103.591689,24.3099 L103.104907,23.9077 L102.818046,23.7881 L102.369197,23.3153 L101.761027,22.9565 L101.271374,22.4381 L100.944323,22.2397 L100.495885,21.9615 L99.9672729,21.5639 C99.6607271,21.4823 99.443377,21.2703 98.9481877,21.0881 C98.8731404,20.8091 98.6863423,20.9287 98.334276,20.6505 L98.0509006,20.5301 C96.9159637,19.8287 96.6278722,19.4527 95.2364211,18.9753 L94.9950804,18.7017 C94.8601593,18.6155 94.4804117,18.6075 94.3009953,18.5839 C94.282541,18.4951 94.2741341,18.4689 94.0938975,18.3021 C93.9528249,18.2867 93.9007429,18.2479 93.7725883,18.2251 C93.6989763,17.9425 93.4715789,17.8691 92.7516577,17.7069 L92.1803959,17.3091 C91.2107271,16.9667 91.0786767,16.2935 89.5311845,15.8387 L88.9609479,15.6793 C88.9051751,15.4291 88.7768155,15.4363 88.553929,15.2415 L88.1870994,15.0821 L87.8192445,14.9617 L87.5332035,14.8049 L87.12803,14.6455 L86.5959322,14.6455 L86.0683454,14.2875 L85.4552539,14.2069 L85.0494653,14.0485 L84.1929826,13.8917 L83.7451593,13.8499 L83.3354748,14.0883 L83.7451593,14.1299 L84.0285347,14.2459 L84.6816104,14.3293 L85.3355063,14.5639 C85.3391972,14.5639 85.3484243,14.5005 85.6207271,14.7251 C85.3996861,14.7207 85.3549858,14.6871 85.212888,14.6455 L84.8839921,14.6065 L84.4790237,14.5639 C84.3527145,14.5359 84.2208691,14.6255 84.1501278,14.6455 L83.7851435,15.0043 C83.6820047,14.9951 83.6420205,14.9997 83.4562476,14.8439 L82.9296861,14.5639 L82.3565789,14.6065 C82.2579511,14.6311 82.1382035,14.5919 82.0693076,14.5277 C82.0129196,14.5105 81.4564211,14.6907 81.0524779,15.0821 L80.5212003,14.9255 L80.1568312,14.8865 C80.021295,14.8485 79.7520678,14.9381 79.6655379,14.9617 L78.769276,15.2035 L78.2843391,15.4021 L77.9554432,15.4799 L77.6712476,15.6793 L77.2625883,15.6793 L76.8976041,15.5995 C76.7144968,15.5487 76.7507902,15.4455 76.4460899,15.1637 L75.9156325,14.9255 L75.6295915,14.8049 L75.1028249,14.5639 C74.8957271,14.5585 74.8157587,14.5621 74.7749543,14.7251 C74.708929,14.7949 74.7296388,15.0259 74.7331246,15.1637 L74.1229038,15.0043 C72.8967208,14.5883 72.7072571,14.3265 71.6389606,13.8101 L71.3502539,13.6533 C71.255317,13.5945 71.1505379,13.6461 71.0279196,13.5699 L70.7400331,13.5329 L70.4566577,13.4523 L70.0059637,12.9775 L69.6828091,12.6595 L69.1933612,12.4999 L68.5413107,12.3007 L68.0516577,11.9409 L67.3177934,11.7435 L66.9917681,11.5831 L66.6249385,11.4645 L66.2989132,11.1465 L65.6886924,10.9461 L65.1563896,10.6281 L64.7914054,10.5485 L64.4235505,10.5095 C64.2841183,10.4579 64.2127618,10.3119 63.8123044,10.0729 L63.5270836,9.9513 L62.9168628,9.9949 C62.8881562,9.8743 62.8370994,9.8127 62.7934243,9.7149 L62.0993391,9.4757 L61.3256956,9.2781 L60.8341972,9.1197 L60.7152697,8.8379 L60.4273833,8.7599 L60.265806,8.4855 L59.8979511,8.4011 L59.4103486,7.9645 L59.1251278,7.8857 L58.7172886,7.6873 L58.1462319,7.3285 L57.8210268,7.2877 L57.5376514,7.1327 L57.0035032,7.0513 L56.9237397,6.6925 C56.864276,6.4913 56.6674306,6.5673 56.5585505,6.4143 C56.2893233,6.4069 56.1593233,6.4125 55.9854432,6.3355 C55.880459,6.3129 55.5601751,6.1769 55.373377,6.2947 C55.3149385,6.3281 55.2359953,6.4007 54.8857744,6.2585 L54.1119259,6.2947 L53.8277303,6.4143 L53.2556483,6.4949 C53.1951593,6.4821 53.0633139,6.3535 52.8886136,6.4949 C52.7762476,6.5919 52.6815158,6.6309 52.5226041,6.7351 L51.9913265,6.8537 L51.6263423,6.8537 L51.3421467,7.1327 L50.8488028,7.4101 C50.7632981,7.3611 50.4661845,7.1663 50.1167839,7.3693 L49.627336,7.5695 C49.3273517,7.5849 49.2576356,7.7035 49.0568943,7.8485 L48.4848123,8.0451 L47.959071,8.3195 L47.6728249,8.5217 L47.3051751,8.7201 L46.5704905,8.8831 C46.4550489,8.8497 46.2182192,8.8733 46.043724,8.9583 L45.7947965,9.3597 C45.7371782,9.4331 45.697194,9.4857 45.4724621,9.7149 C45.4724621,9.8381 45.4816893,9.9197 45.5124464,9.9949 C45.4037713,10.0411 45.3266735,10.0945 45.1046073,10.1915 L44.8185662,9.9513 L44.5333454,9.9513 C44.3465473,10.0139 44.1765631,10.1489 43.8431562,10.2731 C43.8189606,10.4633 43.7623675,10.4279 43.8431562,10.6707 L44.4097019,10.7097 L44.6996388,10.6707 L45.1864211,10.3509 C45.4093076,10.3483 45.5077303,10.3001 45.7140079,10.1135 L46.0818628,10.0329 C46.1903328,9.9703 46.3102855,9.6143 46.3260741,9.4377 L46.8565315,9.4757 C47.0423044,9.4313 47.0738817,9.5555 47.222541,9.4757 L47.7101435,8.9583 L47.9972098,8.8379 C48.2282981,8.7527 48.4198123,8.9149 48.6929353,8.8379 C48.9074148,8.7809 49.2260584,8.7201 49.423929,8.4855 L49.8725726,8.1267 L51.0940394,8.0089 L51.503724,8.1647 C51.2306009,8.1775 51.1506325,8.3423 50.9722413,8.4437 L50.9722413,8.7201 L49.8725726,8.8017 C48.8053013,8.9023 48.1095757,9.7439 47.1007429,9.9513 L46.6929038,10.2731 C46.2842445,10.2775 46.2813738,10.4787 45.8374464,10.6707 C45.7539921,10.7405 45.6024621,10.6979 45.3469732,10.9461 L44.981989,11.1075 L44.6996388,11.1465 L44.4915158,11.5459 L44.206295,11.6647 L44.2481246,11.9819 C43.9852539,11.9863 43.9770521,12.0569 43.5960741,12.1413 C43.2913738,12.0569 42.9942603,12.1947 42.9458691,12.3805 C42.8037713,12.4131 42.7646073,12.4573 42.4145915,12.6595 C42.3633297,12.7011 42.295664,12.7247 42.0467366,12.9775 L41.6788817,12.9775 C41.6380773,13.0209 41.5468312,13.0571 41.4354905,13.2547 L40.8652539,13.4957 C40.8363423,13.5111 40.7165946,13.7503 40.6198123,13.8101 C40.5995126,13.9115 40.5800331,13.9867 40.3764211,14.2069 C40.1674779,14.2813 40.076642,14.1527 40.0087713,14.4071 L39.6027776,14.4071 L39.0296703,14.8439 L38.4612792,15.2823 C38.4705063,15.5333 38.5736451,15.4999 38.6238817,15.6793 C38.3552697,15.6819 38.2921151,15.7797 38.0923991,15.8387 C37.9410741,15.8821 37.7432035,15.7925 37.6047965,15.8803 L37.5629669,16.2363 C37.4719259,16.2283 37.2453486,16.2001 37.1979826,16.1567 C36.9146073,16.1603 36.9824779,16.1975 36.5459322,16.6361 L36.0972886,16.7519 C36.0925726,17.0111 36.1780773,17.1035 36.3404748,17.3481 L35.566011,17.3907 L35.2779196,17.5093 L34.9564054,17.8655 C34.8655694,17.8855 34.7948281,17.9333 34.5050962,17.9461 L34.1390868,17.8265 C34.2738028,17.7921 34.3340868,17.7041 34.5887555,17.5093 L34.790317,17.2313 L35.2416262,16.8707 C35.3531719,16.7593 35.4479038,16.8525 35.8520521,16.6731 L35.9328407,16.3143 C36.0675568,16.2881 36.3564685,16.2057 36.7882981,15.6793 C36.7798912,15.5877 36.7696388,15.5831 36.9517208,15.3621 C37.2164369,15.3747 37.4274306,15.4165 37.5221625,15.2035 L37.6047965,14.8865 L38.0563107,14.8439 C38.1573991,14.7903 38.2336767,14.7135 38.3794653,14.6861 L38.8272886,14.1299 C39.1475726,14.1653 39.4059322,14.0937 39.4811845,13.8917 L39.4811845,13.5329 C39.6975095,13.4831 39.834071,13.3443 40.0087713,13.2547 L40.0087713,12.9775 L40.6198123,12.7773 C40.7434558,12.7799 40.8215789,12.7799 41.0305221,12.8959 C41.1976356,12.8777 41.2607902,12.8189 41.3965315,12.6595 L41.6788817,12.4593 L42.0067524,12.1023 C42.08303,12.0487 42.1972413,12.0995 42.5353644,11.7825 L42.9811372,11.6231 C43.1168785,11.6085 43.2042287,11.5777 43.2690237,11.5033 L43.3934874,11.1465 L43.8792445,11.1891 C43.8739132,10.9787 43.8431562,11.0341 43.5960741,10.8267 C43.5171309,10.7723 43.4297808,10.8745 43.2690237,10.7913 C43.1213896,10.7531 42.9895442,10.8383 42.6998123,10.9461 L42.4145915,11.0277 C42.3633297,11.0693 42.4117208,11.1211 42.2091341,11.3847 L41.7207114,11.5831 L41.3965315,11.7825 L40.336642,12.3007 C40.2437555,12.3777 40.1490237,12.3805 39.9687871,12.3805 L39.6409164,12.9775 L38.9878407,13.1749 C38.8578407,13.2303 38.91997,13.1423 38.5020836,13.6533 L37.9297965,13.8917 L37.6447808,14.2875 L37.3195757,14.4461 L37.0353801,14.8049 C36.9824779,14.8693 36.835664,14.8457 36.5459322,15.0043 C36.4835978,15.2081 36.3851751,15.1003 36.380459,15.4021 C36.2336451,15.4047 36.1138975,15.3929 35.6894495,15.5597 L35.4042287,15.6793 C35.3568628,15.8695 35.2434716,15.8667 35.201847,16.0371 L34.5887555,16.1567 C34.5311372,16.3597 34.4279984,16.2799 34.2627303,16.5527 L34.0601435,16.8325 L33.6514842,17.2701 L33.2028407,17.5093 C33.1081088,17.5945 33.0289606,17.6761 32.8757902,17.7069 L32.9167997,18.0259 L32.5089606,18.0657 C32.4521625,18.0793 32.3279038,18.1899 32.2655694,18.3801 C32.0974306,18.3919 32.0724148,18.4381 31.8587555,18.6617 L31.4109322,18.9019 L31.4109322,19.2199 C31.1898912,19.2199 31.0115,19.2137 30.7970205,19.4129 L30.5117997,19.5389 L30.2694338,19.8959 L29.6544968,20.3335 L29.616358,20.8889 L28.8824937,20.8091 C28.8548123,20.8997 28.8464054,20.9061 28.7617208,21.0881 L28.2304432,21.6427 C28.1367366,21.7569 28.1888186,21.6635 27.8625883,21.9227 L27.5384085,22.3991 C27.3425883,22.4355 27.2449858,22.4181 27.0471151,22.4381 L26.5574621,22.7579 C26.5724306,22.8921 26.5910899,22.9429 26.6411215,23.1973 L25.9082823,23.4329 C25.7782823,23.5045 25.6564842,23.6241 25.4588186,23.7881 L25.0909637,24.2673 L24.5194968,24.7439 C24.3013265,24.7929 24.3031719,24.9351 24.0329196,25.1027 L23.8684716,25.3809 L23.7466735,25.6581 L23.2153959,26.0577 L22.8493864,26.5307 L22.64803,26.8921 L22.1565315,27.0517 C21.9383612,27.1331 21.9039132,26.9683 21.7915473,27.3315 C21.8704905,27.5761 21.9781404,27.4023 22.3199543,27.6459 L22.6043549,27.8443 L22.8893707,28.0463 L23.5850962,27.9639 C23.6408691,27.9793 23.8284874,28.0373 23.8684716,28.1641 L24.2353013,28.4441 L24.723929,28.4007 C24.7928249,28.4441 24.7304905,28.5447 24.927336,28.7631 L25.4985978,28.8029 L25.8646073,28.9579 C25.9585189,28.8953 26.0596073,29.0239 26.1498281,29.2007 C26.379276,29.2397 26.5260899,29.2033 26.8047492,29.1191 L27.2913265,29.0775 L27.6165315,29.0775 L28.4775252,28.9995 C28.6327461,28.9497 28.8259006,29.1119 29.0461215,28.8809 C29.1203486,28.8247 29.2355852,28.8763 29.4927145,28.7631 L29.6981719,28.4813 L29.9842129,28.4813 L30.5936136,28.4007 L30.8796546,28.3625 L31.3282981,28.2811 L31.3282981,28.0037 L31.696153,28.0463 L31.9795284,27.8869 C32.1374148,27.8389 32.3221625,28.0155 32.4271467,28.0463 C32.5210584,28.0681 32.588724,28.0291 32.8386767,27.7265 C32.8536451,27.6967 32.9770836,27.5037 33.3262792,27.2083 C33.5241498,27.1711 33.6838817,27.0407 33.7712319,26.8921 C33.9793549,26.8895 34.2385347,26.8767 34.3843233,26.9311 C34.3890394,27.0633 34.4066735,27.1131 34.4253328,27.2083 L34.7103486,27.1711 C34.7335189,27.0407 34.7548438,26.9927 34.5459006,26.7689 C34.5719416,26.6023 34.6406325,26.6067 34.790317,26.4943 L35.0363738,26.2145 L35.076358,25.8203 L35.4841972,25.6201 L36.0146546,25.3021 C36.1741814,25.3175 36.1975568,25.3683 36.3006956,25.5005 C36.4594022,25.4913 36.5346546,25.4543 36.9935505,25.1417 L37.4832035,24.7439 L37.3587397,24.4287 C37.5582508,24.4287 37.6613896,24.4875 37.970806,24.3099 L38.4612792,23.9893 C38.5086451,23.9031 38.4620994,23.9005 38.6665315,23.7129 C38.8475883,23.6739 38.889418,23.6205 39.0715,23.4709 C39.1049227,23.4231 39.1002066,23.3069 39.5191183,23.1157 L39.8453486,23.1157 L40.4200962,23.1567 L40.2548281,22.8757 C40.2261215,22.7615 40.1219574,22.6175 40.2148438,22.5179 C40.2734874,22.3067 40.3208533,22.4299 40.5800331,22.2823 L40.8652539,22.1201 L41.3538817,21.9227 L41.6380773,21.9227 C41.6388975,22.0657 41.6620678,22.1355 41.6788817,22.2397 L41.9667681,22.1201 C41.9556956,21.8963 41.8738817,21.8837 41.7207114,21.7631 L41.4354905,21.5639 C41.5386293,21.5193 41.6304905,21.4505 41.8433297,21.3255 L42.6598281,21.2839 C42.6821782,21.1959 42.6932508,21.1887 43.066642,20.7267 L43.5534243,20.3705 L44.206295,20.3705 L44.2870836,20.0933 L44.2481246,19.6955 C44.4051909,19.5443 44.6133139,19.6983 44.8583454,19.5389 C44.9688659,19.4945 45.1240868,19.6031 45.2690552,19.6141 C45.3135505,19.5643 45.376705,19.5435 45.5950804,19.3767 L45.8374464,18.9019 L46.3260741,18.5413 C46.5963265,18.4761 46.4497177,18.3611 46.5704905,18.2251 C46.7207902,18.0095 46.8881088,18.2225 47.222541,17.8265 C47.3125568,17.8119 47.4193864,17.7513 47.5467208,17.8265 L48.2032823,17.7885 L48.609276,17.5093 C48.7560899,17.4985 48.9660584,17.4495 49.137888,17.2701 L49.70997,17.1525 L49.9552066,16.8707 C50.0452224,16.8171 50.1744022,16.8725 50.4456798,16.6731 L50.8488028,16.5147 L51.1776987,16.3143 L51.3421467,16.0371 C51.4292918,15.9419 51.5845126,15.8187 51.503724,15.4409 C51.6105536,15.3087 51.560317,15.4211 51.9097177,15.2035 L52.1976041,15.0821 C52.2217997,15.0487 52.2515315,15.0985 52.1157902,14.8439 C52.075806,14.7361 52.1344495,14.6129 52.0331562,14.5277 C51.958724,14.4435 51.9523675,14.5005 52.0331562,14.1689 C52.1231719,14.2251 52.2681404,14.1987 52.3600016,14.2459 L52.6425568,14.4461 L52.9285978,14.3655 C53.1385662,14.3565 53.4041025,14.3293 53.7850804,14.0883 C53.8629984,14.0285 53.9179511,13.9923 53.8277303,13.8101 C53.8306009,13.6769 53.8472098,13.6307 53.8714054,13.5329 C53.9827461,13.5067 54.0376987,13.4713 54.3153328,13.2547 L54.6831877,13.0935 C54.8244653,13.0173 54.9015631,12.9757 55.2117997,12.8551 L55.4141814,12.3805 C55.425459,12.0797 55.6083612,11.8413 55.373377,11.6647 C55.3817839,11.4563 55.3918312,11.5069 55.4570363,11.3847 C55.6817681,11.3875 55.8146388,11.3875 55.9446388,11.3059 C56.2493391,11.3239 56.5874621,11.5151 56.8819101,10.9897 L56.3959479,10.6281 L55.9854432,10.2731 L56.4759164,10.3509 L57.0035032,10.4695 L56.8437713,10.0729 C56.8206009,10.0439 56.7303801,9.8987 56.8437713,9.7149 L57.9028407,9.7149 C58.0373517,9.6225 58.1925726,9.4549 58.2278407,9.2781 C58.4109479,9.2791 58.6449069,9.2863 59.0025095,9.5555 C59.021989,9.6243 59.2003801,9.9605 59.4103486,10.0329 C59.4484874,10.0601 59.4845757,10.1543 59.6564054,10.3899 L59.9816104,10.5893 L60.1060741,10.9897 L60.4273833,11.1891 L60.8341972,11.6647 L61.080459,11.9409 L61.4483139,12.3805 L61.7335347,12.7365 L62.0195757,12.9775 C62.2648123,13.0265 62.2090394,13.1323 62.3456009,13.3325 C62.4561215,13.3563 62.5155852,13.3933 62.6308218,13.5329 L62.9986767,13.7321 C63.1137082,13.8019 63.3878565,13.7747 63.5699385,13.7731 C63.5818312,13.8427 63.646011,14.0139 64.0175568,14.2459 C64.1170047,14.3337 64.2275252,14.4507 64.3835662,14.4861 C64.4374937,14.6971 64.625112,14.7053 64.8313896,14.8865 L65.2408691,14.9617 L65.6050331,15.0821 C66.4930931,15.8785 66.7977934,15.7299 67.6429984,16.2363 L68.3768628,16.3569 L68.9481246,16.7519 L69.439623,16.9141 L69.8845757,17.2313 L70.4156483,17.5475 L70.7400331,17.7459 L71.5573517,17.9841 L71.8407271,18.2251 C71.9370994,18.3039 72.0570521,18.3039 72.2483612,18.3801 L73.1029984,18.5413 C73.1708691,18.7913 73.504276,18.8277 73.8784874,19.0595 L74.6533612,19.2571 L74.9394022,19.4129 L75.4706798,19.6141 L75.7948596,19.6593 L76.3263423,20.1703 L76.6921467,20.3335 L76.9773675,20.5699 L77.6712476,20.8091 L77.9554432,20.9287 L79.2177145,21.0881 C79.4471625,21.0937 79.4779196,21.1725 79.6284243,21.3653 C79.6700489,21.4189 79.7368943,21.4379 79.9097492,21.5639 L80.1970205,21.8837 C80.9224779,22.5079 82.2376514,22.7743 83.1320678,23.1567 L83.4164685,23.1973 C83.5798912,23.2101 83.7470047,23.2409 83.8251278,23.3515 C83.9793233,23.3541 84.1419259,23.3659 84.1929826,23.0353 C84.1974937,23.0253 84.2877145,22.9663 84.7632192,22.8757 C84.7632192,22.6765 84.7371782,22.3357 84.640806,22.2397 C84.645317,21.9271 84.6256325,22.0431 85.0494653,21.7631 L85.5770521,21.4469 C85.6912634,21.3989 85.8259795,21.2187 86.1083297,21.0067 C86.4148754,20.9957 86.5180142,20.8335 86.6785662,20.4883 C86.703582,20.3959 86.7956483,20.2891 86.842194,20.2121 C86.972194,20.2193 87.032683,20.2139 87.12803,20.2891 L87.4932192,20.2891 L87.8192445,20.2501 L87.7355852,19.8959 L88.0244968,19.7753 L88.3488817,19.8143 L88.9191183,19.8143 L89.7364369,19.8523 L90.0587713,19.9755 C90.2203486,20.0235 90.4584085,19.9203 90.5502697,19.8959 L90.9181246,19.8959 C90.9533927,19.8849 91.1336293,19.7265 91.4075726,19.8143 L92.1803959,20.2501 L92.7908218,20.2891 L93.2810899,20.3705 L93.567336,20.5699 L93.936011,20.6079 C94.087541,20.6805 94.1841183,20.7493 94.3409795,20.9287 L94.6272256,21.0881 L95.0748438,21.4823 C95.5177461,21.4705 95.422194,21.6245 95.5224621,21.9227 L95.8874464,21.8439 C96.0539448,21.8411 96.4234401,21.8527 96.5005379,21.9227 L96.7839132,21.9227 L97.5604274,22.4763 C97.675664,22.5287 97.7314369,22.5531 97.9272571,22.4381 C98.2450804,22.4763 98.147683,22.6193 98.2942918,22.7969 L98.7829196,23.0751 L99.1507744,23.1973 L99.5985978,23.3153 L100.003361,23.3941 C100.038629,23.4075 100.003361,23.4439 100.209639,23.6713 L100.495885,23.7881 L100.782746,23.9077 C100.88773,23.9539 100.922178,23.8289 101.271374,24.0699 L101.675522,24.1515 C101.761027,24.2157 101.803677,24.2239 101.961563,24.2257 L102.039481,24.4785 C102.051784,24.4813 102.066547,24.4667 102.450191,24.8245 L102.696248,25.1417 L103.227525,25.3021 C103.349323,25.3527 103.350349,25.4623 103.713282,25.6989 C103.742194,25.7169 103.742194,25.7515 104.163156,26.0187 C104.278188,26.0767 104.37292,26.1555 104.530806,26.3767 C104.555002,26.4527 104.487951,26.4943 104.816027,26.8531 C104.904197,26.9455 105.032557,26.9735 105.142052,27.0517 L105.427273,27.2899 L105.793282,27.7691 L106.362494,28.2811 L106.489828,28.5647 L106.812162,28.8029 L107.139008,28.9995 C107.240301,29.0575 107.371326,28.9931 107.670491,29.1191 C107.695506,29.2143 107.708629,29.2061 108.199923,29.2741 C108.171011,29.1399 108.105191,29.0883 107.993645,28.9579 C107.958377,28.8037 107.785522,28.6009 107.506043,28.3263 Z M80.5212003,13.8101 L80.4828565,13.9677 C80.4430773,14.0257 80.1410426,14.0819 79.9934085,14.2875 C80.0491814,14.3927 80.3817681,14.4733 80.6483297,14.2875 C80.7541341,14.2387 80.9380615,14.2813 81.0932823,14.2069 L80.8906956,13.8917 C80.775664,13.8445 80.6956956,13.8101 80.5212003,13.8101 Z M72.411989,5.1041 L72.5754117,4.7453 L72.6978249,4.1883 L73.1029984,3.9083 C73.2487871,3.9273 73.3324464,3.8865 73.4310741,3.8693 C73.4327145,3.6925 73.4595757,3.6527 73.5145284,3.5523 C73.7773991,3.5495 73.8218943,3.5123 74.0021309,3.4715 C74.0652855,3.2641 74.1934401,3.3283 74.2047177,3.0349 C74.3068312,3.0149 74.3560426,2.9977 74.4907587,2.9977 C74.5352539,2.9405 74.6031246,2.9207 74.8167839,2.7585 L74.8985978,2.3987 L75.8785189,2.2791 L76.2035189,2.2013 L76.9773675,2.0817 L77.0571309,2.1587 L78.5703801,2.3199 L79.0153328,2.3589 L79.3005536,2.4377 L79.6284243,2.6379 L80.2378249,2.8781 L80.5212003,3.1145 C80.6075252,3.2523 80.4617366,3.2921 80.7691025,3.5133 L80.8507114,3.9083 C80.9112003,4.1193 80.762541,4.1185 80.7272729,4.1883 C80.6807271,4.2861 80.7077934,4.5079 80.7691025,4.6267 L80.5212003,4.9031 C80.359418,5.0063 80.2897019,5.3895 80.1970205,5.6197 C80.112541,5.6451 80.06497,5.6169 79.8718155,5.7765 C79.7286924,5.8761 79.4992445,5.9377 79.1779353,6.0565 L78.9755536,6.4949 C78.847194,6.5257 78.7858849,6.6145 78.4877461,6.7351 L78.0780615,6.8537 C77.0173517,7.6873 74.7035978,7.1917 73.5942918,6.6925 L73.2684716,6.5329 C73.2340237,6.4867 73.2385347,6.3671 72.9793549,6.2947 L72.5346073,5.8979 L72.494623,5.6197 C72.43803,5.5011 72.2985978,5.3271 72.411989,5.1041 Z M72.3701593,7.0513 C72.4714527,7.1155 72.6943391,7.2251 72.8206483,7.2505 C72.8698596,7.4299 72.9766893,7.3901 73.02303,7.5695 C73.2022413,7.6085 73.317683,7.7035 73.4310741,7.8059 L73.7568943,8.0089 L74.0421151,8.2833 L74.3681404,8.4437 L74.6533612,8.6403 L75.4706798,8.7201 L75.9982666,8.8831 L76.9373833,8.8831 L77.5076199,8.8379 C77.6238817,8.8035 77.7054905,8.8497 77.8336451,8.7201 L78.2843391,8.5633 L78.6076987,8.6015 L79.055317,8.5633 L79.3831877,8.1647 L79.6655379,7.8485 C79.8586924,7.7361 80.1726199,7.8349 80.4030931,7.7669 C80.6075252,7.7053 80.7196861,7.5821 81.0124937,7.4905 L81.5009164,7.0901 L81.746153,6.7731 C81.7908533,6.7069 81.9329511,6.6715 82.0313738,6.6535 L82.1950016,6.2947 L82.6007902,6.0935 L83.0520994,5.8979 L83.2538659,5.5401 C83.3422413,5.4295 83.4322571,5.3579 83.6217208,5.3425 C83.6420205,5.2419 83.7564369,4.9303 83.7051751,4.8659 L83.7051751,4.5079 C83.9979826,2.9469 83.4906956,2.9733 82.8878565,2.0401 L82.7225883,1.6033 C82.6955221,1.5579 82.4410584,1.4257 82.3565789,1.4039 C82.3250016,1.2455 82.2710741,1.1575 82.0693076,1.0905 L81.5819101,0.6863 C80.7848912,0.1655 80.1391972,0.2687 79.2177145,0.3331 L78.8129511,0.3721 C78.7608691,0.3803 78.743235,0.3087 78.4049069,0.4111 L78.1198912,0.2905 C78.0630931,0.2551 77.9599543,0.2643 77.7104117,0.0141 C77.5988659,-0.0275 77.1112634,0.0223 76.9773675,0.1719 C76.8455221,0.2335 76.6921467,0.1129 76.3661215,0.2905 L76.0419416,0.4907 L75.6295915,0.6863 L75.2654274,0.7289 L74.9394022,1.1649 L74.4497492,1.4855 L74.0421151,1.6033 C74.0105379,1.8561 73.8218943,1.9069 73.634276,2.1587 C73.452194,2.2077 73.3761215,2.3291 73.0630142,2.7159 L72.7390394,2.9135 C72.5514211,2.9669 72.559623,3.0819 72.494623,3.2341 L72.3701593,3.5929 C72.3412476,3.6409 72.1388659,3.6745 71.8844022,3.9899 L71.7626041,4.4247 C71.9370994,5.2491 71.7615789,5.9513 72.0486451,6.7351 L72.3701593,7.0513 Z M81.9514054,13.8101 C81.9245442,13.9251 81.8373991,14.0457 81.9514054,14.2459 C82.1763423,14.2505 82.496011,14.2867 82.560806,14.0485 L82.1541972,13.6533 L81.9514054,13.8101 Z" id="Fill-4" fill="#00853F"></path>
        </g>
    </g>
</svg>