<?xml version="1.0" encoding="UTF-8" standalone="no"?>
<!-- Created with Inkscape (http://www.inkscape.org/) -->

<svg
   xmlns:dc="http://purl.org/dc/elements/1.1/"
   xmlns:cc="http://creativecommons.org/ns#"
   xmlns:rdf="http://www.w3.org/1999/02/22-rdf-syntax-ns#"
   xmlns:svg="http://www.w3.org/2000/svg"
   xmlns="http://www.w3.org/2000/svg"
   xmlns:sodipodi="http://sodipodi.sourceforge.net/DTD/sodipodi-0.dtd"
   xmlns:inkscape="http://www.inkscape.org/namespaces/inkscape"
   version="1.1"
   id="svg3770"
   xml:space="preserve"
   width="243.96001"
   height="143.58667"
   viewBox="0 0 243.96001 143.58667"
   sodipodi:docname="GMDA vert.svg"
   inkscape:version="0.92.4 (5da689c313, 2019-01-14)"><metadata
     id="metadata3776"><rdf:RDF><cc:Work
         rdf:about=""><dc:format>image/svg+xml</dc:format><dc:type
           rdf:resource="http://purl.org/dc/dcmitype/StillImage" /><dc:title></dc:title></cc:Work></rdf:RDF></metadata><defs
     id="defs3774" /><sodipodi:namedview
     pagecolor="#ffffff"
     bordercolor="#666666"
     borderopacity="1"
     objecttolerance="10"
     gridtolerance="10"
     guidetolerance="10"
     inkscape:pageopacity="0"
     inkscape:pageshadow="2"
     inkscape:window-width="2560"
     inkscape:window-height="1373"
     id="namedview3772"
     showgrid="false"
     inkscape:zoom="8.0508866"
     inkscape:cx="121.98"
     inkscape:cy="71.793335"
     inkscape:window-x="1920"
     inkscape:window-y="0"
     inkscape:window-maximized="1"
     inkscape:current-layer="g3778" /><g
     id="g3778"
     inkscape:groupmode="layer"
     inkscape:label="ink_ext_XXXXXX"
     transform="matrix(1.3333333,0,0,-1.3333333,0,143.58667)"><g
       id="g3780"
       transform="scale(0.1)"><path
         d="m 1778.07,190.102 c 16.2,0 24.6,-15.965 21.3,-39.051 h -49.5 c 3,23.367 13.8,39.051 28.2,39.051 z m 51.6,-44.18 c 0,35.344 -21.6,60.137 -52.5,60.137 -33.9,0 -59.1,-29.93 -59.1,-70.106 0,-42.4725 26.7,-71.5428 65.4,-71.5428 22.8,0 43.8,12.832 43.8,26.5117 0,4.2695 -2.1,6.8359 -6,8.2617 -10.2,-11.6797 -22.2,-17.6758 -33.9,-17.6758 -23.1,0 -37.5,21.0942 -38.1,55.2932 h 79.8 c 0.3,3.137 0.6,6.836 0.6,9.121 z m -126.3,55.859 h -38.1 c -1.8,-3.699 -2.7,-7.41 -2.4,-10.828 l 9.9,-4.269 -27,-81.805 h -0.9 l -26.4,81.805 12.3,4.269 c 1.5,2.852 2.4,7.129 2.7,10.828 h -54.9 c -1.5,-2.558 -2.4,-6.843 -2.7,-10.828 l 10.8,-4.269 42.9,-120.8324 17.7,2.8398 42.3,117.9926 11.4,4.269 c 1.8,3.418 2.7,7.695 2.4,10.828 z M 1498.17,68.6914 h 45.6 c 8.7,0 17.7,2.8477 15.9,13.3945 -9.3,0.2813 -16.8,3.9844 -16.8,19.0901 v 77.519 c 0,9.407 -0.9,19.094 -3.3,27.364 l -40.5,-4.559 c -1.5,-3.711 -1.8,-9.121 -1.8,-11.398 10.2,-0.575 15.6,-4.852 15.6,-19.383 v -56.426 c 0,-13.684 0.6,-21.3789 1.8,-29.0742 l -14.4,-5.125 c -1.5,-3.7149 -2.4,-9.125 -2.1,-11.4024 z m 25.2,166.1486 c 9.6,0 17.7,5.125 17.7,15.957 0,8.848 -4.8,14.539 -13.5,14.539 -9.6,0 -17.4,-4.844 -17.4,-15.672 0,-8.828 4.8,-14.824 13.2,-14.824 z m -198,-166.1486 h 45.6 c 8.7,0 17.7,2.8477 15.9,13.3945 -9.3,0.2813 -16.8,3.9844 -16.8,19.0901 v 56.437 c 6.9,19.95 23.1,29.637 33.6,29.637 10.5,0 21.3,-8.27 21.3,-34.199 v -38.758 c 0,-13.684 0.6,-21.3789 1.8,-29.0742 l -14.1,-5.125 c -1.5,-3.7149 -2.4,-9.125 -2.4,-11.4024 h 45.6 c 8.7,0 17.7,2.8477 16.2,13.3945 -9.6,0.2813 -17.1,3.9844 -17.1,19.0901 v 54.152 c 0,34.481 -21,50.731 -44.4,50.731 -17.1,0 -33.9,-10.547 -40.5,-27.079 h -1.5 l 1.5,24.805 v 48.445 c 0,9.395 -0.9,19.094 -3.3,27.364 l -40.5,-4.559 c -1.5,-3.711 -1.8,-9.699 -1.8,-11.406 10.2,-0.566 15.6,-4.844 15.6,-19.375 V 114.293 c 0,-13.684 0.6,-21.3789 1.8,-29.0742 l -14.4,-5.125 c -1.5,-3.7149 -2.4,-9.125 -2.1,-11.4024 z m -26.4,33.3356 c -10.5,-13.1051 -22.2,-20.7926 -35.4,-20.7926 -23.7,0 -35.7,25.9296 -35.7,54.9926 0,26.796 10.8,54.148 34.2,54.148 4.2,0 9,-0.848 14.4,-5.125 l 5.4,-23.937 c 11.1,-1.993 19.2,3.136 19.2,14.25 0,6.835 -3,19.375 -9,30.496 l -12.6,-5.985 c -9.6,4.844 -16.5,5.985 -23.7,5.985 -38.1,0 -59.4,-35.059 -59.4,-70.399 0,-35.344 21,-71.2498 62.7,-71.2498 32.7,0 46.5,22.5195 46.5,30.2148 0,2.8398 -2.4,6.27 -6.6,7.402 z M 1080.88,68.6914 h 48.6 c 11.7,0 18,4.8399 16.5,13.3945 -14.1,0 -20.4,6.2696 -20.4,19.0901 v 47.883 c 5.4,19.382 15,30.781 26.1,30.781 5.7,0 10.5,-1.426 17.1,-5.422 6,3.145 9.9,8.84 9.9,15.391 0,9.414 -7.5,16.25 -18.3,16.25 -13.8,0 -25.5,-11.121 -34.8,-33.348 h -1.2 c 0,12.539 -1.5,23.086 -4.8,32.781 l -37.8,-4.558 c -0.9,-2.852 -1.8,-7.981 -1.8,-11.407 11.1,-0.566 15.6,-5.988 15.6,-19.093 v -56.141 c 0,-11.973 0.6,-21.0938 1.8,-29.0742 l -14.4,-5.125 c -1.5,-3.1446 -2.4,-8.5547 -2.1,-11.4024 z m -130.802,82.3596 22.195,69.832 h 0.61 l 22.195,-69.832 h -45 z M 1047.58,85.5039 988.777,268.188 967.48,265.336 909.578,85.5039 l -12,-4.5625 c -1.5,-3.9922 -2.398,-8.5508 -2.699,-12.25 h 43.805 c 1.492,3.6992 2.402,7.9883 2.402,12.25 l -12.004,4.5625 15.293,48.1641 h 56.405 l 15.3,-48.1641 -12.3,-4.5625 c -1.5,-4.5625 -2.4,-8.832 -2.4,-12.25 h 57 c 1.8,3.6992 2.7,7.9883 2.7,12.25 l -13.5,4.5625 z M 762.281,68.6914 h 45.297 c 8.699,0 18.004,2.8477 16.199,13.3945 -9.597,0.2813 -17.097,3.9844 -17.097,19.0901 V 252.23 c 0,9.395 -0.899,19.094 -3.598,27.364 l -40.504,-4.559 c -1.195,-3.43 -1.797,-7.14 -1.797,-11.406 10.199,-0.566 15.899,-4.844 15.899,-19.375 V 114.293 c 0,-13.684 0.601,-21.3789 2.097,-29.0742 l -14.097,-5.125 c -1.5,-3.7149 -2.399,-9.125 -2.399,-11.4024 z m -91.203,14.5274 c -12.301,0 -20.695,9.414 -20.695,23.0942 0,15.664 9.297,26.496 23.097,26.496 5.7,0 12.301,-2.278 19.2,-5.977 V 100.316 C 687.883,89.4883 680.078,83.2188 671.078,83.2188 Z m 69,-3.7032 C 722.379,79.2344 722.68,85.7852 722.68,106.586 v 54.727 c 0,27.082 -17.098,44.746 -43.5,44.746 -8.7,0 -16.5,-2 -24.602,-6.27 l -13.5,6.27 c -5.996,-11.121 -9.894,-22.801 -9.894,-29.637 0,-10.547 8.402,-16.535 19.796,-14.25 l 4.5,21.66 c 4.5,3.984 10.2,6.27 16.2,6.27 12.898,0 21,-9.981 21,-25.653 v -23.664 c -8.996,3.996 -18.301,6.27 -27.602,6.27 -24.898,0 -42.894,-17.95 -42.894,-43.309 0,-23.0858 15.597,-39.3358 38.093,-39.3358 14.403,0 27.301,7.9804 33.301,20.8086 h 0.899 c 2.105,-12.8282 11.105,-20.8086 24.605,-20.8086 12.895,0 21.598,6.2695 20.996,15.1054 z m -146.992,9.4063 c -6.301,-5.4102 -9.898,-7.1211 -15.898,-7.1211 -9.598,0 -15.301,5.7031 -15.301,26.4962 v 76.387 l 15.902,0.859 c 12.598,0.566 16.496,5.703 16.496,16.238 h -32.398 v 38.477 c -10.5,1.426 -23.098,-1.426 -24.899,-15.391 l -3.004,-23.086 -13.796,-4.265 c -1.5,-3.996 -2.399,-8.555 -2.399,-13.411 h 14.098 v -78.652 c 0,-31.3514 18,-41.0428 37.801,-41.0428 17.398,0 27.597,7.9804 27.597,17.0976 0,3.1445 -1.5,5.7031 -4.199,7.4141 z M 431.09,68.6914 h 45.598 c 8.703,0 17.703,2.8477 15.902,13.3945 -9.297,0.2813 -16.797,3.9844 -16.797,19.0901 v 77.519 c 0,9.407 -0.906,19.094 -3.305,27.364 l -40.5,-4.559 c -1.5,-3.711 -1.797,-9.121 -1.797,-11.398 10.2,-0.575 15.602,-4.852 15.602,-19.383 v -56.426 c 0,-13.684 0.594,-21.3789 1.797,-29.0742 l -14.402,-5.125 c -1.5,-3.7149 -2.395,-9.125 -2.098,-11.4024 z M 456.289,234.84 c 9.602,0 17.699,5.125 17.699,15.957 0,8.848 -4.8,14.539 -13.5,14.539 -9.597,0 -17.398,-4.844 -17.398,-15.672 0,-8.828 4.801,-14.824 13.199,-14.824 z M 356.996,60.7109 c 14.699,-0.8593 21,-5.9921 21,-17.3828 0,-16.8164 -15.301,-29.0781 -36,-29.0781 -21.305,0 -32.402,8.8398 -32.402,25.6484 0,8.5508 3.301,15.1133 12.004,22.5235 l 35.398,-1.711 z m -15.601,59.2851 c -13.5,0 -21,12.813 -21,35.332 0,23.945 7.5,37.899 21,37.899 12.902,0 20.402,-13.954 20.402,-37.899 0,-22.519 -7.5,-35.332 -20.402,-35.332 z m 70.8,72.664 c 4.801,11.125 -2.699,23.086 -15,23.086 -9.004,0 -15.902,-5.418 -24.597,-19.375 -9.004,6.27 -20.102,9.688 -33.004,9.688 -28.199,0 -50.098,-22.227 -50.098,-50.731 0,-16.816 9.297,-31.64 23.102,-40.469 -11.403,-3.711 -19.203,-13.398 -19.203,-24.2301 0,-8.8281 6.3,-17.3789 15.3,-21.6601 v -1.1407 c -17.402,-4.2695 -27.601,-15.6679 -27.601,-30.4883 0,-21.9492 24.004,-37.3280812 58.203,-37.3280812 41.996,0 70.801,19.0898812 70.801,47.2968812 0,20.8125 -15,33.9258 -38.703,35.0586 l -34.5,1.7109 c -11.399,0.5742 -18.899,5.7032 -18.899,13.3867 0,3.7112 2.102,8.8482 5.102,12.5512 6,-2.286 12.593,-3.43 19.199,-3.43 29.098,0 51,20.812 51,49.023 0,13.106 -4.504,24.512 -12.301,33.059 9,3.711 17.996,4.852 31.199,3.992 z M 198.895,68.6914 h 45.601 c 8.703,0 17.699,2.8477 15.899,13.3945 -9.297,0.2813 -16.797,3.9844 -16.797,19.0901 v 77.519 c 0,9.407 -0.899,19.094 -3.301,27.364 L 199.801,201.5 c -1.504,-3.711 -1.805,-9.121 -1.805,-11.398 10.203,-0.575 15.602,-4.852 15.602,-19.383 v -56.426 c 0,-13.684 0.601,-21.3789 1.797,-29.0742 l -14.399,-5.125 c -1.5,-3.7149 -2.398,-9.125 -2.101,-11.4024 z M 224.098,234.84 c 9.597,0 17.699,5.125 17.699,15.957 0,8.848 -4.801,14.539 -13.5,14.539 -9.602,0 -17.399,-4.844 -17.399,-15.672 0,-8.828 4.801,-14.824 13.2,-14.824 z M 73.1992,84.3594 c -15.2969,0 -22.5,3.7109 -22.5,22.2266 v 141.367 h 17.6992 c 42.3006,0 67.2036,-33.34 67.2036,-80.371 0,-46.738 -22.805,-83.2226 -59.3989,-83.2226 H 73.1992 Z M 1.80078,68.6914 H 76.5 c 57.898,0 94.801,43.0316 94.801,98.8906 0,49.309 -29.699,97.754 -101.7033,97.754 H 44.3984 C 36,265.336 10.4961,264.77 2.40234,263.629 0.898438,259.645 0,254.223 0,249.664 11.4023,249.379 19.5039,245.668 19.5039,230.277 V 114.859 c 0,-14.25 0.5938,-20.8121 2.0977,-29.0738 L 3.59766,80.6602 C 2.40234,76.9492 1.5,71.2617 1.80078,68.6914 v 0"
         style="fill:#706d6e;fill-opacity:1;fill-rule:nonzero;stroke:none"
         id="path3782"
         inkscape:connector-curvature="0" /><path
         d="m 1612.37,373.695 h 20 v 48.293 l 38.1,-48.293 h 17.2 v 83.985 h -20 v -48.289 l -38.1,48.289 h -17.2 v -83.985 z m -72.38,0 h 22.66 v 83.985 h -22.66 v -83.985 z m -97.03,32.61 10.08,26.453 10.08,-26.453 h -20.16 z m -34.43,-32.61 h 21.97 l 7,17.922 h 31.08 l 7.14,-17.922 h 22.53 l -35.27,83.985 h -19.18 l -35.27,-83.985 z m -73.36,0 h 22.66 v 66.926 h 27.02 v 17.059 h -76.7 v -17.059 h 27.02 v -66.926 z m -144.34,0 h 20 v 48.293 l 38.1,-48.293 h 17.2 v 83.985 h -20 v -48.289 l -38.1,48.289 h -17.2 v -83.985 z m -90.45,-2.371 c 22.69,0 40.59,12.723 40.59,41.133 v 45.223 h -22.24 v -43.965 c 0,-14.832 -5.88,-22.813 -18.07,-22.813 -12.04,0 -17.93,7.981 -17.93,22.813 v 43.965 h -22.94 v -45.223 c 0,-28.41 18.05,-41.133 40.59,-41.133 z m -132.724,17.754 c -14.14,0 -22.539,10.508 -22.539,26.61 0,16.105 8.399,26.613 22.539,26.613 14.016,0 22.278,-10.508 22.278,-26.613 0,-16.102 -8.262,-26.61 -22.278,-26.61 z m 0,-17.754 c 25.637,0 46.344,18.594 46.344,44.364 0,25.773 -20.707,44.375 -46.344,44.375 -25.754,0 -46.601,-18.602 -46.601,-44.375 0,-25.77 20.847,-44.364 46.601,-44.364 z m -188.144,2.371 h 19.449 v 45.774 c 0,1.961 -0.563,8.398 -0.563,8.965 0.286,-0.989 2.243,-7.004 3.082,-8.965 l 18.903,-45.774 h 13.445 l 18.902,45.774 3.083,8.965 c -0.145,-0.567 -0.563,-7.004 -0.563,-8.965 v -45.774 h 20.008 v 83.985 h -24.77 L 827.66,404.352 804.84,457.68 h -25.328 v -83.985 z m -186.055,0 h 20 v 48.293 l 38.09,-48.293 h 17.215 V 457.68 H 648.75 v -48.289 l -38.09,48.289 h -17.203 v -83.985 z m -105.562,0 h 58.367 v 17.063 h -35.703 v 18.777 h 28.699 v 16.926 h -28.699 v 14.16 h 35.703 v 17.059 h -58.367 v -83.985 z m -105.559,0 h 58.363 v 17.063 H 405 v 18.777 h 28.695 v 16.926 H 405 v 14.16 h 35.699 v 17.059 h -58.363 v -83.985 z m -94.234,46.75 v 22.274 h 9.804 c 8.688,0 12.614,-3.926 12.614,-11.211 0,-7.149 -3.926,-11.063 -12.614,-11.063 h -9.804 z m 28.429,-12.179 c 10.356,3.222 16.367,12.316 16.367,23.527 0,13.582 -8.812,25.887 -29.246,25.887 h -38.218 v -83.985 h 22.668 v 32.344 h 6.16 l 21.988,-32.344 h 24.77 l -24.489,34.571 z M 179.75,371.324 c 17.227,0 31.074,5.723 35.969,7.821 v 40.175 h -33.723 v -15.664 h 12.461 v -13.875 c -3.223,-1.398 -6.582,-2.238 -11.203,-2.238 -14.289,0 -24.371,9.668 -24.371,26.75 0,17.773 10.644,27.305 26.191,27.305 11.895,0 20.008,-4.2 27.149,-9.805 v 19.316 c -6.996,5.313 -18.895,8.387 -30.504,8.387 -24.793,0 -46.621,-16.641 -46.621,-43.816 0,-27.16 20.425,-44.356 44.652,-44.356 v 0"
         style="fill:#1e6249;fill-opacity:1;fill-rule:nonzero;stroke:none"
         id="path3784"
         inkscape:connector-curvature="0" /><path
         d="m 1366.12,647.117 c -5.45,0.961 -10.98,1.578 -16.45,2.438 l -188.16,280.422 c -1.16,1.718 -3.48,2.175 -5.21,1.019 -1.71,-1.152 -2.17,-3.48 -1.02,-5.199 l 184.36,-274.758 c -4.91,0.723 -9.8,1.535 -14.72,2.184 l -184.8,273.105 c -2.32,3.442 -6.99,4.336 -10.41,2.008 -3.43,-2.316 -4.33,-6.977 -2.01,-10.414 l 177.45,-262.254 c -5.54,0.625 -11.12,1.082 -16.68,1.621 l -165.84,247.684 c -1.15,1.726 -3.48,2.187 -5.2,1.023 -1.72,-1.148 -2.18,-3.476 -1.03,-5.199 l 162.42,-242.57 c -5.52,0.484 -10.98,1.199 -16.52,1.601 l -150.38,224.524 c -12.18,18.179 -7.32,42.789 10.86,54.968 18.18,12.172 42.79,7.305 54.97,-10.867 l 3.18,-4.762 3.68,-5.484 181.51,-271.09 z m -162.73,15.692 c -5.73,0.156 -11.48,0.074 -17.22,0.152 l -198.025,292.668 13.195,8.824 202.05,-301.644 z m -230.199,343.671 -13.386,-8.957 -30.301,44.777 c -1.164,1.74 -3.508,2.18 -5.219,1.02 -1.719,-1.17 -2.168,-3.5 -1.004,-5.21 L 1177.07,663.043 c -4.64,0.039 -9.28,0.125 -13.93,0.121 L 908.109,1038.66 c -2.328,3.42 -7,4.32 -10.418,2 -3.421,-2.34 -4.312,-7 -1.992,-10.43 L 1145.06,663.082 c -4.35,-0.059 -8.7,-0.215 -13.05,-0.309 L 890.609,1017.32 c -1.16,1.71 -3.5,2.15 -5.211,0.98 -1.707,-1.16 -2.156,-3.5 -0.988,-5.2 l 238.67,-350.537 c -7.16,-0.184 -14.3,-0.227 -21.46,-0.5 L 879.332,993.93 c -13.062,19.49 -7.844,45.89 11.648,58.95 19.489,13.05 45.875,7.83 58.942,-11.66 l 3.418,-5.1 3.926,-5.88 15.925,-23.76 z M 778.902,932.375 966.172,652.68 c -5.117,-0.496 -10.137,-1.172 -15.242,-1.692 L 753.398,941.52 c -1.156,1.707 -3.511,2.171 -5.21,0.992 -1.719,-1.164 -2.157,-3.496 -0.985,-5.215 L 942.5,650.055 c -4.387,-0.461 -8.711,-0.977 -13.074,-1.45 L 732.012,937.871 c -2.332,3.43 -7.012,4.281 -10.418,1.973 -3.434,-2.332 -4.313,-7.008 -1.977,-10.426 L 912.527,646.73 c -3.996,-0.457 -8.015,-0.871 -11.996,-1.335 L 714.512,916.523 c -1.172,1.7 -3.5,2.149 -5.211,0.969 -1.711,-1.168 -2.153,-3.504 -0.973,-5.207 l 183.75,-267.828 c -6.859,-0.805 -13.851,-1.453 -20.668,-2.289 L 700.938,896.07 c -13.055,19.493 -7.836,45.883 11.66,58.95 19.492,13.05 45.882,7.828 58.941,-11.661 l 3.422,-5.105 3.941,-5.879 z M 1526.8,595.063 c -40.12,22.519 -52.14,27.437 -99.51,39.296 -13.64,3.414 -27.41,6.414 -41.25,9.157 l -189.36,282.777 -3.68,5.488 -3.95,5.914 c -16.65,24.848 -50.28,31.5 -75.12,14.856 -2.51,-1.684 -4.83,-3.547 -6.96,-5.547 v 0.019 l -0.14,-0.152 c -0.07,-0.062 -17.73,-16.945 -45.7,-43.676 l -46.84,69.922 38.8,25.942 -28.24,11.541 0.13,30.5 -38.835,-25.96 -15.918,23.77 -3.95,5.88 -4.234,6.34 c -17.855,26.65 -53.934,33.78 -80.563,15.93 -2.703,-1.81 -5.171,-3.8 -7.46,-5.95 v 0.02 l -0.137,-0.16 c -0.121,-0.11 -42.07,-40.2 -100.695,-96.232 -19.297,16.649 -47.899,19.328 -70.086,4.457 -2.704,-1.8 -5.18,-3.8 -7.473,-5.949 l 0.012,0.027 -0.153,-0.156 C 695.27,962.906 552.266,826.254 424.773,704.316 c 0,0 -21.652,-21.062 -9.191,-46.507 0,0 2.094,-3.961 5.141,-7.036 -33.559,7.743 -71.684,16.704 -117.852,26.645 388.629,-169.941 599.477,-19.863 1000.589,-43.352 91.04,-5.332 138.09,-15.648 223.34,-39.003 v 0"
         style="fill:#1e6249;fill-opacity:1;fill-rule:nonzero;stroke:none"
         id="path3786"
         inkscape:connector-curvature="0" /><path
         d="m 966.172,652.68 -187.27,279.695 -3.941,5.879 -3.422,5.105 C 758.48,962.848 732.09,968.07 712.598,955.02 693.102,941.953 687.883,915.563 700.938,896.07 L 871.41,642.168 c 6.817,0.836 13.809,1.484 20.668,2.289 l -183.75,267.828 c -1.18,1.703 -0.738,4.039 0.973,5.207 1.711,1.18 4.039,0.731 5.211,-0.969 L 900.531,645.395 c 3.981,0.464 8,0.878 11.996,1.335 l -192.91,282.688 c -2.328,3.418 -1.457,8.094 1.977,10.426 3.406,2.308 8.086,1.457 10.418,-1.973 L 929.426,648.605 c 4.363,0.473 8.679,0.989 13.062,1.45 L 747.203,937.297 c -1.172,1.719 -0.734,4.051 0.985,5.215 1.699,1.179 4.054,0.715 5.21,-0.992 L 950.93,650.988 c 5.105,0.52 10.125,1.196 15.242,1.692 z m -42.891,385.43 c -1.164,1.71 -0.715,4.04 1.004,5.21 1.711,1.16 4.055,0.72 5.207,-1.02 l 30.313,-44.777 13.386,8.957 -15.925,23.76 -3.926,5.88 -3.418,5.1 c -13.067,19.49 -39.453,24.71 -58.942,11.66 -19.492,-13.06 -24.71,-39.46 -11.648,-58.95 L 1101.62,662.063 c 7.15,0.273 14.3,0.316 21.45,0.5 L 884.41,1013.1 c -1.168,1.7 -0.719,4.04 0.988,5.2 1.711,1.17 4.051,0.73 5.211,-0.98 L 1132.01,662.773 c 4.35,0.094 8.7,0.25 13.05,0.309 L 895.699,1030.23 c -2.32,3.43 -1.429,8.09 1.992,10.43 3.418,2.32 8.09,1.42 10.418,-2 L 1163.14,663.164 c 4.65,0.004 9.28,-0.082 13.93,-0.121 L 923.281,1038.11 Z M 1203.39,662.809 1001.34,964.453 988.145,955.629 1186.17,662.961 c 5.74,-0.078 11.49,0.004 17.22,-0.152 z m -75.69,255.113 c -2.32,3.437 -1.42,8.098 2.01,10.414 3.42,2.328 8.09,1.434 10.41,-2.008 l 184.8,-273.105 c 4.92,-0.649 9.81,-1.461 14.72,-2.184 l -184.36,274.758 c -1.15,1.719 -0.69,4.047 1.02,5.199 1.73,1.156 4.05,0.699 5.21,-1.019 l 188.16,-280.422 c 5.47,-0.86 11,-1.477 16.45,-2.438 l -181.51,271.09 -3.68,5.484 -3.18,4.762 c -12.18,18.172 -36.79,23.039 -54.97,10.867 -18.18,-12.179 -23.05,-36.789 -10.87,-54.968 L 1262.3,659.828 c 5.53,-0.402 11,-1.117 16.52,-1.601 l -162.42,242.57 c -1.15,1.723 -0.69,4.051 1.03,5.199 1.72,1.164 4.05,0.703 5.2,-1.023 l 165.84,-247.684 c 5.56,-0.539 11.14,-0.996 16.68,-1.621 L 1127.7,917.922 v 0"
         style="fill:#ffffff;fill-opacity:1;fill-rule:nonzero;stroke:none"
         id="path3788"
         inkscape:connector-curvature="0" /></g></g></svg>