<svg xmlns="http://www.w3.org/2000/svg" height="143.587" width="243.96" xml:space="preserve">
    <path style="fill:#1e6249;fill-opacity:1;fill-rule:nonzero;stroke:black;stroke-width:1;" d="M1778.07 190.102c16.2 0 24.6-15.965 21.3-39.051h-49.5c3 23.367 13.8 39.051 28.2 39.051zm51.6-44.18c0 35.344-21.6 60.137-52.5 60.137-33.9 0-59.1-29.93-59.1-70.106 0-42.472 26.7-71.543 65.4-71.543 22.8 0 43.8 12.832 43.8 26.512 0 4.27-2.1 6.836-6 8.262-10.2-11.68-22.2-17.676-33.9-17.676-23.1 0-37.5 21.094-38.1 55.293h79.8c.3 3.137.6 6.836.6 9.121zm-126.3 55.859h-38.1c-1.8-3.699-2.7-7.41-2.4-10.828l9.9-4.269-27-81.805h-.9l-26.4 81.805 12.3 4.269c1.5 2.852 2.4 7.129 2.7 10.828h-54.9c-1.5-2.558-2.4-6.843-2.7-10.828l10.8-4.269 42.9-120.832 17.7 2.84 42.3 117.992 11.4 4.269c1.8 3.418 2.7 7.695 2.4 10.828zm-205.2-133.09h45.6c8.7 0 17.7 2.848 15.9 13.395-9.3.281-16.8 3.984-16.8 19.09v77.519c0 9.407-.9 19.094-3.3 27.364l-40.5-4.559c-1.5-3.711-1.8-9.121-1.8-11.398 10.2-.575 15.6-4.852 15.6-19.383v-56.426c0-13.684.6-21.379 1.8-29.074l-14.4-5.125c-1.5-3.715-2.4-9.125-2.1-11.403zm25.2 166.149c9.6 0 17.7 5.125 17.7 15.957 0 8.848-4.8 14.539-13.5 14.539-9.6 0-17.4-4.844-17.4-15.672 0-8.828 4.8-14.824 13.2-14.824zm-198-166.149h45.6c8.7 0 17.7 2.848 15.9 13.395-9.3.281-16.8 3.984-16.8 19.09v56.437c6.9 19.95 23.1 29.637 33.6 29.637s21.3-8.27 21.3-34.199v-38.758c0-13.684.6-21.379 1.8-29.074l-14.1-5.125c-1.5-3.715-2.4-9.125-2.4-11.403h45.6c8.7 0 17.7 2.848 16.2 13.395-9.6.281-17.1 3.984-17.1 19.09v54.152c0 34.481-21 50.731-44.4 50.731-17.1 0-33.9-10.547-40.5-27.079h-1.5l1.5 24.805v48.445c0 9.395-.9 19.094-3.3 27.364l-40.5-4.559c-1.5-3.711-1.8-9.699-1.8-11.406 10.2-.566 15.6-4.844 15.6-19.375V114.293c0-13.684.6-21.379 1.8-29.074l-14.4-5.125c-1.5-3.715-2.4-9.125-2.1-11.403zm-26.4 33.336c-10.5-13.105-22.2-20.793-35.4-20.793-23.7 0-35.7 25.93-35.7 54.993 0 26.796 10.8 54.148 34.2 54.148 4.2 0 9-.848 14.4-5.125l5.4-23.937c11.1-1.993 19.2 3.136 19.2 14.25 0 6.835-3 19.375-9 30.496l-12.6-5.985c-9.6 4.844-16.5 5.985-23.7 5.985-38.1 0-59.4-35.059-59.4-70.399 0-35.344 21-71.25 62.7-71.25 32.7 0 46.5 22.52 46.5 30.215 0 2.84-2.4 6.27-6.6 7.402zm-218.09-33.336h48.6c11.7 0 18 4.84 16.5 13.395-14.1 0-20.4 6.27-20.4 19.09v47.883c5.4 19.382 15 30.781 26.1 30.781 5.7 0 10.5-1.426 17.1-5.422 6 3.145 9.9 8.84 9.9 15.391 0 9.414-7.5 16.25-18.3 16.25-13.8 0-25.5-11.121-34.8-33.348h-1.2c0 12.539-1.5 23.086-4.8 32.781l-37.8-4.558c-.9-2.852-1.8-7.981-1.8-11.407 11.1-.566 15.6-5.988 15.6-19.093v-56.141c0-11.973.6-21.094 1.8-29.074l-14.4-5.125c-1.5-3.145-2.4-8.555-2.1-11.403zm-130.802 82.36 22.195 69.832h.61l22.195-69.832h-45zm97.502-65.547-58.803 182.684-21.297-2.852-57.902-179.832-12-4.563c-1.5-3.992-2.398-8.55-2.699-12.25h43.805c1.492 3.7 2.402 7.989 2.402 12.25l-12.004 4.563 15.293 48.164h56.405l15.3-48.164-12.3-4.563c-1.5-4.562-2.4-8.832-2.4-12.25h57c1.8 3.7 2.7 7.989 2.7 12.25l-13.5 4.563zM762.281 68.69h45.297c8.699 0 18.004 2.848 16.199 13.395-9.597.281-17.097 3.984-17.097 19.09V252.23c0 9.395-.899 19.094-3.598 27.364l-40.504-4.559c-1.195-3.43-1.797-7.14-1.797-11.406 10.199-.566 15.899-4.844 15.899-19.375V114.293c0-13.684.601-21.379 2.097-29.074l-14.097-5.125c-1.5-3.715-2.399-9.125-2.399-11.403zM671.078 83.22c-12.301 0-20.695 9.414-20.695 23.094 0 15.664 9.297 26.496 23.097 26.496 5.7 0 12.301-2.278 19.2-5.977v-26.516c-4.797-10.828-12.602-17.097-21.602-17.097zm69-3.703c-17.699-.282-17.398 6.27-17.398 27.07v54.727c0 27.082-17.098 44.746-43.5 44.746-8.7 0-16.5-2-24.602-6.27l-13.5 6.27c-5.996-11.121-9.894-22.801-9.894-29.637 0-10.547 8.402-16.535 19.796-14.25l4.5 21.66c4.5 3.984 10.2 6.27 16.2 6.27 12.898 0 21-9.981 21-25.653v-23.664c-8.996 3.996-18.301 6.27-27.602 6.27-24.898 0-42.894-17.95-42.894-43.309 0-23.086 15.597-39.336 38.093-39.336 14.403 0 27.301 7.98 33.301 20.809h.899c2.105-12.828 11.105-20.809 24.605-20.809 12.895 0 21.598 6.27 20.996 15.106zm-146.992 9.406c-6.301-5.41-9.898-7.121-15.898-7.121-9.598 0-15.301 5.703-15.301 26.496v76.387l15.902.859c12.598.566 16.496 5.703 16.496 16.238h-32.398v38.477c-10.5 1.426-23.098-1.426-24.899-15.391l-3.004-23.086-13.796-4.265c-1.5-3.996-2.399-8.555-2.399-13.411h14.098v-78.652c0-31.351 18-41.043 37.801-41.043 17.398 0 27.597 7.98 27.597 17.098 0 3.144-1.5 5.703-4.199 7.414zM431.09 68.692h45.598c8.703 0 17.703 2.847 15.902 13.394-9.297.281-16.797 3.984-16.797 19.09v77.519c0 9.407-.906 19.094-3.305 27.364l-40.5-4.559c-1.5-3.711-1.797-9.121-1.797-11.398 10.2-.575 15.602-4.852 15.602-19.383v-56.426c0-13.684.594-21.379 1.797-29.074l-14.402-5.125c-1.5-3.715-2.395-9.125-2.098-11.403zm25.199 166.148c9.602 0 17.699 5.125 17.699 15.957 0 8.848-4.8 14.539-13.5 14.539-9.597 0-17.398-4.844-17.398-15.672 0-8.828 4.801-14.824 13.199-14.824zM356.996 60.71c14.699-.858 21-5.991 21-17.382 0-16.816-15.301-29.078-36-29.078-21.305 0-32.402 8.84-32.402 25.648 0 8.551 3.301 15.114 12.004 22.524l35.398-1.711zm-15.601 59.286c-13.5 0-21 12.813-21 35.332 0 23.945 7.5 37.899 21 37.899 12.902 0 20.402-13.954 20.402-37.899 0-22.519-7.5-35.332-20.402-35.332zm70.8 72.664c4.801 11.125-2.699 23.086-15 23.086-9.004 0-15.902-5.418-24.597-19.375-9.004 6.27-20.102 9.688-33.004 9.688-28.199 0-50.098-22.227-50.098-50.731 0-16.816 9.297-31.64 23.102-40.469-11.403-3.711-19.203-13.398-19.203-24.23 0-8.828 6.3-17.379 15.3-21.66v-1.14c-17.402-4.27-27.601-15.669-27.601-30.49 0-21.948 24.004-37.327 58.203-37.327 41.996 0 70.801 19.09 70.801 47.297 0 20.812-15 33.925-38.703 35.058l-34.5 1.711c-11.399.574-18.899 5.703-18.899 13.387 0 3.711 2.102 8.848 5.102 12.551 6-2.286 12.593-3.43 19.199-3.43 29.098 0 51 20.812 51 49.023 0 13.106-4.504 24.512-12.301 33.059 9 3.711 17.996 4.852 31.199 3.992zm-213.3-123.969h45.601c8.703 0 17.699 2.848 15.899 13.395-9.297.281-16.797 3.984-16.797 19.09v77.519c0 9.407-.899 19.094-3.301 27.364l-40.496-4.559c-1.504-3.711-1.805-9.121-1.805-11.398 10.203-.575 15.602-4.852 15.602-19.383v-56.426c0-13.684.601-21.379 1.797-29.074l-14.399-5.125c-1.5-3.715-2.398-9.125-2.101-11.403zm25.203 166.149c9.597 0 17.699 5.125 17.699 15.957 0 8.848-4.801 14.539-13.5 14.539-9.602 0-17.399-4.844-17.399-15.672 0-8.828 4.801-14.824 13.2-14.824zM73.199 84.36c-15.297 0-22.5 3.71-22.5 22.226v141.367h17.7c42.3 0 67.203-33.34 67.203-80.371 0-46.738-22.805-83.223-59.399-83.223H73.2zM1.801 68.69H76.5c57.898 0 94.801 43.032 94.801 98.891 0 49.309-29.699 97.754-101.703 97.754h-25.2c-8.398 0-33.902-.566-41.996-1.707C.898 259.645 0 254.223 0 249.664c11.402-.285 19.504-3.996 19.504-19.387V114.859c0-14.25.594-20.812 2.098-29.074L3.598 80.66C2.402 76.95 1.5 71.262 1.8 68.691" transform="matrix(.13333 0 0 -.13333 0 143.587)"/>
    <path style="fill:#1e6249;fill-opacity:1;fill-rule:nonzero;stroke:black;stroke-width:1"
          d="M1612.37 373.695h20v48.293l38.1-48.293h17.2v83.985h-20v-48.289l-38.1 48.289h-17.2v-83.985zm-72.38 0h22.66v83.985h-22.66v-83.985zm-97.03 32.61 10.08 26.453 10.08-26.453h-20.16zm-34.43-32.61h21.97l7 17.922h31.08l7.14-17.922h22.53l-35.27 83.985h-19.18l-35.27-83.985zm-73.36 0h22.66v66.926h27.02v17.059h-76.7v-17.059h27.02v-66.926zm-144.34 0h20v48.293l38.1-48.293h17.2v83.985h-20v-48.289l-38.1 48.289h-17.2v-83.985zm-90.45-2.371c22.69 0 40.59 12.723 40.59 41.133v45.223h-22.24v-43.965c0-14.832-5.88-22.813-18.07-22.813-12.04 0-17.93 7.981-17.93 22.813v43.965h-22.94v-45.223c0-28.41 18.05-41.133 40.59-41.133zm-132.724 17.754c-14.14 0-22.539 10.508-22.539 26.61 0 16.105 8.399 26.613 22.539 26.613 14.016 0 22.278-10.508 22.278-26.613 0-16.102-8.262-26.61-22.278-26.61zm0-17.754c25.637 0 46.344 18.594 46.344 44.364 0 25.773-20.707 44.375-46.344 44.375-25.754 0-46.601-18.602-46.601-44.375 0-25.77 20.847-44.364 46.601-44.364zm-188.144 2.371h19.449v45.774c0 1.961-.563 8.398-.563 8.965.286-.989 2.243-7.004 3.082-8.965l18.903-45.774h13.445l18.902 45.774 3.083 8.965c-.145-.567-.563-7.004-.563-8.965v-45.774h20.008v83.985h-24.77l-22.828-53.328-22.82 53.328h-25.328v-83.985zm-186.055 0h20v48.293l38.09-48.293h17.215v83.985H648.75v-48.289l-38.09 48.289h-17.203v-83.985zm-105.562 0h58.367v17.063h-35.703v18.777h28.699v16.926h-28.699v14.16h35.703v17.059h-58.367v-83.985zm-105.559 0h58.363v17.063H405v18.777h28.695v16.926H405v14.16h35.699v17.059h-58.363v-83.985zm-94.234 46.75v22.274h9.804c8.688 0 12.614-3.926 12.614-11.211 0-7.149-3.926-11.063-12.614-11.063h-9.804zm28.429-12.179c10.356 3.222 16.367 12.316 16.367 23.527 0 13.582-8.812 25.887-29.246 25.887h-38.218v-83.985h22.668v32.344h6.16l21.988-32.344h24.77l-24.489 34.571zM179.75 371.324c17.227 0 31.074 5.723 35.969 7.821v40.175h-33.723v-15.664h12.461v-13.875c-3.223-1.398-6.582-2.238-11.203-2.238-14.289 0-24.371 9.668-24.371 26.75 0 17.773 10.644 27.305 26.191 27.305 11.895 0 20.008-4.2 27.149-9.805v19.316c-6.996 5.313-18.895 8.387-30.504 8.387-24.793 0-46.621-16.641-46.621-43.816 0-27.16 20.425-44.356 44.652-44.356M1366.12 647.117c-5.45.961-10.98 1.578-16.45 2.438l-188.16 280.422a3.756 3.756 0 0 1-5.21 1.019 3.756 3.756 0 0 1-1.02-5.199l184.36-274.758c-4.91.723-9.8 1.535-14.72 2.184l-184.8 273.105a7.48 7.48 0 0 1-10.41 2.008c-3.43-2.316-4.33-6.977-2.01-10.414l177.45-262.254c-5.54.625-11.12 1.082-16.68 1.621l-165.84 247.684a3.73 3.73 0 0 1-5.2 1.023 3.748 3.748 0 0 1-1.03-5.199l162.42-242.57c-5.52.484-10.98 1.199-16.52 1.601l-150.38 224.524c-12.18 18.179-7.32 42.789 10.86 54.968 18.18 12.172 42.79 7.305 54.97-10.867l3.18-4.762 3.68-5.484 181.51-271.09zm-162.73 15.692c-5.73.156-11.48.074-17.22.152L988.145 955.629l13.195 8.824 202.05-301.644zM973.191 1006.48l-13.386-8.957-30.301 44.777a3.747 3.747 0 0 1-5.219 1.02 3.75 3.75 0 0 1-1.004-5.21l253.789-375.067c-4.64.039-9.28.125-13.93.121L908.109 1038.66c-2.328 3.42-7 4.32-10.418 2-3.421-2.34-4.312-7-1.992-10.43l249.361-367.148c-4.35-.059-8.7-.215-13.05-.309L890.609 1017.32a3.746 3.746 0 0 1-5.211.98c-1.707-1.16-2.156-3.5-.988-5.2l238.67-350.537c-7.16-.184-14.3-.227-21.46-.5L879.332 993.93c-13.062 19.49-7.844 45.89 11.648 58.95 19.489 13.05 45.875 7.83 58.942-11.66l3.418-5.1 3.926-5.88 15.925-23.76zm-194.289-74.105 187.27-279.695c-5.117-.496-10.137-1.172-15.242-1.692L753.398 941.52c-1.156 1.707-3.511 2.171-5.21.992a3.741 3.741 0 0 1-.985-5.215L942.5 650.055c-4.387-.461-8.711-.977-13.074-1.45L732.012 937.871c-2.332 3.43-7.012 4.281-10.418 1.973a7.494 7.494 0 0 1-1.977-10.426l192.91-282.688c-3.996-.457-8.015-.871-11.996-1.335L714.512 916.523c-1.172 1.7-3.5 2.149-5.211.969a3.733 3.733 0 0 1-.973-5.207l183.75-267.828c-6.859-.805-13.851-1.453-20.668-2.289L700.938 896.07c-13.055 19.493-7.836 45.883 11.66 58.95 19.492 13.05 45.882 7.828 58.941-11.661l3.422-5.105 3.941-5.879zM1526.8 595.063c-40.12 22.519-52.14 27.437-99.51 39.296-13.64 3.414-27.41 6.414-41.25 9.157l-189.36 282.777-3.68 5.488-3.95 5.914c-16.65 24.848-50.28 31.5-75.12 14.856a54.645 54.645 0 0 1-6.96-5.547v.019l-.14-.152c-.07-.062-17.73-16.945-45.7-43.676l-46.84 69.922 38.8 25.942-28.24 11.541.13 30.5-38.835-25.96-15.918 23.77-3.95 5.88-4.234 6.34c-17.855 26.65-53.934 33.78-80.563 15.93a58.021 58.021 0 0 1-7.46-5.95v.02l-.137-.16c-.121-.11-42.07-40.2-100.695-96.232-19.297 16.649-47.899 19.328-70.086 4.457-2.704-1.8-5.18-3.8-7.473-5.949l.012.027-.153-.156c-.218-.211-143.222-136.863-270.715-258.801 0 0-21.652-21.062-9.191-46.507 0 0 2.094-3.961 5.141-7.036-33.559 7.743-71.684 16.704-117.852 26.645C691.5 507.477 902.348 657.555 1303.46 634.066c91.04-5.332 138.09-15.648 223.34-39.003"
          transform="matrix(.13333 0 0 -.13333 0 143.587)"/>
    <path style="fill:#fff;fill-opacity:1;fill-rule:nonzero;stroke:none"
          d="m966.172 652.68-187.27 279.695-3.941 5.879-3.422 5.105c-13.059 19.489-39.449 24.711-58.941 11.661-19.496-13.067-24.715-39.457-11.66-58.95L871.41 642.168c6.817.836 13.809 1.484 20.668 2.289l-183.75 267.828a3.733 3.733 0 0 0 .973 5.207c1.711 1.18 4.039.731 5.211-.969l186.019-271.128c3.981.464 8 .878 11.996 1.335l-192.91 282.688c-2.328 3.418-1.457 8.094 1.977 10.426 3.406 2.308 8.086 1.457 10.418-1.973l197.414-289.266c4.363.473 8.679.989 13.062 1.45L747.203 937.297a3.741 3.741 0 0 0 .985 5.215c1.699 1.179 4.054.715 5.21-.992L950.93 650.988c5.105.52 10.125 1.196 15.242 1.692zm-42.891 385.43a3.75 3.75 0 0 0 1.004 5.21 3.731 3.731 0 0 0 5.207-1.02l30.313-44.777 13.386 8.957-15.925 23.76-3.926 5.88-3.418 5.1c-13.067 19.49-39.453 24.71-58.942 11.66-19.492-13.06-24.71-39.46-11.648-58.95l222.288-331.867c7.15.273 14.3.316 21.45.5L884.41 1013.1c-1.168 1.7-.719 4.04.988 5.2a3.746 3.746 0 0 0 5.211-.98l241.401-354.547c4.35.094 8.7.25 13.05.309L895.699 1030.23c-2.32 3.43-1.429 8.09 1.992 10.43 3.418 2.32 8.09 1.42 10.418-2l255.031-375.496c4.65.004 9.28-.082 13.93-.121L923.281 1038.11zm280.109-375.301-202.05 301.644-13.195-8.824 198.025-292.668c5.74-.078 11.49.004 17.22-.152zm-75.69 255.113c-2.32 3.437-1.42 8.098 2.01 10.414a7.48 7.48 0 0 0 10.41-2.008l184.8-273.105c4.92-.649 9.81-1.461 14.72-2.184l-184.36 274.758a3.756 3.756 0 0 0 1.02 5.199 3.756 3.756 0 0 0 5.21-1.019l188.16-280.422c5.47-.86 11-1.477 16.45-2.438l-181.51 271.09-3.68 5.484-3.18 4.762c-12.18 18.172-36.79 23.039-54.97 10.867-18.18-12.179-23.05-36.789-10.87-54.968l150.39-224.524c5.53-.402 11-1.117 16.52-1.601l-162.42 242.57a3.748 3.748 0 0 0 1.03 5.199 3.73 3.73 0 0 0 5.2-1.023l165.84-247.684c5.56-.539 11.14-.996 16.68-1.621L1127.7 917.922"
          transform="matrix(.13333 0 0 -.13333 0 143.587)"/>
</svg>