<?xml version="1.0" encoding="UTF-8" standalone="no"?>
<!-- Created with Inkscape (http://www.inkscape.org/) -->

<svg
   xmlns:dc="http://purl.org/dc/elements/1.1/"
   xmlns:cc="http://creativecommons.org/ns#"
   xmlns:rdf="http://www.w3.org/1999/02/22-rdf-syntax-ns#"
   xmlns:svg="http://www.w3.org/2000/svg"
   xmlns="http://www.w3.org/2000/svg"
   xmlns:sodipodi="http://sodipodi.sourceforge.net/DTD/sodipodi-0.dtd"
   xmlns:inkscape="http://www.inkscape.org/namespaces/inkscape"
   version="1.1"
   id="svg2"
   xml:space="preserve"
   width="308.97333"
   height="64.239998"
   viewBox="0 0 308.97333 64.239998"
   sodipodi:docname="logo.svg"
   inkscape:version="0.92.4 (5da689c313, 2019-01-14)"><metadata
     id="metadata8"><rdf:RDF><cc:Work
         rdf:about=""><dc:format>image/svg+xml</dc:format><dc:type
           rdf:resource="http://purl.org/dc/dcmitype/StillImage" /><dc:title></dc:title></cc:Work></rdf:RDF></metadata><defs
     id="defs6" /><sodipodi:namedview
     pagecolor="#ffffff"
     bordercolor="#666666"
     borderopacity="1"
     objecttolerance="10"
     gridtolerance="10"
     guidetolerance="10"
     inkscape:pageopacity="0"
     inkscape:pageshadow="2"
     inkscape:window-width="640"
     inkscape:window-height="480"
     id="namedview4"
     showgrid="false"
     inkscape:zoom="1.2007509"
     inkscape:cx="154.48666"
     inkscape:cy="32.119999"
     inkscape:window-x="2513"
     inkscape:window-y="771"
     inkscape:window-maximized="0"
     inkscape:current-layer="g10" /><g
     id="g10"
     inkscape:groupmode="layer"
     inkscape:label="ink_ext_XXXXXX"
     transform="matrix(1.3333333,0,0,-1.3333333,0,64.24)"><g
       id="g12"
       transform="scale(0.1)"><path
         d="m 1063.24,52.0625 c -5.44,0.9492 -10.97,1.5742 -16.44,2.4297 L 858.637,334.914 c -1.157,1.719 -3.477,2.18 -5.207,1.02 -1.719,-1.153 -2.168,-3.481 -1.02,-5.2 L 1036.76,55.9766 c -4.9,0.7226 -9.79,1.5351 -14.71,2.1797 L 837.25,331.266 c -2.316,3.445 -6.992,4.336 -10.41,2.007 -3.434,-2.312 -4.328,-6.976 -2.012,-10.414 L 1002.28,60.6055 c -5.542,0.625 -11.12,1.0859 -16.678,1.6211 L 819.762,309.91 c -1.164,1.727 -3.485,2.188 -5.199,1.024 -1.731,-1.149 -2.196,-3.477 -1.032,-5.2 L 975.953,63.168 c -5.523,0.4843 -10.992,1.1875 -16.523,1.5976 L 809.039,289.289 c -12.18,18.18 -7.309,42.789 10.871,54.973 18.18,12.172 42.789,7.301 54.969,-10.871 l 3.184,-4.762 3.675,-5.484 L 1063.24,52.0625 Z M 900.52,67.7461 c -5.731,0.1562 -11.481,0.0664 -17.219,0.1562 L 685.27,360.566 698.473,369.391 900.52,67.7461 Z m -230.2,343.6679 -13.39,-8.953 -30.309,44.781 c -1.152,1.731 -3.496,2.172 -5.203,1.012 -1.723,-1.164 -2.172,-3.492 -1.008,-5.207 L 874.199,67.9805 c -4.648,0.039 -9.289,0.125 -13.929,0.1172 L 605.242,443.602 c -2.332,3.418 -7.004,4.32 -10.418,1.992 -3.429,-2.332 -4.316,-6.992 -1.992,-10.422 L 842.188,68.0195 c -4.344,-0.0586 -8.696,-0.2148 -13.047,-0.3007 L 587.738,422.254 c -1.16,1.711 -3.5,2.152 -5.211,0.984 -1.711,-1.168 -2.156,-3.5 -0.988,-5.203 L 820.199,67.5039 c -7.148,-0.1875 -14.301,-0.2383 -21.449,-0.5 L 576.453,398.867 c -13.058,19.492 -7.84,45.887 11.652,58.946 19.489,13.054 45.887,7.839 58.946,-11.653 l 3.418,-5.105 3.929,-5.883 15.922,-23.758 z M 476.023,337.313 663.301,57.6172 c -5.133,-0.4961 -10.133,-1.1719 -15.238,-1.6875 L 450.527,346.457 c -1.156,1.711 -3.507,2.172 -5.211,0.992 -1.711,-1.168 -2.156,-3.504 -0.992,-5.215 L 639.625,54.9922 c -4.383,-0.4609 -8.711,-0.9766 -13.078,-1.457 L 429.137,342.809 c -2.328,3.429 -7.004,4.285 -10.422,1.972 -3.422,-2.332 -4.301,-7 -1.969,-10.426 L 609.664,51.6602 c -4,-0.4454 -8.023,-0.8672 -12.012,-1.3243 L 411.637,321.461 c -1.172,1.699 -3.5,2.148 -5.215,0.969 -1.703,-1.168 -2.141,-3.508 -0.969,-5.207 L 589.203,49.3945 c -6.855,-0.8086 -13.844,-1.4531 -20.668,-2.2929 L 398.066,301.008 c -13.054,19.492 -7.839,45.883 11.661,58.949 19.492,13.055 45.878,7.828 58.941,-11.66 l 3.418,-5.106 3.937,-5.878 z M 1223.92,0.00390625 C 1183.81,22.5195 1171.79,27.4414 1124.42,39.3008 c -13.65,3.418 -27.41,6.4023 -41.25,9.1601 L 893.801,331.23 l -3.668,5.493 -3.961,5.91 c -16.641,24.847 -50.281,31.5 -75.121,14.855 -2.512,-1.679 -4.828,-3.547 -6.949,-5.547 v 0.02 l -0.141,-0.152 c -0.07,-0.063 -17.731,-16.946 -45.707,-43.676 l -46.832,69.922 38.797,25.941 -28.242,11.539 0.125,30.5 -38.832,-25.961 -15.922,23.77 -3.95,5.883 -4.226,6.343 c -17.863,26.645 -53.934,33.774 -80.559,15.93 -2.699,-1.809 -5.179,-3.805 -7.461,-5.953 v 0.023 l -0.144,-0.16 c -0.117,-0.113 -42.067,-40.199 -100.695,-96.234 -19.293,16.648 -47.895,19.328 -70.086,4.457 -2.7,-1.801 -5.176,-3.797 -7.469,-5.949 l 0.012,0.027 -0.149,-0.156 c -0.219,-0.211 -143.23,-136.864 -270.719,-258.793 0,0 -21.652,-21.0667 -9.191,-46.5159 0,0 2.094,-3.9531 5.141,-7.0313 C 84.2852,63.4609 46.168,72.4141 0,82.3555 388.629,-87.5859 599.473,62.4922 1000.59,39.0078 c 91.03,-5.332 138.08,-15.6562 223.33,-39.00389375 v 0"
         style="fill:#1e6249;fill-opacity:1;fill-rule:nonzero;stroke:none"
         id="path14"
         inkscape:connector-curvature="0" /><path
         d="m 2169.32,162.07 29.6,93.102 h 0.8 l 29.6,-93.102 h -60 z m 130,-87.3981 -78.4,243.5821 -28.4,-3.801 -77.2,-239.7811 -16,-6.0742 c -2,-5.3243 -3.2,-11.4102 -3.6,-16.3399 h 58.4 c 2,4.9297 3.2,10.6328 3.2,16.3399 l -16,6.0742 20.4,64.2261 h 75.2 l 20.4,-64.2261 -16.4,-6.0742 c -2,-6.086 -3.2,-11.7813 -3.2,-16.3399 h 76 c 2.4,4.9297 3.6,10.6328 3.6,16.3399 l -18,6.0742 z m -346.4,-1.5156 c -20.4,0 -30,4.9414 -30,29.6407 V 291.27 h 23.6 c 56.4,0 89.6,-44.457 89.6,-107.157 0,-62.324 -30.4,-110.9567 -79.2,-110.9567 h -4 z m -95.2,-20.8985 h 99.6 c 77.2,0 126.4,57.3752 126.4,131.8552 0,65.742 -39.6,130.34 -135.6,130.34 h -33.6 c -11.2,0 -45.2,-0.762 -56,-2.277 -2,-5.324 -3.2,-12.539 -3.2,-18.625 15.2,-0.375 26,-5.317 26,-25.84 V 113.809 c 0,-18.9926 0.8,-27.7348 2.8,-38.7582 l -24,-6.836 c -1.6,-4.9414 -2.8,-12.539 -2.4,-15.957 z m -322,0 h 71.6 c 2.4,5.3125 3.2,13.6719 3.2,18.6133 -16,1.1445 -24.8,11.7852 -24,31.9259 l 8,175.18 h 2 l 64,-208.2387 12.4,3.418 62.8,204.8207 h 2.4 l 8,-163.786 c 0.8,-22.4215 2,-33.0543 4.4,-38.7574 l -24.4,-7.2188 c -1.6,-4.9414 -2.4,-11.7773 -2.4,-15.957 h 86.8 c 2.4,5.3125 3.2,13.6719 3.2,18.6133 -16.4,0.3828 -25.2,6.4648 -26,26.9805 l -6,163.0234 c -0.8,14.059 -1.6,22.801 -2.8,30.777 l 20.8,6.84 c 2,4.942 2.4,9.504 2.4,15.961 h -80 l -49.6,-162.265 -48,162.265 h -80.4 c -2.4,-5.32 -3.2,-14.062 -3.2,-18.621 15.2,-0.383 25.6,-5.699 24.8,-26.223 l -7.2,-155.8 c -0.4,-9.493 0,-24.6957 2.8,-38.7582 l -22.8,-6.836 c -2,-4.9414 -2.8,-11.0273 -2.8,-15.957 z m -29.59,124.6372 h -87.2 c -2,-6.082 -3.6,-14.442 -3.2,-18.622 19.6,-0.382 30,-8.742 30,-25.46 V 92.1484 c -13.6,-12.1562 -31.2,-18.6132 -51.2,-18.6132 -45.6,0 -78,45.5978 -78,109.8168 0,64.98 32,113.621 74.4,113.621 21.6,0 40.4,-9.879 54.8,-27.739 l 5.6,-29.261 c 17.6,-4.563 30.8,6.84 30.8,27.363 0,14.82 -4.8,32.301 -14.4,50.918 l -25.6,-14.82 c -14.4,9.879 -32,14.82 -51.2,14.82 -72.4,0 -122,-56.238 -122,-137.559 0,-78.664 48.4,-132.2458 121.6,-132.2458 35.2,0 68.8,17.1016 85.2,42.9414 l 4,62.7034 24.4,6.836 c 1.6,4.941 2.4,11.406 2,15.965 v 0"
         style="fill:#106d6e;fill-opacity:1;fill-rule:nonzero;stroke:none"
         id="path16"
         inkscape:connector-curvature="0" /><path
         d="m 620.41,443.043 c -1.164,1.715 -0.707,4.047 1.012,5.211 1.703,1.16 4.047,0.719 5.203,-1.012 l 30.305,-44.785 13.39,8.957 -15.922,23.758 -3.929,5.883 -3.418,5.105 c -13.059,19.492 -39.453,24.707 -58.946,11.653 -19.492,-13.059 -24.71,-39.458 -11.652,-58.946 L 798.75,67.0039 c 7.148,0.2617 14.301,0.3125 21.449,0.5 L 581.539,418.027 c -1.168,1.711 -0.723,4.043 0.988,5.211 1.711,1.164 4.051,0.727 5.211,-0.984 L 829.141,67.7188 c 4.351,0.0859 8.703,0.2421 13.047,0.3007 L 592.832,435.168 c -2.324,3.426 -1.437,8.09 1.992,10.426 3.414,2.324 8.086,1.426 10.418,-2 L 860.27,68.0977 c 4.652,0.0078 9.281,-0.0782 13.929,-0.1172 L 620.41,443.043 Z M 405.453,317.223 c -1.172,1.699 -0.734,4.035 0.973,5.207 1.711,1.175 4.043,0.73 5.211,-0.973 L 597.656,50.3359 c 3.985,0.4571 8.008,0.8789 12.008,1.336 L 416.746,334.352 c -2.332,3.421 -1.453,8.089 1.969,10.429 3.418,2.313 8.094,1.449 10.426,-1.972 L 626.547,53.5352 c 4.367,0.4804 8.695,0.9961 13.078,1.457 L 444.324,342.234 c -1.164,1.711 -0.719,4.047 0.992,5.215 1.704,1.18 4.055,0.719 5.211,-0.996 L 648.063,55.9297 c 5.105,0.5156 10.105,1.1914 15.238,1.6875 l -187.27,279.6958 -3.945,5.878 -3.418,5.106 c -13.059,19.488 -39.449,24.715 -58.941,11.656 C 390.23,346.891 385.012,320.5 398.066,301.008 L 568.535,47.1016 c 6.824,0.8398 13.813,1.4843 20.668,2.2929 L 405.453,317.223 Z m 293.02,52.168 -13.203,-8.825 198.031,-292.6637 c 5.738,-0.0898 11.488,0 17.219,-0.1562 L 698.473,369.391 Z M 809.039,289.285 959.43,64.7656 c 5.531,-0.4101 11,-1.1133 16.523,-1.5976 L 813.531,305.734 c -1.164,1.719 -0.699,4.051 1.032,5.2 1.714,1.164 4.035,0.699 5.199,-1.032 L 985.602,62.2266 c 5.558,-0.5352 11.136,-0.9961 16.678,-1.6211 L 824.828,322.859 c -2.316,3.434 -1.422,8.094 2.012,10.414 3.418,2.325 8.094,1.43 10.41,-2.007 l 184.8,-273.1097 c 4.92,-0.6446 9.81,-1.4571 14.71,-2.1797 L 852.41,330.73 c -1.148,1.723 -0.691,4.047 1.02,5.204 1.73,1.16 4.05,0.699 5.207,-1.02 L 1046.8,54.4922 c 5.47,-0.8555 11,-1.4805 16.44,-2.4297 l -181.502,271.0825 -3.675,5.484 -3.184,4.758 c -12.18,18.176 -36.789,23.047 -54.969,10.875 -18.18,-12.184 -23.051,-36.793 -10.871,-54.977 v 0"
         style="fill:#ffffff;fill-opacity:1;fill-rule:nonzero;stroke:none"
         id="path18"
         inkscape:connector-curvature="0" /></g></g></svg>