<?xml version="1.0" encoding="UTF-8"?>
<svg width="20px" height="20px" viewBox="0 0 20 20" version="1.1" xmlns="http://www.w3.org/2000/svg" xmlns:xlink="http://www.w3.org/1999/xlink">
    <!-- Generator: Sketch 46.1 (44463) - http://www.bohemiancoding.com/sketch -->
    <title>Icon/Add</title>
    <desc>Created with Sketch.</desc>
    <defs></defs>
    <g id="Branding" stroke="none" stroke-width="1" fill="none" fill-rule="evenodd">
        <g id="Icons" transform="translate(-206.000000, -195.000000)">
            <g id="Icon/Add" transform="translate(198.000000, 187.000000)">
                <rect id="Shape" x="0" y="0" width="36" height="36"></rect>
                <path d="M16,16 L8.75,16 L8.75,16 C8.33578644,16 8,16.3357864 8,16.75 L8,19.25 C8,19.6642136 8.33578644,20 8.75,20 L16,20 L16,27.25 C16,27.6642136 16.3357864,28 16.75,28 L19.25,28 C19.6642136,28 20,27.6642136 20,27.25 L20,20 L27.25,20 C27.6642136,20 28,19.6642136 28,19.25 L28,16.75 C28,16.3357864 27.6642136,16 27.25,16 L20,16 L20,8.75 L20,8.75 C20,8.33578644 19.6642136,8 19.25,8 L19.25,8 L16.75,8 C16.3357864,8 16,8.33578644 16,8.75 L16,16 Z" id="Shape" fill="#000000"></path>
            </g>
        </g>
    </g>
</svg>