<?xml version="1.0" encoding="UTF-8"?>
<svg width="15px" height="24px" viewBox="0 0 15 24" version="1.1" xmlns="http://www.w3.org/2000/svg" xmlns:xlink="http://www.w3.org/1999/xlink">
    <g id="Styles" stroke="none" stroke-width="1" fill="none" fill-rule="evenodd">
        <g id="Artboard" transform="translate(-183.000000, -205.000000)" fill="#000000">
            <path fill="#000000" d="M201.948629,212.831277 L190.307237,224.272727 L178.598137,212.760526 C178.389045,212.55631 178.272727,212.279942 178.272727,211.991326 C178.272727,211.701341 178.389042,211.42497 178.598137,211.220767 L179.791769,210.047207 L179.791769,210.045847 C179.999478,209.841631 180.280573,209.727273 180.575507,209.727273 C180.869066,209.727273 181.150168,209.841635 181.357863,210.045847 L190.307272,218.843371 L199.187556,210.116599 C199.619606,209.691814 200.321635,209.691814 200.753685,210.116599 L201.947318,211.290159 L201.948704,211.290159 C202.156413,211.494375 202.272727,211.772103 202.272727,212.060718 C202.272727,212.349333 202.156413,212.627075 201.948704,212.831277 L201.948629,212.831277 Z" id="Chevron-Thick" transform="translate(190.272727, 217.000000) rotate(-90.000000) translate(-190.272727, -217.000000) "></path>
        </g>
    </g>
</svg>
