<?xml version="1.0" encoding="UTF-8"?>
<svg width="24px" height="24px" viewBox="0 0 24 24" version="1.1" xmlns="http://www.w3.org/2000/svg" xmlns:xlink="http://www.w3.org/1999/xlink">
    <!-- Generator: Sketch 45.1 (43504) - http://www.bohemiancoding.com/sketch -->
    <title>RSS</title>
    <desc>Created with Sketch.</desc>
    <defs></defs>
    <g id="Styles" stroke="none" stroke-width="1" fill="none" fill-rule="evenodd">
        <g id="Artboard" transform="translate(-465.000000, -205.000000)" fill="#000000">
            <path opacity="0.75" fill="#ffffff" d="M484.2,229 C484.2,218.467 475.533,209.8 465,209.8 L465,205 C478.1655,205 489,215.8345 489,229 L484.2,229 Z M468.499203,222 C470.429027,222 472,223.570615 472,225.501595 C472,227.430979 470.421053,229 468.491228,229 C466.562998,229 465,227.432574 465,225.501595 C465,223.57221 466.567783,222.001595 468.499203,222.001595 L468.499203,222 Z M481,229 L476.308316,229 C476.308316,222.795795 471.20479,217.691242 465,217.691242 L465,213 C473.776919,213 481,220.225417 481,229 Z" id="RSS"></path>
        </g>
    </g>
</svg>
