<?xml version="1.0" encoding="UTF-8"?>
<svg width="24px" height="24px" viewBox="0 0 24 24" version="1.1" xmlns="http://www.w3.org/2000/svg" xmlns:xlink="http://www.w3.org/1999/xlink">
    <!-- Generator: Sketch 45.1 (43504) - http://www.bohemiancoding.com/sketch -->
    <title>Search</title>
    <desc>Created with Sketch.</desc>
    <defs></defs>
    <g id="Styles" stroke="none" stroke-width="1" fill="none" fill-rule="evenodd">
        <g id="Artboard" transform="translate(-263.000000, -205.000000)" fill="rgba(22, 63, 81, 0.35)">
            <path d="M270.482275,223.522892 C272.205088,224.822173 274.350247,225.611861 276.694069,225.611861 C282.369955,225.611861 287,220.981816 287,215.305931 C287,209.630045 282.397343,205 276.694069,205 C270.990795,205 266.388139,209.630045 266.388139,215.305931 C266.388139,217.649697 267.178956,219.794799 268.477108,221.546525 L263.423531,226.600101 C263.141177,226.85378 263,227.221055 263,227.588341 C263,227.955628 263.141177,228.322914 263.394844,228.576581 C263.959553,229.14129 264.835303,229.14129 265.400012,228.576581 L270.482275,223.522892 Z M276.694069,207.82343 C280.817006,207.82343 284.176457,211.182881 284.176457,215.305818 C284.176457,219.428755 280.817006,222.788206 276.694069,222.788206 C272.571132,222.788206 269.211681,219.428755 269.211681,215.305818 C269.211681,211.182881 272.571132,207.82343 276.694069,207.82343 Z" id="Search"></path>
        </g>
    </g>
</svg>
