<?xml version="1.0" encoding="UTF-8"?>
<svg width="13px" height="24px" viewBox="0 0 13 24" version="1.1" xmlns="http://www.w3.org/2000/svg" xmlns:xlink="http://www.w3.org/1999/xlink">
    <!-- Generator: Sketch 45.1 (43504) - http://www.bohemiancoding.com/sketch -->
    <title>Tumblr</title>
    <desc>Created with Sketch.</desc>
    <defs></defs>
    <g id="Styles" stroke="none" stroke-width="1" fill="none" fill-rule="evenodd">
        <g id="Artboard" transform="translate(-515.000000, -205.000000)" fill="#000000">
            <path opacity="0.75" fill="#ffffff" d="M523.919708,229 C519.110034,229 517.281621,225.244 517.281621,222.589 L517.281621,214.747 L515,214.747 L515,211.648 C518.427389,210.3355 519.260159,207.052 519.447108,205.18 C519.46127,205.051 519.556161,205 519.609979,205 L522.931147,205 L522.931147,211.114 L527.463231,211.114 L527.463231,214.747 L522.912736,214.747 L522.912736,222.217 C522.926898,223.2175 523.266805,224.587 524.997494,224.587 L525.082471,224.587 C525.677307,224.569 526.484584,224.383 526.909467,224.17 L528,227.5945 C527.58928,228.2305 525.733958,228.9685 524.076915,228.9985 L523.908378,228.9985 L523.919708,229 Z" id="Tumblr"></path>
        </g>
    </g>
</svg>
