<svg width="40" height="42" viewBox="0 0 40 42" xmlns="http://www.w3.org/2000/svg"><title>Icon/Sound</title><g fill="none" fill-rule="evenodd"><path d="M-10-9h60v60h-60z"/><path d="M25.48.122a1.004 1.004 0 0 0-1.019.035L10.707 9.001H4c-2.207 0-4 1.793-4 4v16c0 2.207 1.793 4 4 4h6.707l13.754 8.84a.993.993 0 0 0 1.02.035.99.99 0 0 0 .519-.875v-40c0-.367-.2-.703-.52-.879zM2 29.002v-16c0-1.102.899-2 2-2h6v20H4c-1.101 0-2-.895-2-2zm22 10.167l-12-7.715V10.548l12-7.714v36.335zm10-18.168c0 4.274-1.664 8.293-4.687 11.312a1 1 0 1 1-1.414-1.414A13.909 13.909 0 0 0 32 21.001c0-3.738-1.457-7.254-4.102-9.899a1 1 0 1 1 1.414-1.414A15.884 15.884 0 0 1 34.001 21v.001zm-.44 15.56a1 1 0 1 1-1.415-1.415c7.8-7.8 7.8-20.484 0-28.285a1 1 0 1 1 1.414-1.414c8.574 8.574 8.574 22.535 0 31.113z" fill="#000"/></g></svg>