<svg width="40" height="36" viewBox="0 0 40 36" xmlns="http://www.w3.org/2000/svg"><title>Icon/Video</title><g fill="none" fill-rule="evenodd"><path d="M-10-12h60v60h-60z"/><path d="M40 32.238V2.948A2.957 2.957 0 0 0 37.052 0H2.948A2.957 2.957 0 0 0 0 2.948v29.337a2.957 2.957 0 0 0 2.948 2.949h34.104C38.674 35.186 40 33.859 40 32.237zm-2.948.982h-6.928v-6.094h7.912v5.11a.99.99 0 0 1-.984.984zM1.966 18.576h7.912v6.584H1.966v-6.584zm28.158 0h7.913v6.584h-7.913v-6.584zm0-1.966v-6.584h7.913l-.002 6.584h-7.91zm-1.966 0H11.794V1.966h16.364V16.61zm-18.33 0H1.966v-6.584h7.912l-.002 6.584h-.048zm1.966 1.966h16.364V33.22H11.794V18.576zm26.24-15.628v5.11l-7.91.002V1.966h6.93c.539 0 .98.443.98.982zM2.948 1.966h6.93v6.092l-7.912.002V2.948c0-.539.441-.982.982-.982zm-.982 30.272v-5.112h7.912v6.093l-6.93.001a.986.986 0 0 1-.982-.982z" fill="#202020"/></g></svg>