<svg xmlns="http://www.w3.org/2000/svg" width="25" height="15" viewBox="0 0 25 15">
  <path d="M18.948629,7.831277 L7.307237,19.272727 L-4.401863,7.760526 C-4.610955,7.55631 -4.727273,7.279942 -4.727273,6.991326 C-4.727273,6.701341 -4.610958,6.42497 -4.401863,6.220767 L-3.208231,5.047207 L-3.208231,5.045847 C-3.000522,4.841631 -2.719427,4.727273 -2.424493,4.727273 C-2.130934,4.727273 -1.849832,4.841635 -1.642137,5.045847 L7.307272,13.843371 L16.187556,5.116599 C16.619606,4.691814 17.321635,4.691814 17.753685,5.116599 L18.947318,6.290159 L18.948704,6.290159 C19.156413,6.494375 19.272727,6.772103 19.272727,7.060718 C19.272727,7.349333 19.156413,7.627075 18.948704,7.831277 L18.948629,7.831277 Z" transform="translate(5.227 -4.227)"/>
</svg>
