<svg width="18" height="18" viewBox="0 0 18 18" xmlns="http://www.w3.org/2000/svg"><g fill="none" fill-rule="evenodd"><path d="M-9-9h36v36H-9z"/><path d="M11.1869671 9.0007313l6.6321036-6.6336231c.241215-.2405136.241215-.6305716 0-.8710852L16.5043505.1805657C16.3886778.0648899 16.2320966 0 16.0684517 0c-.1636448 0-.3202116.0648899-.4358987.1805657L8.9997271 6.8134666 2.3669012.1805657c-.230634-.23134078-.6404416-.23134078-.8710756 0L.18038312 1.496023c-.24051083.2405136-.24051083.6305716 0 .8710852L6.8132094 9.0007313.18038312 15.6329099c-.24051083.2405136-.24051083.6305716 0 .8717894l1.31544248 1.314735C1.6107941 17.9351083 1.7680795 18 1.9317247 18c.1629298 0 .3202116-.0648917.4351946-.1805657l6.6328258-6.6329009 6.6328259 6.6329009c.1156727.115674.2722539.1805657.4358988.1805657.1636448 0 .3202116-.0648917.4358987-.1805657l1.3147202-1.314735c.2412151-.2412178.2412151-.6312758 0-.8717894l-6.6321216-6.6321786z" fill="#DD5C00"/></g></svg>
