<svg id="Layer_1" data-name="Layer 1" xmlns="http://www.w3.org/2000/svg" viewBox="0 0 477.84 58"><defs><style>.cls-1{fill:none;}.cls-2{fill:#749baf;}.cls-3{fill:#7ca1b4;}.cls-4{fill:#fff;}.cls-5{clip-path:url(#clip-path);}</style><clipPath id="clip-path"><path class="cls-1" d="M0 0h477.84v58H0z"/></clipPath></defs><path class="cls-2" d="M0 0h57.46v57.46H0zM60.13 0h57.46v57.46H60.13zM120.25 0h57.46v57.46h-57.46z"/><path class="cls-3" d="M180.37 0h57.46v57.46h-57.46z"/><path class="cls-4" d="M38.91 28.7c0-11.72-2.9-15.56-8.21-15.56-3.07 0-5.81.11-5.81.11v30.9s2.46.11 5.81.11c5.31 0 8.21-3.84 8.21-15.56zM14.09 46.45a.84.84 0 0 1-.82-.93.89.89 0 0 1 .82-1c.55 0 1.1.05 3.73.05V12.82c-2.63 0-3.17.05-3.73.05a.89.89 0 0 1-.82-1 .87.87 0 0 1 .82-.93 39.12 39.12 0 0 0 5.59.27h2.74c4.27 0 7.12-.16 9.59-.16 7.94 0 14.74 7.07 14.74 17.64s-6.8 17.7-14.75 17.7c-2.41 0-5.09-.22-9.59-.22h-2.73a39.12 39.12 0 0 0-5.59.27M86.95 29.69h2.9c4.11 0 5.53-2.08 5.53-8.32s-1.38-8.23-5.53-8.23h-2.9zm0 14.9c2.68 0 3.23-.05 3.78-.05a.92.92 0 0 1 .82 1 .87.87 0 0 1-.82.93 39.08 39.08 0 0 0-5.59-.27h-3.4a39 39 0 0 0-5.59.27.84.84 0 0 1-.82-.93.89.89 0 0 1 .82-1c.55 0 1.1.05 3.73.05V12.82c-2.63 0-3.18.05-3.73.05a.89.89 0 0 1-.82-1 .87.87 0 0 1 .82-.93 39 39 0 0 0 5.59.27h2.74c2.74-.05 3.56-.11 6.25-.11 7.94 0 12.21 4.05 12.21 10.25s-4.27 10.3-12.21 10.3h-3.78v12.94M155.23 44.26c4.1 0 5.48-2.63 5.48-7a.88.88 0 0 1 1.75 0c0 .55-.27 4.38-.27 6.63v1.7a.87.87 0 0 1-.83.93c-.49 0-2.19-.22-3.07-.22l-15.4-.11h-1.37a39.09 39.09 0 0 0-5.59.27.84.84 0 0 1-.82-.93.89.89 0 0 1 .82-1c.55 0 1.1.05 3.73.05V12.82c-2.63 0-3.18.05-3.73.05a.89.89 0 0 1-.82-1 .87.87 0 0 1 .82-.93 39.09 39.09 0 0 0 5.59.27h3.4a39.12 39.12 0 0 0 5.59-.27.91.91 0 0 1 .82.93.92.92 0 0 1-.82 1c-.55 0-1.1-.05-3.78-.05v31.44h8.49M207.1 20.82l-4.87 12.43h9.64zm-9.37 23.77h.39c2.63 0 2.84-.05 3.4-.05a.92.92 0 0 1 .82 1 .87.87 0 0 1-.82.93 27.26 27.26 0 0 0-4.66-.27h-.27a25.2 25.2 0 0 0-4.6.27.87.87 0 0 1-.82-.93.92.92 0 0 1 .82-1c.55 0 .71.05 3.23.05h.38l13.31-33.86c.22-.44.33-.6 1-.6a.83.83 0 0 1 .93.6l13 33.86c2.52 0 3-.05 3.56-.05a.89.89 0 0 1 .82 1 .84.84 0 0 1-.82.93 39.06 39.06 0 0 0-5.59-.27h-3.67a39 39 0 0 0-5.59.27.87.87 0 0 1-.82-.93.93.93 0 0 1 .82-1c.55 0 1.09.05 3.67.05l-3.56-9.37h-11.2l-3.73 9.37M266.25 23.75h4a5.39 5.39 0 0 0 3.24-1 5.92 5.92 0 0 0 2.08-3 14 14 0 0 0 .68-4.44 11.88 11.88 0 0 0-1.49-6.54 5 5 0 0 0-4.51-2.25h-4v17.23zm4-15.78a3.48 3.48 0 0 1 3.22 1.73 9.93 9.93 0 0 1 1 5 12.62 12.62 0 0 1-1 5.67 3.4 3.4 0 0 1-3.25 1.9h-2.31V8zm8.36 15.78h1.69V6.46h-1.7v17.29zM293 23.75h1V15.1h-4.86v1.46h3.17v2.06a4.53 4.53 0 0 1-.8 2.73 2.33 2.33 0 0 1-1.92 1.11q-1.57 0-2.58-2.07a11.3 11.3 0 0 1-1-5 11.15 11.15 0 0 1 1.21-5.62 3.63 3.63 0 0 1 3.22-2.07 4.88 4.88 0 0 1 3.22 1.6V7.23a5.86 5.86 0 0 0-3.19-1.06 5.2 5.2 0 0 0-4.46 2.49 11.46 11.46 0 0 0-1.71 6.61 16 16 0 0 0 .58 4.31 6.92 6.92 0 0 0 1.83 3.26 3.84 3.84 0 0 0 2.71 1.16 2.85 2.85 0 0 0 1.63-.5 4.51 4.51 0 0 0 1.32-1.48l.61 1.7zm4.19 0h1.69V6.46h-1.69v17.29zM302.41 7.92h4v15.83h1.65V7.92h4.07V6.46h-9.71v1.46zM311 23.75h1.84l1.47-6h4.59l1.47 6h1.88l-4.86-17.29h-1.66L311 23.75zm7.52-7.38h-3.87l1.92-7.81 2 7.81zM324.68 23.75h8.12v-1.46h-6.43V6.46h-1.69v17.29zm15.06 0h1.69v-7.86H344a5.6 5.6 0 0 0 3.88-1.31 4.67 4.67 0 0 0 1.47-3.67 4.17 4.17 0 0 0-1.29-3.33 5.23 5.23 0 0 0-3.55-1.12h-4.78v17.29zm4.75-15.8a3.13 3.13 0 0 1 2.29.81 3 3 0 0 1 .82 2.26 3.2 3.2 0 0 1-1 2.51 3.78 3.78 0 0 1-2.63.9h-2.56V7.95zM350.88 18.54a6.06 6.06 0 0 0 1.23 4 4.17 4.17 0 0 0 3.4 1.49 4.43 4.43 0 0 0 3.41-1.39 5.28 5.28 0 0 0 1.28-3.73V6.46h-1.69V18.9a4 4 0 0 1-.81 2.69 2.71 2.71 0 0 1-2.16.94 2.66 2.66 0 0 1-2.2-1 4.11 4.11 0 0 1-.79-2.65V6.46h-1.69v12.08zm12.48 5.21h4.91a5.53 5.53 0 0 0 2.92-.73 5.07 5.07 0 0 0 1.81-1.78 4.93 4.93 0 0 0 .61-2.51 4.06 4.06 0 0 0-1-3 4.74 4.74 0 0 0-3.07-1.23 4.89 4.89 0 0 0 2.18-1.62 4.12 4.12 0 0 0 .72-2.45 3.65 3.65 0 0 0-1.22-3 5 5 0 0 0-3.25-1h-4.59v17.32zm4.07-15.83a3.73 3.73 0 0 1 2.43.67 2.48 2.48 0 0 1 .81 2 3.12 3.12 0 0 1-1 2.49 4.05 4.05 0 0 1-2.75.87H365v-6zm-.18 7.51a6.36 6.36 0 0 1 3.48.75 2.72 2.72 0 0 1 1.13 2.44 3.5 3.5 0 0 1-1 2.67 4.17 4.17 0 0 1-3 1H365v-6.86zM375.12 23.75h8.12v-1.46h-6.43V6.46h-1.69v17.29zm9.24 0H386V6.46h-1.69v17.29zM399.08 20.92a4.94 4.94 0 0 1-3.16 1.56 3.26 3.26 0 0 1-2.94-2 10.81 10.81 0 0 1-1.07-5.09A11.77 11.77 0 0 1 393 9.71a3.36 3.36 0 0 1 3-2 4.71 4.71 0 0 1 3 1.52v-2a5.58 5.58 0 0 0-3-1.06 4.8 4.8 0 0 0-4.24 2.47 11.85 11.85 0 0 0-1.56 6.41 16 16 0 0 0 .61 4.49 6.85 6.85 0 0 0 1.93 3.28 4.51 4.51 0 0 0 3.08 1.18 6.35 6.35 0 0 0 3.26-1v-2zm8 2.83h8.12v-1.46h-6.4V6.46h-1.69v17.29zM416.35 23.75H418V6.46h-1.69v17.29zm6.48 0h4.91a5.53 5.53 0 0 0 2.92-.73 5.07 5.07 0 0 0 1.82-1.78 4.93 4.93 0 0 0 .61-2.51 4.06 4.06 0 0 0-1-3 4.74 4.74 0 0 0-3.09-1.2 4.89 4.89 0 0 0 2.18-1.62 4.12 4.12 0 0 0 .72-2.45 3.65 3.65 0 0 0-1.22-3 5 5 0 0 0-3.25-1h-4.59v17.29zm4.07-15.83a3.73 3.73 0 0 1 2.43.67 2.48 2.48 0 0 1 .81 2 3.12 3.12 0 0 1-1 2.49 4.05 4.05 0 0 1-2.75.87h-1.88v-6zm-.18 7.51a6.36 6.36 0 0 1 3.48.75 2.72 2.72 0 0 1 1.13 2.44 3.5 3.5 0 0 1-1 2.67 4.17 4.17 0 0 1-3 1h-2.79v-6.86zM434.6 23.75h1.65v-7.91h1.87a2.89 2.89 0 0 1 2.27.88 5.74 5.74 0 0 1 1.12 2.86l.68 4.16H444l-1-5.14a5.7 5.7 0 0 0-.91-2.31 3.26 3.26 0 0 0-1.85-1.11 5.21 5.21 0 0 0 2.68-1.77 4.55 4.55 0 0 0 .86-2.77 3.7 3.7 0 0 0-1.37-3.15 5.86 5.86 0 0 0-3.63-1h-4.18v17.26zM438.84 8a3.56 3.56 0 0 1 2.42.71 2.72 2.72 0 0 1 .81 2.15 3.3 3.3 0 0 1-1.13 2.63 4.38 4.38 0 0 1-3 1h-1.72V8zm5.64 15.78h1.84l1.47-6h4.59l1.47 6h1.88l-4.84-17.32h-1.66l-4.76 17.29zm7.52-7.41h-3.87L450 8.56l2 7.81zM458.21 23.75h1.65v-7.91h1.87a2.89 2.89 0 0 1 2.27.88 5.74 5.74 0 0 1 1.12 2.86l.68 4.16h1.8l-1-5.14a5.7 5.7 0 0 0-.91-2.31 3.26 3.26 0 0 0-1.85-1.11 5.21 5.21 0 0 0 2.68-1.77 4.55 4.55 0 0 0 .86-2.77A3.7 3.7 0 0 0 466 7.49a5.86 5.86 0 0 0-3.63-1h-4.16v17.26zM462.45 8a3.56 3.56 0 0 1 2.42.71 2.72 2.72 0 0 1 .81 2.15 3.3 3.3 0 0 1-1.13 2.63 4.38 4.38 0 0 1-3 1h-1.72V8z"/><path class="cls-5 cls-4" d="M472.18 15.83v7.92h1.69v-7.92l4.16-9.37h-1.93l-3.05 7.64-3.16-7.64h-1.96l4.25 9.37z"/><path class="cls-4" d="M267 36.68a12.48 12.48 0 0 0-1.52 6.64 11.37 11.37 0 0 0 1.57 6.44 4.72 4.72 0 0 0 8.16 0 11 11 0 0 0 1.6-6.28 12.56 12.56 0 0 0-1.55-6.79 4.66 4.66 0 0 0-4.05-2.42 4.72 4.72 0 0 0-4.2 2.45zm6.94.92a11 11 0 0 1 1.1 5.53 11.69 11.69 0 0 1-1 5.39 3.19 3.19 0 0 1-2.89 2 3.15 3.15 0 0 1-2.85-1.93 11 11 0 0 1-1-5.16 13.2 13.2 0 0 1 1-5.53 3.23 3.23 0 0 1 3.07-2.11A3.14 3.14 0 0 1 274 37.6zm4.66 14.21h1.69v-7.95h6v-1.4h-6V36h6.42v-1.48h-8.11v17.29zM292.46 51.81h1.84l1.47-6h4.59l1.47 6h1.88l-4.83-17.29h-1.66l-4.76 17.29zm7.54-7.38h-3.9l1.9-7.81 2 7.81zm6.2-9.92v17.3h1.6v-9.1q0-.62-.16-6.21 1 2.84 1.78 4.75l2.56 6.59L315 40a35.65 35.65 0 0 0 1.19-3.64v15.45h1.52V34.52h-2L311.95 44l-3.73-9.52zM320.17 51.81h8.4v-1.44h-6.72V43.5h6.35v-1.44h-6.35V36h6.72v-1.48h-8.4v17.29zm10.17 0H332V43.9h1.87a2.89 2.89 0 0 1 2.27.88 5.74 5.74 0 0 1 1.12 2.86l.68 4.16h1.8l-1-5.14a5.7 5.7 0 0 0-.91-2.31 3.26 3.26 0 0 0-1.85-1.11 5.21 5.21 0 0 0 2.68-1.77 4.55 4.55 0 0 0 .86-2.77 3.7 3.7 0 0 0-1.37-3.15 5.86 5.86 0 0 0-3.63-1h-4.16v17.26zM334.57 36a3.56 3.56 0 0 1 2.42.71 2.72 2.72 0 0 1 .81 2.15 3.3 3.3 0 0 1-1.13 2.63 4.38 4.38 0 0 1-3 1H332V36zM342.07 51.81h1.69V34.52h-1.69v17.29zM356.78 49a4.94 4.94 0 0 1-3.16 1.56 3.26 3.26 0 0 1-2.94-2 10.81 10.81 0 0 1-1.07-5.09 11.77 11.77 0 0 1 1.11-5.66 3.36 3.36 0 0 1 3-2 4.71 4.71 0 0 1 3 1.52v-2a5.58 5.58 0 0 0-3.11-1.05 4.8 4.8 0 0 0-4.24 2.47 11.85 11.85 0 0 0-1.56 6.41 16 16 0 0 0 .61 4.49 6.85 6.85 0 0 0 1.93 3.28 4.51 4.51 0 0 0 3.11 1.19 6.35 6.35 0 0 0 3.32-1.12v-2zM357.21 51.81h1.84l1.47-6h4.59l1.47 6h1.88l-4.83-17.29H362l-4.76 17.29zm7.52-7.38h-3.87l1.92-7.81 2 7.81z"/></svg>