<svg width="26" height="21" viewBox="0 0 26 21" xmlns="http://www.w3.org/2000/svg"><title>Menu Icon</title><g fill="none" fill-rule="evenodd"><path d="M-5-8h36v36H-5z"/><path d="M.25 0h25.5a.25.25 0 0 1 .25.25v2.389a.25.25 0 0 1-.25.25H.25a.25.25 0 0 1-.25-.25V.25A.25.25 0 0 1 .25 0zm0 8.667h25.5a.25.25 0 0 1 .25.25v2.389a.25.25 0 0 1-.25.25H.25a.25.25 0 0 1-.25-.25v-2.39a.25.25 0 0 1 .25-.25zm0 8.666h25.5a.25.25 0 0 1 .25.25v2.39a.25.25 0 0 1-.25.25H.25a.25.25 0 0 1-.25-.25v-2.39a.25.25 0 0 1 .25-.25z" fill="#ffffff"/></g></svg>
