<svg xmlns="http://www.w3.org/2000/svg" height="64.24" width="308.973" xml:space="preserve">
    <path style="fill:#1e6249;fill-opacity:1;fill-rule:nonzero;stroke:black;stroke-width:6" d="M1063.24 52.063c-5.44.949-10.97 1.574-16.44 2.43L858.637 334.913a3.75 3.75 0 0 1-6.227-4.18l184.35-274.757c-4.9.722-9.79 1.535-14.71 2.18l-184.8 273.109a7.476 7.476 0 0 1-10.41 2.007c-3.434-2.312-4.328-6.976-2.012-10.414L1002.28 60.606c-5.542.625-11.12 1.085-16.678 1.62L819.762 309.91c-1.164 1.727-3.485 2.188-5.199 1.024a3.728 3.728 0 0 1-1.032-5.2L975.953 63.168c-5.523.484-10.992 1.188-16.523 1.598L809.039 289.289c-12.18 18.18-7.309 42.789 10.871 54.973 18.18 12.172 42.789 7.301 54.969-10.871l3.184-4.762 3.675-5.484L1063.24 52.063zM900.52 67.745c-5.731.156-11.481.067-17.219.156L685.27 360.566l13.203 8.825L900.52 67.746zm-230.2 343.668-13.39-8.953-30.309 44.781a3.733 3.733 0 0 1-5.203 1.012 3.741 3.741 0 0 1-1.008-5.207L874.199 67.98c-4.648.04-9.289.126-13.929.118L605.242 443.602c-2.332 3.418-7.004 4.32-10.418 1.992a7.506 7.506 0 0 1-1.992-10.422L842.188 68.019c-4.344-.058-8.696-.214-13.047-.3L587.738 422.254a3.748 3.748 0 0 1-5.211.984c-1.711-1.168-2.156-3.5-.988-5.203l238.66-350.531c-7.148-.188-14.301-.238-21.449-.5L576.453 398.867c-13.058 19.492-7.84 45.887 11.652 58.946 19.489 13.054 45.887 7.839 58.946-11.653l3.418-5.105 3.929-5.883 15.922-23.758zm-194.297-74.101L663.301 57.617c-5.133-.496-10.133-1.172-15.238-1.687L450.527 346.457c-1.156 1.711-3.507 2.172-5.211.992a3.76 3.76 0 0 1-.992-5.215L639.625 54.992c-4.383-.46-8.711-.976-13.078-1.457L429.137 342.81c-2.328 3.429-7.004 4.285-10.422 1.972-3.422-2.332-4.301-7-1.969-10.426L609.664 51.66c-4-.445-8.023-.867-12.012-1.324L411.637 321.46a3.751 3.751 0 0 1-5.215.969 3.746 3.746 0 0 1-.969-5.207l183.75-267.829c-6.855-.808-13.844-1.453-20.668-2.292L398.066 301.008c-13.054 19.492-7.839 45.883 11.661 58.949 19.492 13.055 45.878 7.828 58.941-11.66l3.418-5.106 3.937-5.878zM1223.92.003c-40.11 22.517-52.13 27.438-99.5 39.298-13.65 3.418-27.41 6.402-41.25 9.16L893.801 331.23l-3.668 5.493-3.961 5.91c-16.641 24.847-50.281 31.5-75.121 14.855a53.347 53.347 0 0 1-6.949-5.547v.02l-.141-.152c-.07-.063-17.731-16.946-45.707-43.676l-46.832 69.922 38.797 25.941-28.242 11.539.125 30.5-38.832-25.961-15.922 23.77-3.95 5.883-4.226 6.343c-17.863 26.645-53.934 33.774-80.559 15.93a57.93 57.93 0 0 1-7.461-5.953v.023l-.144-.16c-.117-.113-42.067-40.199-100.695-96.234-19.293 16.648-47.895 19.328-70.086 4.457a57.643 57.643 0 0 1-7.469-5.949l.012.027-.149-.156c-.219-.211-143.23-136.864-270.719-258.793 0 0-21.652-21.067-9.191-46.516 0 0 2.094-3.953 5.141-7.031C84.285 63.46 46.168 72.415 0 82.355c388.629-169.94 599.473-19.863 1000.59-43.347 91.03-5.332 138.08-15.656 223.33-39.004" transform="matrix(.13333 0 0 -.13333 0 64.24)"/>
    <path style="fill:#fff;fill-opacity:1;fill-rule:nonzero;stroke:black;stroke-width:2"
          d="m2169.32 162.07 29.6 93.102h.8l29.6-93.102h-60zm130-87.398-78.4 243.582-28.4-3.801-77.2-239.781-16-6.074c-2-5.325-3.2-11.41-3.6-16.34h58.4c2 4.93 3.2 10.633 3.2 16.34l-16 6.074 20.4 64.226h75.2l20.4-64.226-16.4-6.074c-2-6.086-3.2-11.782-3.2-16.34h76c2.4 4.93 3.6 10.633 3.6 16.34l-18 6.074zm-346.4-1.516c-20.4 0-30 4.942-30 29.641V291.27h23.6c56.4 0 89.6-44.457 89.6-107.157 0-62.324-30.4-110.957-79.2-110.957h-4zm-95.2-20.898h99.6c77.2 0 126.4 57.375 126.4 131.855 0 65.742-39.6 130.34-135.6 130.34h-33.6c-11.2 0-45.2-.762-56-2.277-2-5.324-3.2-12.539-3.2-18.625 15.2-.375 26-5.317 26-25.84V113.809c0-18.993.8-27.735 2.8-38.758l-24-6.836c-1.6-4.942-2.8-12.54-2.4-15.957zm-322 0h71.6c2.4 5.312 3.2 13.672 3.2 18.613-16 1.145-24.8 11.785-24 31.926l8 175.18h2l64-208.239 12.4 3.418 62.8 204.821h2.4l8-163.786c.8-22.422 2-33.054 4.4-38.757l-24.4-7.22c-1.6-4.94-2.4-11.777-2.4-15.956h86.8c2.4 5.312 3.2 13.672 3.2 18.613-16.4.383-25.2 6.465-26 26.98l-6 163.024c-.8 14.059-1.6 22.801-2.8 30.777l20.8 6.84c2 4.942 2.4 9.504 2.4 15.961h-80l-49.6-162.265-48 162.265h-80.4c-2.4-5.32-3.2-14.062-3.2-18.621 15.2-.383 25.6-5.699 24.8-26.223l-7.2-155.8c-.4-9.493 0-24.696 2.8-38.758l-22.8-6.836c-2-4.942-2.8-11.028-2.8-15.957zm-29.59 124.637h-87.2c-2-6.082-3.6-14.442-3.2-18.622 19.6-.382 30-8.742 30-25.46V92.148c-13.6-12.156-31.2-18.613-51.2-18.613-45.6 0-78 45.598-78 109.817 0 64.98 32 113.621 74.4 113.621 21.6 0 40.4-9.879 54.8-27.739l5.6-29.261c17.6-4.563 30.8 6.84 30.8 27.363 0 14.82-4.8 32.301-14.4 50.918l-25.6-14.82c-14.4 9.879-32 14.82-51.2 14.82-72.4 0-122-56.238-122-137.559 0-78.664 48.4-132.246 121.6-132.246 35.2 0 68.8 17.102 85.2 42.942l4 62.703 24.4 6.836c1.6 4.941 2.4 11.406 2 15.965"
          transform="matrix(.13333 0 0 -.13333 0 64.24)"/>
    <path style="fill:#fff;fill-opacity:1;fill-rule:nonzero;stroke:none"
          d="M620.41 443.043a3.75 3.75 0 0 0 1.012 5.211 3.735 3.735 0 0 0 5.203-1.012l30.305-44.785 13.39 8.957-15.922 23.758-3.929 5.883-3.418 5.105c-13.059 19.492-39.453 24.707-58.946 11.653-19.492-13.059-24.71-39.458-11.652-58.946L798.75 67.004c7.148.262 14.301.312 21.449.5l-238.66 350.523a3.75 3.75 0 0 0 .988 5.211c1.711 1.164 4.051.727 5.211-.984L829.141 67.719c4.351.086 8.703.242 13.047.3L592.832 435.168a7.512 7.512 0 0 0 1.992 10.426c3.414 2.324 8.086 1.426 10.418-2L860.27 68.098c4.652.007 9.281-.079 13.929-.118L620.41 443.043zm-214.957-125.82c-1.172 1.699-.734 4.035.973 5.207a3.747 3.747 0 0 0 5.211-.973L597.656 50.336c3.985.457 8.008.879 12.008 1.336l-192.918 282.68a7.51 7.51 0 0 0 1.969 10.429c3.418 2.313 8.094 1.449 10.426-1.972L626.547 53.535c4.367.48 8.695.996 13.078 1.457L444.324 342.234a3.76 3.76 0 0 0 .992 5.215c1.704 1.18 4.055.719 5.211-.996L648.063 55.93c5.105.515 10.105 1.191 15.238 1.687l-187.27 279.696-3.945 5.878-3.418 5.106c-13.059 19.488-39.449 24.715-58.941 11.656-19.497-13.062-24.715-39.453-11.661-58.945L568.535 47.102c6.824.84 13.813 1.484 20.668 2.292l-183.75 267.829zm293.02 52.168-13.203-8.825L883.301 67.902c5.738-.09 11.488 0 17.219-.156L698.473 369.391zm110.566-80.106L959.43 64.765c5.531-.41 11-1.113 16.523-1.597L813.531 305.734a3.728 3.728 0 0 0 1.032 5.2c1.714 1.164 4.035.699 5.199-1.032l165.84-247.675c5.558-.536 11.136-.997 16.678-1.622L824.828 322.86c-2.316 3.434-1.422 8.094 2.012 10.414 3.418 2.325 8.094 1.43 10.41-2.007l184.8-273.11c4.92-.644 9.81-1.457 14.71-2.18L852.41 330.73a3.763 3.763 0 0 0 1.02 5.204 3.747 3.747 0 0 0 5.207-1.02L1046.8 54.492c5.47-.855 11-1.48 16.44-2.43L881.738 323.145l-3.675 5.484-3.184 4.758c-12.18 18.176-36.789 23.047-54.969 10.875-18.18-12.184-23.051-36.793-10.871-54.977"
          transform="matrix(.13333 0 0 -.13333 0 64.24)"/>
</svg>