<svg width="43" height="36" viewBox="0 0 43 36" xmlns="http://www.w3.org/2000/svg"><title>Icon/Image</title><g fill="none" fill-rule="evenodd"><path d="M-9-12h60v60H-9z"/><g fill="#000"><path d="M42.055 0H.948A.947.947 0 0 0 0 .945v34.11c0 .523.427.945.948.945h41.1a.947.947 0 0 0 .949-.945L43 .942A.944.944 0 0 0 42.055 0zm-.951 1.89v25.003l-8.956-7.273-9.25 6.142L10.47 12.445l-8.562 8.807L1.904 1.89h39.2zM1.9 34.11V23.968l8.538-8.776 12.168 13.038 9.428-6.258 9.073 7.364v4.785L1.9 34.114v-.003z"/><path d="M25.002 17A6.006 6.006 0 0 0 31 10.998 6.005 6.005 0 0 0 25.002 5 6.006 6.006 0 0 0 19 10.998 6.008 6.008 0 0 0 25.002 17zm0-10.058A4.062 4.062 0 0 1 29.058 11a4.063 4.063 0 0 1-4.056 4.06 4.064 4.064 0 0 1-4.06-4.06 4.067 4.067 0 0 1 4.06-4.057z"/></g></g></svg>