<svg width="40" height="36" viewBox="0 0 40 36" xmlns="http://www.w3.org/2000/svg"><title>Icon/Text</title><g fill="none" fill-rule="evenodd"><path d="M-10-12h60v60h-60z"/><path d="M18.25 33.205c.556 0 1 .457 1 1.022a1.01 1.01 0 0 1-1 1.023h-4.5c-.556 0-1-.458-1-1.023a1.01 1.01 0 0 1 1-1.022H15V2.795H2.75v1.296a1.01 1.01 0 0 1-1 1.023c-.556 0-1-.458-1-1.023V1.773a1.01 1.01 0 0 1 1-1.023h28.5c.556 0 1 .458 1 1.023V4.35a1.01 1.01 0 0 1-1 1.023c-.556 0-1-.457-1-1.023V2.795H17v30.41h1.25zm3.583-18.237c0 .553-.468.992-1.041.992-.574 0-1.042-.439-1.042-.992v-2.226c0-.553.468-.992 1.042-.992h17.416c.574 0 1.042.439 1.042.992v2.475c0 .553-.468.992-1.042.992-.573 0-1.041-.439-1.041-.992v-1.483h-6.625v19.532h1.333c.574 0 1.042.439 1.042.992 0 .553-.468.992-1.042.992h-4.75c-.574 0-1.042-.439-1.042-.992 0-.553.468-.992 1.042-.992h1.333V13.734h-6.625v1.234z" fill="#000" fill-rule="nonzero"/></g></svg>