<svg width="749" height="90" viewBox="0 0 749 90" xmlns="http://www.w3.org/2000/svg"><g fill-rule="nonzero" fill="#FFF"><path d="M0 0h89.9686848v89.9686848H0V0zm22.0615866 72.7296451v-.0156576c2.9037022-.3496973 5.8287218-.4909773 8.7526096-.4227558h4.2745303c7.045929 0 11.2421712.3444677 15.0156576.3444677 12.447808 0 23.0949896-11.1638831 23.0949896-27.7139875 0-16.5501044-10.6471816-27.6200418-23.0793319-27.6200418-3.8674322 0-8.3298539.250522-15.0156577.250522h-4.2901879c-2.9238878.0682215-5.8489074-.0730585-8.7526096-.4227558-.3643947.0200665-.7054993.1855093-.9468586.4592461-.2413594.2737368-.362787.6328733-.3370662.9969126-.0483016.3799973.0619474.7631218.3048347 1.0593257.2428872.296204.596993.4793659.9790901.5064363.8768268 0 1.7223382-.0782881 5.8402923-.0782881v49.7129436c-4.1179541 0-4.9791232-.0782881-5.8402923-.0782881-.3820971.0270704-.7362029.2102323-.9790901.5064363-.2428873.2962039-.3531363.6793284-.3048347 1.0593257-.0396236.3671274.0769082.7340013.3211197 1.0109729.2442115.2769716.5936058.438526.9628051.4451858zm38.862213-27.7922756c0 18.3507307-4.5407098 24.3632568-12.8549061 24.3632568-5.2453027 0-9.0970772-.1722338-9.0970772-.1722338V20.7463466s4.2901879-.1722339 9.0970772-.1722339c8.3141963 0 12.8549061 6.0125261 12.8549061 24.3632568zM94.1492693 0h89.9686847v89.9686848H94.1492693V0zm41.9937367 69.8173278V49.5563674h5.918581c12.43215 0 19.117954-6.4196242 19.117954-16.1273486s-6.685804-16.0490606-19.117954-16.0490606c-4.2119 0-5.495825.0939458-9.786013.1722339h-4.290188c-2.923896.0688672-5.848961-.072415-8.752609-.4227558-.364395.0200665-.7055.1855093-.946859.4592461s-.362787.6328733-.337066.9969126c-.048302.3799973.061947.7631218.304834 1.0593257.242888.296204.596994.4793659.979091.5064363.861169 0 1.722338-.0782881 5.840292-.0782881v49.7442589c-4.117954 0-4.979123-.0782881-5.840292-.0782881-.382097.0270704-.736203.2102323-.979091.5064362-.242887.296204-.353136.6793285-.304834 1.0593258-.039624.3671273.076908.7340013.321119 1.0109729.244212.2769716.593606.4385259.962806.4451857 2.903648-.3503407 5.828713-.4916229 8.752609-.4227557h5.323591c2.923891-.0684363 5.848926.0728444 8.75261.4227557.364394-.0200664.705499-.1855092.946858-.459246.24136-.2737368.362787-.6328733.337066-.9969126.072903-.7854196-.49944-1.4833995-1.283924-1.565762-.861169 0-1.722339.0782881-5.918581.0782881zm0-23.3298539V20.5741127h4.54071c6.497912 0 8.658664 3.1158664 8.658664 12.8862213 0 9.7703549-2.223382 13.0271399-8.658664 13.0271399h-4.54071zM188.282881 0h89.968685v89.9686848h-89.968685V0zm54.770355 69.3006263h-13.308977V20.0730689c4.196242 0 5.057411.0782881 5.91858.0782881.784484-.0823625 1.356828-.7803425 1.283925-1.565762.020059-.7469597-.540333-1.3825262-1.283925-1.4561587-2.903702.3496973-5.828721.4909773-8.752609.4227558h-5.323591c-2.92389.0683825-5.848921-.072898-8.75261-.4227558-.364394.0200665-.705499.1855093-.946858.4592461-.24136.2737368-.362787.6328733-.337067.9969126-.048301.3799973.061948.7631218.304835 1.0593257.242887.296204.596993.4793659.97909.5064363.861169 0 1.722338-.0782881 5.840293-.0782881v49.7286012c-4.117955 0-4.979124-.0782881-5.840293-.0782881-.382097.0270704-.736203.2102323-.97909.5064363-.242887.296204-.353136.6793284-.304835 1.0593258-.039623.3671273.076909.7340013.32112 1.0109729.244212.2769716.593606.4385259.962805.4451857 2.903689-.3498577 5.82872-.4911383 8.75261-.4227557h2.145094l24.112735.1722338c1.37787 0 4.039666.3444676 4.806889.3444676.367174-.0159983.712305-.1796823.957023-.4538836.244717-.2742013.368254-.6356517.342559-1.002275v-2.6617954c0-3.5229645.422756-9.519833.422756-10.3810021-.074961-.7002014-.665839-1.2311979-1.370042-1.2311979-.704202 0-1.29508.5309965-1.370041 1.2311979 0 6.8423799-2.160752 10.960334-8.580376 10.960334zM282.416493 0h89.968684v89.9686848h-89.968684V0zm27.181628 69.8173278l5.840292-14.67119h17.536535l5.574113 14.67119c-4.039666 0-4.885178-.0782881-5.746347-.0782881-.780201.0902592-1.348245.7829952-1.283925 1.565762-.025721.3640393.095707.7231758.337066.9969126.24136.2737368.582464.4391796.946859.459246 2.903648-.3503407 5.828714-.4916229 8.75261-.4227557h5.746346c2.923892-.0685439 5.848935.0727372 8.75261.4227557.369199-.0066598.718593-.1682141.962805-.4451857.244211-.2769716.360743-.6438456.32112-1.0109729.048301-.3799973-.061948-.7631218-.304835-1.0593258-.242887-.2962039-.596993-.4793658-.97909-.5064362-.876827 0-1.628393.0782881-5.574113.0782881l-20.354906-53.0167015c-.175303-.6382951-.802352-1.042843-1.456159-.9394572-1.04906 0-1.221294.2505219-1.565762.9394572l-20.840292 53.0167015h-.59499c-3.94572 0-4.196242-.0782881-5.057411-.0782881-.784484.0823625-1.356827.7803424-1.283925 1.565762-.02572.3640393.095707.7231758.337066.9969126.24136.2737368.582464.4391796.946859.459246 2.382886-.3605844 4.793798-.5020944 7.202505-.4227557h.422756c2.439764-.067956 4.880861.073481 7.296451.4227557.364395-.0200664.705499-.1855092.946859-.459246.241359-.2737368.362787-.6328733.337066-.9969126.072903-.7854196-.499441-1.4833995-1.283925-1.565762-.876827 0-1.205637.0782881-5.323591.0782881h-.610647zm14.67119-37.2181629l7.468685 19.4624217H316.64405l7.625261-19.4624217zM416.884134 37.1868476h6.263048c1.815432.0374261 3.594523-.511676 5.073069-1.565762 1.553303-1.1835995 2.693106-2.8275468 3.256784-4.697286.726763-2.2449186 1.086295-4.5924542 1.064719-6.9519833.222098-3.5665959-.587852-7.1216797-2.332986-10.2400835-1.546555-2.3615726-4.244718-3.7076629-7.061586-3.5229645h-6.263048v26.9780793zm6.263048-24.7077244c2.057669-.1234465 4.008845.9248562 5.041753 2.7087682 1.194456 2.4288322 1.734171 5.127405 1.565762 7.8288101.169114 3.0404045-.36675 6.0787579-1.565762 8.8778705-.942372 1.9259316-2.948165 3.098549-5.088726 2.9749478h-3.61691V12.526096l3.663883-.0469728zm13.08977 24.7077244h2.646138V10.1148225h-2.661796v27.0720251h.015658zM458.768267 37.1868476h1.565762V23.6430063h-7.609603v2.2860125h4.963465v3.2254697c.052298 1.5223836-.386903 3.0211589-1.252609 4.2745303-.644444 1.0496745-1.775036 1.7032977-3.006263 1.7379958-1.638831 0-2.985386-1.0803758-4.039666-3.2411273-1.111574-2.4562262-1.647128-5.1339961-1.565762-7.8288101-.148488-3.0483723.504749-6.0824122 1.894572-8.7995824.92809-1.9507088 2.881793-3.2066605 5.041753-3.2411274 1.938186.1629378 3.741281 1.0588854 5.041754 2.5052192v-3.2411273c-1.467118-1.0291418-3.203497-1.6061206-4.994781-1.65970773-2.849647-.01203733-5.498206 1.46664213-6.983298 3.89874743-1.923309 3.0977291-2.857253 6.7078856-2.677453 10.3496868-.005829 2.2803255.299706 4.5507708.908142 6.7484342.468715 1.9321227 1.460008 3.6980329 2.865344 5.1043842 1.116441 1.1458315 2.6435 1.7994803 4.243215 1.8162839.910686.0055826 1.801279-.2676053 2.552192-.782881.852335-.6095306 1.558336-1.4011077 2.066806-2.3173278l.955115 2.6617954.031315.0469729zm6.560543 0h2.646138V10.1148225h-2.646138v27.0720251zM473.502088 12.4008351h6.263048v24.7860125h2.583507V12.4008351h6.372651v-2.2860126h-15.203549v2.2860126h-.015657zm13.449895 24.7860125h2.881002l2.301671-9.394572h7.186847l2.30167 9.394572h2.943633l-7.609603-27.0720251h-2.599165l-7.406055 27.0720251zm11.774531-11.5553236h-6.059499l3.006263-12.2286012 3.131524 12.2286012h-.078288zM508.371608 37.1868476h12.713987v-2.2860125h-10.06785V10.1148225h-2.646137v27.0720251zm23.580375 0h2.646138V24.8799582h4.024008c2.211387.1078018 4.381691-.6249554 6.075157-2.0511482 1.580146-1.4802124 2.423047-3.5845975 2.30167-5.7463465.142635-1.9529444-.598768-3.8668006-2.019833-5.2139875-1.575047-1.246461-3.55327-1.87057645-5.558455-1.7536535h-7.484342v27.0720251h.015657zm7.43737-24.7390397c1.317195-.0771563 2.609856.3800733 3.585595 1.2682673.902562.9489789 1.367964 2.2316725 1.283925 3.5386221.083836 1.4769284-.489268 2.9154173-1.565762 3.9300626-1.143846.9757074-2.616143 1.4795354-4.117954 1.4091858h-4.008351V12.4478079h4.822547zM549.394572 29.0292276c-.122118 2.2501396.560579 4.4702919 1.925887 6.263048 1.311453 1.5681818 3.281686 2.4316071 5.323591 2.3329854 2.011241.0836462 3.959619-.7105607 5.339249-2.1764092 1.397267-1.6148598 2.11547-3.7077486 2.004175-5.8402923v-19.493737h-2.646138v19.4780794c.100386 1.5111289-.350179 3.0074489-1.268267 4.2118998-.844016.9805477-2.08927 1.5224638-3.382046 1.4718163-1.332724.0598829-2.613482-.5222797-3.444676-1.5657621-.879186-1.1987059-1.316255-2.6648253-1.236952-4.1492693V10.1148225h-2.646138v18.9144051h.031315zm19.54071 8.15762h7.687891c1.600376.0490468 3.18301-.3466117 4.572025-1.1430063 1.165739-.6736552 2.140987-1.6327382 2.83403-2.7870563.662003-1.2018508.991692-2.5584373.955114-3.9300627.134364-1.7130255-.430455-3.4074838-1.565762-4.697286-1.319109-1.1982554-3.025337-1.8818583-4.806889-1.9258872 1.35448-.5062317 2.537921-1.3856693 3.413361-2.5365345.772576-1.1270391 1.167326-2.4702868 1.127349-3.8361169.130771-1.7780028-.575681-3.5151798-1.91023-4.697286-1.46123-1.1003902-3.261652-1.65436604-5.088726-1.565762h-7.186848v27.1189979h-.031315zm6.372651-24.7860125c1.351577-.1024296 2.696698.2684472 3.804802 1.0490605.878512.7955863 1.345576 1.9488304 1.268267 3.131524.092116 1.469108-.483114 2.9014321-1.565762 3.8987474-1.219478.967094-2.752029 1.4519373-4.305845 1.362213h-3.006263v-9.3945721l3.804801-.0469728zm-.281837 11.7588726c1.891038-.1352206 3.781383.2721812 5.448852 1.1743215 1.222023.8725379 1.89427 2.3241142 1.769311 3.8204593.095042 1.5525897-.474183 3.0724223-1.565762 4.1805846-1.299463 1.1183941-2.98668 1.6807997-4.697286 1.565762h-4.478079V24.1597077h3.522964zM587.348643 37.1868476h12.713987v-2.2860125h-10.067849V10.1148225h-2.646138v27.0720251zm14.467641 0h2.56785V10.1148225h-2.646138v27.0720251h.078288zM624.864301 32.7557411c-1.292892 1.3947899-3.054334 2.2643626-4.947808 2.4425888-2.018766-.0414661-3.823343-1.2690693-4.603341-3.1315241-1.198765-2.4806302-1.773866-5.216392-1.675365-7.9697286-.179661-3.0603166.406942-6.1171103 1.706681-8.8935281.8257-1.8666842 2.656616-3.0872947 4.697286-3.131524 1.805289.1882382 3.477754 1.0356202 4.697286 2.3799582v-3.131524c-1.371509-.997377-3.003633-1.57406067-4.697286-1.65970773-2.754461-.02486765-5.301828 1.45909413-6.638831 3.86743213-1.747808 3.0468593-2.594832 6.5272602-2.442589 10.0365345-.016753 2.3768677.304843 4.744024.955115 7.0302714.501995 1.96297 1.549743 3.7435985 3.021921 5.1356993 1.316577 1.2026732 3.039412 1.8627204 4.822546 1.8475992 1.812395-.0467754 3.577502-.5882193 5.104385-1.565762V32.7557411zm12.526096 4.4311065h12.713987v-2.2860125h-10.020877V10.1148225h-2.646137v27.0720251h-.046973zM651.90501 37.1868476h2.583508V10.1148225h-2.646138v27.0720251h.06263zm10.146138 0h7.687892c1.600375.0490468 3.183009-.3466117 4.572025-1.1430063 1.171471-.6715378 2.152285-1.6307958 2.849687-2.7870563.662003-1.2018508.991692-2.5584373.955114-3.9300627.134364-1.7130255-.430455-3.4074838-1.565762-4.697286-1.334039-1.1881895-3.051896-1.8553186-4.838204-1.8789144 1.35448-.5062317 2.53792-1.3856692 3.413361-2.5365344.772575-1.1270392 1.167326-2.4702868 1.127349-3.8361169.130771-1.7780028-.575681-3.5151799-1.91023-4.697286-1.46123-1.1003902-3.261652-1.6543661-5.088727-1.5657621h-7.186847v27.0720251h-.015658zm6.372652-24.7860125c1.351576-.1024296 2.696697.2684472 3.804801 1.0490605.878512.7955863 1.345576 1.9488304 1.268267 3.131524.092117 1.469108-.483114 2.9014321-1.565762 3.8987474-1.219478.967094-2.752028 1.4519373-4.305845 1.362213h-2.943633v-9.3945721l3.742172-.0469728zm-.281838 11.7588726c1.891039-.1352206 3.781383.2721812 5.448852 1.1743215 1.222023.8725379 1.89427 2.3241142 1.769311 3.8204593.095043 1.5525897-.474183 3.0724223-1.565762 4.1805846-1.299462 1.1183941-2.986679 1.6807997-4.697286 1.565762h-4.368476V24.1597077h3.413361zM680.480167 37.1868476h2.583507V24.8016701h2.927975c1.329855-.0864999 2.63022.4176064 3.55428 1.3778706.980484 1.3056782 1.586741 2.8537996 1.753653 4.4780793l1.064719 6.51357h2.834029l-1.565762-8.0480167c-.203416-1.2956854-.689903-2.5306136-1.424844-3.6169103-.740313-.8913004-1.761835-1.5042139-2.896659-1.7379958 1.655693-.458858 3.124241-1.4287575 4.196242-2.7713987.909964-1.2601183 1.382852-2.7832576 1.346555-4.3371608.137695-1.8964536-.66399-3.7397455-2.145094-4.9321503-1.670748-1.1329414-3.668487-1.6832827-5.683716-1.565762h-6.544885v27.0250522zm6.638831-24.6607516c1.356387-.1042301 2.704069.2911642 3.789144 1.1116911.899185.8797506 1.363436 2.1120209 1.268267 3.3663883.067244 1.5703091-.583919 3.0858496-1.769311 4.117954-1.316148 1.088657-2.991174 1.6469991-4.697286 1.565762h-2.693111V12.526096h4.102297zm8.830898 24.7077245h2.881002l2.30167-9.3945721h7.186847l2.301671 9.3945721h2.943632l-7.578288-27.118998h-2.599165l-7.453027 27.0720251.015658.0469729zm11.77453-11.6022965h-6.059499l2.927975-12.2286012 3.131524 12.2286012zM717.447808 37.1868476h2.583507V24.8016701h2.927975c1.329855-.0864999 2.63022.4176064 3.55428 1.3778706.980484 1.3056782 1.586741 2.8537996 1.753653 4.4780793l1.064719 6.51357h2.818371l-1.565762-8.0480167c-.203416-1.2956854-.689902-2.5306136-1.424843-3.6169103-.740313-.8913004-1.761836-1.5042139-2.89666-1.7379958 1.655693-.458858 3.124242-1.4287575 4.196242-2.7713987.909964-1.2601183 1.382852-2.7832576 1.346556-4.3371608.133971-1.8992273-.673796-3.7430436-2.160752-4.9321503-1.670749-1.1329414-3.668488-1.6832827-5.683716-1.565762h-6.51357v27.0250522zm6.638831-24.6607516c1.356387-.1042301 2.704069.2911642 3.789144 1.1116911.899185.8797506 1.363435 2.1120209 1.268267 3.3663883.067244 1.5703091-.583919 3.0858496-1.769311 4.117954-1.316148 1.088657-2.991174 1.6469991-4.697286 1.565762h-2.693111V12.526096h4.102297zM739.321503 24.7860125v12.4008351h2.646138V24.7860125l6.51357-14.67119h-3.021921l-4.775574 11.9624218-4.947808-11.9624218h-3.068893l6.654488 14.67119M418.058455 57.4321503c-1.742042 3.1778144-2.566058 6.7774635-2.379958 10.3966597-.200285 3.5307227.655505 7.0411001 2.458246 10.0835073 1.323258 2.2749567 3.756497 3.6745561 6.388309 3.6745561 2.631813 0 5.065052-1.3995994 6.388309-3.6745561 1.803545-2.9517234 2.676512-6.3781186 2.505219-9.8329854.209394-3.7017644-.631932-7.3873159-2.426931-10.631524-1.271002-2.3188166-3.69711-3.7684909-6.341336-3.789144-2.732745-.0356003-5.262055 1.4398304-6.5762 3.8361169l-.015658-.0626305zm10.866388 1.4405011c1.31663 2.6875661 1.910244 5.6718232 1.722339 8.6586638.154389 2.8974927-.382287 5.790177-1.565762 8.4394572-.745489 1.8555492-2.525831 3.0876191-4.525053 3.1315241-1.954972-.0337356-3.705436-1.2191376-4.462421-3.0219207-1.167115-2.5270204-1.704372-5.2992642-1.565762-8.079332-.105633-2.965151.428388-5.9182879 1.565762-8.6586638.741904-2.007367 2.666975-3.3304613 4.806889-3.3037579 1.786323.1242866 3.363816 1.209938 4.117954 2.8340293h-.093946zm7.296451 22.249478h2.646138V68.6743215h9.394572v-2.1920668h-9.394572V56.3674322h10.052192v-2.3173278h-12.69833v27.072025zM457.922756 81.1221294h2.881002l2.30167-9.394572h7.186848l2.30167 9.394572h2.943632l-7.56263-27.072025h-2.599165l-7.453027 27.072025zm11.805845-11.5553236h-6.106472l2.974948-12.2286012 3.131524 12.2286012zm9.707725-15.532359v27.0876826h2.505219V66.8736952c0-.6471816-.083507-3.888309-.250522-9.723382 1.043841 2.9645093 1.97286 5.4436325 2.787056 7.4373695l4.008351 10.3183716 4.728601-12.2755741c.72275-1.865036 1.344733-3.7675715 1.863257-5.6993737v24.1910229h2.379958v-27.072025h-3.131524l-5.887265 14.8434238-5.840292-14.9060543-3.162839.0469729zM501.310021 81.1221294h13.152401v-2.2546972h-10.521921v-10.756785h9.942589v-2.2546973h-9.942589v-9.4885177h10.521921v-2.3173278h-13.152401v27.072025zm15.923799 0h2.599165V68.736952h2.927975c1.329855-.0865 2.63022.4176063 3.55428 1.3778705.980484 1.3056782 1.586741 2.8537996 1.753654 4.4780794l1.064718 6.5135699h2.818371l-1.565762-8.0480167c-.203415-1.2956854-.689902-2.5306136-1.424843-3.6169102-.740313-.8913004-1.761836-1.504214-2.89666-1.7379958 1.655693-.4588581 3.124242-1.4287576 4.196242-2.7713988.909964-1.2601183 1.382852-2.7832575 1.346556-4.3371607.137695-1.8964537-.663991-3.7397456-2.145094-4.9321504-1.670749-1.1329414-3.668488-1.6832827-5.683716-1.565762h-6.51357v27.0250522h-.031316zm6.623174-24.7546972c1.356387-.1042302 2.704069.2911641 3.789144 1.111691.899185.8797506 1.363435 2.1120209 1.268267 3.3663883.067244 1.5703091-.58392 3.0858496-1.769311 4.1179541-1.316148 1.088657-2.991174 1.646999-4.697286 1.565762h-2.614823V56.3674322h4.024009zM535.600209 81.1221294h2.646138v-27.072025h-2.646138v27.072025zm23.032359-4.3997912c-1.292892 1.3947898-3.054334 2.2643626-4.947808 2.4425887-2.018766-.041466-3.823342-1.2690692-4.60334-3.131524-1.198766-2.4806303-1.773867-5.216392-1.675366-7.9697286-.164649-3.0524964.432616-6.0980084 1.737996-8.8622129.8257-1.8666841 2.656616-3.0872946 4.697286-3.131524 1.805289.1882382 3.477754 1.0356202 4.697286 2.3799582v-3.131524c-1.421629-1.0238407-3.118225-1.5966467-4.86952-1.6440501-2.75446-.0248676-5.301827 1.4590941-6.638831 3.8674322-1.747807 3.0468592-2.594832 6.5272602-2.442588 10.0365344-.016753 2.3768677.304842 4.744024.955114 7.0302714.501996 1.96297 1.549744 3.7435985 3.021921 5.1356994 1.326067 1.2195087 3.068094 1.8860723 4.86952 1.8632568 1.86295-.0854635 3.664309-.6931508 5.19833-1.7536535v-3.131524zM559.305846 81.1221294h2.881002l2.30167-9.394572h7.186847l2.30167 9.394572h2.943633l-7.56263-27.072025h-2.552192l-7.453028 27.072025h-.046972zm11.77453-11.5553236h-6.059499l3.006263-12.2286012 3.131524 12.2286012h-.078288z"/></g></svg>