<svg width="30" height="30" viewBox="0 0 30 30" xmlns="http://www.w3.org/2000/svg"><g fill="none" fill-rule="evenodd"><path d="M-3-3h36v36H-3z"/><g fill="#000"><path d="M22.4169 19.023l4.9476-4.9464c1.52814-1.52814 2.36952-3.5589 2.36952-5.7198 0-2.1609-.84141-4.1931-2.36952-5.7198C25.83636 1.10886 23.8056.26748 21.6447.26748c-2.16093 0-4.1931.84141-5.7198 2.36952l-4.9464 4.9464 2.12109 2.12109 4.9476-4.9464c.96093-.96093 2.23944-1.49064 3.5988-1.49064 1.35936 0 2.6379.52968 3.5988 1.49064.96093.96093 1.49064 2.23944 1.49064 3.5988 0 1.35936-.52968 2.6379-1.49064 3.5988l-4.9476 4.9464L22.4169 19.023zM8.3565 29.7293999c2.07186 0 4.1427-.7886699 5.7198-2.3648402l4.9464-4.9475997-2.12109-2.12109-4.9476 4.9476c-1.98399 1.9839897-5.2137 1.9839897-7.1976 0-1.9839-1.98399-1.98399-5.2137 0-7.1976l4.9464-4.9464-2.12109-2.12109-4.9476 4.9464c-3.1536 3.1548-3.1536 8.2863 0 11.4411 1.57851 1.57617 3.6504 2.3636699 5.7222 2.3636699l.00018-.00015z"/><path d="M19.8069 8.0706L8.0718 19.8057l2.12109 2.12109 11.7351-11.7351"/></g></g></svg>