<svg xmlns="http://www.w3.org/2000/svg" width="176" height="33" viewBox="0 0 176 33">
  <g fill="none">
    <circle cx="15.43" cy="16.46" r="13.81" fill="#FFF"/>
    <polygon fill="#414042" points="37.56 1.21 44.77 1.21 44.77 3.62 40.2 3.62 40.2 6.83 44.2 6.83 44.2 9.29 40.2 9.29 40.2 12.62 44.85 12.62 44.85 15.08 37.56 15.08 37.56 1.22"/>
    <path fill="#414042" d="M46.43 10.32L46.43 1.21 49.08 1.21 49.08 10.46C49.08 12.06 49.77 12.82 50.84 12.82 51.91 12.82 52.6 12.09 52.6 10.48L52.6 1.21 55.23 1.21 55.23 10.3C55.23 13.69 53.45 15.3 50.81 15.3 48.17 15.3 46.43 13.62 46.43 10.32zM60.58 8.38L60.58 7.92C60.58 3.54 62.64.99 65.58.99 68.52.99 70.58 3.54 70.58 7.9L70.58 8.36C70.58 12.72 68.52 15.29 65.58 15.29 62.64 15.29 60.58 12.74 60.58 8.38zM67.95 8.28L67.95 8.02C67.95 4.89 66.95 3.43 65.61 3.43 64.27 3.43 63.29 4.88 63.29 8L63.29 8.26C63.29 11.39 64.29 12.85 65.63 12.85 66.97 12.85 67.95 11.41 67.95 8.28L67.95 8.28zM72.43 1.21L76.35 1.21C77.6244973 1.14025796 78.8739498 1.58314744 79.82 2.44 80.6264296 3.32362073 81.0412112 4.49582945 80.97 5.69L80.97 5.81C81.0714518 7.40936845 80.2473667 8.92537393 78.85 9.71L81.29 15.08 78.29 15.08 76.21 10.39 75.04 10.39 75.04 15.08 72.43 15.08 72.43 1.22 72.43 1.21zM76.13 8.02C76.727492 8.07731179 77.3191337 7.86324243 77.7416211 7.43687904 78.1641084 7.01051566 78.3727658 6.41694367 78.31 5.82 78.3694919 5.21472449 78.1503334 4.61526581 77.7144788 4.19108595 77.2786243 3.7669061 76.6734376 3.56410027 76.07 3.64L75.07 3.64 75.07 8.02 76.07 8.02 76.13 8.02zM82.67 1.21L86.12 1.21C89.01 1.21 90.91 2.83 90.91 5.92L90.91 5.92C90.91 9.09 88.91 10.63 86.2 10.75L85.33 10.75 85.33 15.03 82.68 15.03 82.68 1.17 82.67 1.21zM86.02 8.38C86.6456175 8.4208167 87.2567516 8.17997343 87.6863186 7.72331664 88.1158856 7.26665985 88.3189522 6.64195641 88.24 6.02 88.24 4.5 87.55 3.64 86.04 3.64L85.33 3.64 85.33 8.37 86.02 8.37 86.02 8.38z"/>
    <polygon fill="#414042" points="92.37 1.21 95.02 1.21 95.02 6.85 98.43 6.85 98.43 1.21 101.08 1.21 101.08 15.07 98.43 15.07 98.43 9.35 95.04 9.35 95.04 15.07 92.39 15.07 92.39 1.21"/>
    <path fill="#414042" d="M106.16,1.15 L108.83,1.15 L112.69,15.07 L109.98,15.07 L109.23,12.18 L105.67,12.18 L104.94,15.07 L102.33,15.07 L106.16,1.15 Z M108.6,9.82 L107.47,5.27 L106.3,9.82 L108.6,9.82 L108.6,9.82 Z"/>
    <polygon fill="#414042" points="113.94 1.21 116.43 1.21 120.37 8.77 120.37 1.21 122.96 1.21 122.96 15.07 120.66 15.07 116.56 7.19 116.56 15.07 113.97 15.07 113.97 1.21"/>
    <polygon fill="#414042" points="36.75 18.29 39.52 18.29 41.22 27.12 43.12 18.27 45.5 18.27 47.4 27.12 49.1 18.29 51.81 18.29 48.74 32.21 46.15 32.21 44.27 23.68 42.39 32.21 39.82 32.21"/>
    <path fill="#414042" d="M52.37 25.46L52.37 25C52.37 20.62 54.43 18.07 57.37 18.07 60.31 18.07 62.37 20.62 62.37 24.98L62.37 25.44C62.37 29.8 60.31 32.37 57.37 32.37 54.43 32.37 52.37 29.82 52.37 25.46zM59.74 25.36L59.74 25.1C59.74 21.97 58.74 20.51 57.4 20.51 56.06 20.51 55.08 21.96 55.08 25.08L55.08 25.34C55.08 28.47 56.08 29.93 57.42 29.93 58.76 29.93 59.73 28.49 59.73 25.36L59.74 25.36zM64.2 18.29L68.12 18.29C69.3944973 18.220258 70.6439498 18.6631474 71.59 19.52 72.3964296 20.4036207 72.8112112 21.5758295 72.74 22.77L72.74 22.89C72.8414518 24.4893684 72.0173667 26.0053739 70.62 26.79L73.06 32.16 70.06 32.16 67.98 27.47 66.81 27.47 66.81 32.16 64.16 32.16 64.16 18.3 64.2 18.29zM67.9 25.1C68.497492 25.1573118 69.0891337 24.9432424 69.5116211 24.516879 69.9341084 24.0905157 70.1427658 23.4969437 70.08 22.9 70.1394919 22.2947245 69.9203334 21.6952658 69.4844788 21.271086 69.0486243 20.8469061 68.4434376 20.6441003 67.84 20.72L66.84 20.72 66.84 25.1 67.84 25.1 67.9 25.1z"/>
    <polygon fill="#414042" points="74.43 18.29 77.08 18.29 77.08 24.19 80.39 18.29 83.48 18.29 79.92 24.15 83.6 32.15 80.6 32.15 78.07 26.66 77.14 28.22 77.14 32.14 74.43 32.14 74.43 18.28"/>
    <path fill="#414042" d="M15.5,1.22 C6.93958638,1.22 0,8.15958638 0,16.72 L0,32.22 L15.5,32.22 C24.0604136,32.22 31,25.2804136 31,16.72 L31,1.22 L15.5,1.22 Z M15.5,29.39 C8.50255222,29.39 2.83,23.7174478 2.83,16.72 C2.83,9.72255222 8.50255222,4.05 15.5,4.05 C22.4974478,4.05 28.17,9.72255222 28.17,16.72 C28.17,20.0802929 26.8351288,23.302957 24.4590429,25.6790429 C22.082957,28.0551288 18.8602929,29.39 15.5,29.39 Z"/>
    <path fill="#414042" d="M12.08,20.47 C12.950631,21.3646035 14.1518404,21.8602833 15.4,21.84 C17.1119947,21.8733833 18.7365322,21.0852782 19.77,19.72 L22.09,22.11 C20.53822,23.9509879 18.2977971,25.0730148 15.8941181,25.2129615 C13.4904391,25.3529082 11.1349425,24.4984643 9.38,22.85 C6.12293682,19.5130288 6.12293682,14.1869712 9.38,10.85 C10.9874941,9.25377671 13.1751642,8.38015268 15.44,8.43 C18.0096812,8.37728436 20.4679516,9.47800243 22.14,11.43 L19.89,13.99 C18.8859423,12.6352959 17.2961979,11.8404237 15.61,11.85 C14.3137266,11.8260002 13.0588126,12.3064529 12.11,13.19 C11.1261826,14.122065 10.5968605,15.436244 10.66,16.79 C10.5993754,18.1610256 11.11414,19.4950636 12.08,20.47 L12.08,20.47 Z"/>
  </g>
</svg>
