<svg xmlns="http://www.w3.org/2000/svg" width="176" height="33" viewBox="0 0 176 33">
  <g fill="none">
    <circle cx="15.43" cy="16.7" r="13.81" fill="#FFF"/>
    <path fill="#414042" d="M37.43,10.33 L37.43,1.22 L40.08,1.22 L40.08,10.47 C40.08,12.07 40.77,12.83 41.84,12.83 C42.91,12.83 43.6,12.1 43.6,10.49 L43.6,1.22 L46.23,1.22 L46.23,10.31 C46.23,13.7 44.45,15.31 41.81,15.31 C39.17,15.31 37.43,13.67 37.43,10.33 Z"/>
    <polygon fill="#414042" points="48.29 1.22 50.74 1.22 54.68 8.78 54.68 1.22 57.27 1.22 57.27 15.1 54.97 15.1 50.87 7.22 50.87 15.1 48.28 15.1 48.28 1.24"/>
    <polygon fill="#414042" points="59.43 1.22 62.08 1.22 62.08 7.12 65.39 1.22 68.43 1.22 64.87 7.08 68.55 15.08 65.55 15.08 63.02 9.59 62.09 11.15 62.09 15.1 59.43 15.1 59.43 1.24"/>
    <polygon fill="#414042" points="69.78 1.22 72.23 1.22 76.17 8.78 76.17 1.22 78.76 1.22 78.76 15.1 76.43 15.1 72.33 7.22 72.33 15.1 69.74 15.1 69.74 1.24"/>
    <path fill="#414042" d="M80.53,8.38 L80.53,7.92 C80.53,3.54 82.59,0.99 85.53,0.99 C88.47,0.99 90.53,3.54 90.53,7.9 L90.53,8.36 C90.53,12.72 88.47,15.29 85.53,15.29 C82.59,15.29 80.53,12.74 80.53,8.38 Z M87.9,8.28 L87.9,8.02 C87.9,4.89 86.9,3.43 85.56,3.43 C84.22,3.43 83.24,4.88 83.24,8 L83.24,8.26 C83.24,11.39 84.24,12.85 85.58,12.85 C86.92,12.85 87.9,11.41 87.9,8.29 L87.9,8.28 Z"/>
    <polygon fill="#414042" points="91.14 1.22 93.91 1.22 95.61 10.05 97.51 1.2 99.89 1.2 101.79 10.05 103.49 1.22 106.2 1.22 103.13 15.14 100.54 15.14 98.66 6.61 96.78 15.14 94.21 15.14"/>
    <polygon fill="#414042" points="107.55 1.22 110.01 1.22 113.95 8.78 113.95 1.22 116.54 1.22 116.54 15.1 114.24 15.1 110.14 7.22 110.14 15.1 107.55 15.1 107.55 1.24"/>
    <path fill="#414042" d="M37.56,18.3 L41.48,18.3 C42.7510985,18.2329651 43.9964379,18.6756724 44.94,19.53 C45.7464296,20.4136207 46.1612112,21.5858295 46.09,22.78 L46.09,22.9 C46.1914518,24.4993684 45.3673667,26.0153739 43.97,26.8 L46.41,32.17 L43.41,32.17 L41.33,27.48 L40.16,27.48 L40.16,32.17 L37.51,32.17 L37.51,18.3 L37.56,18.3 Z M41.26,25.11 C41.857492,25.1673118 42.4491337,24.9532424 42.8716211,24.526879 C43.2941084,24.1005157 43.5027658,23.5069437 43.44,22.91 C43.4994919,22.3047245 43.2803334,21.7052658 42.8444788,21.281086 C42.4086243,20.8569061 41.8034376,20.6541003 41.2,20.73 L40.2,20.73 L40.2,25.1 L41.2,25.1 L41.26,25.11 Z"/>
    <polygon fill="#414042" points="47.89 18.3 50.52 18.3 50.52 32.16 47.89 32.16"/>
    <path fill="#414042" d="M52.37,25.39 L52.37,25.1 C52.37,20.82 54.71,18.17 57.97,18.17 C59.2639053,18.1623449 60.5159146,18.6282916 61.49,19.48 L60.03,21.66 C59.5471109,21.0435079 58.8129271,20.676416 58.03,20.66 C56.33,20.66 55.12,22.3 55.12,25.08 L55.12,25.36 C55.12,28.57 56.49,29.89 58.05,29.89 C58.4449758,29.8998283 58.8353094,29.8031084 59.18,29.61 L59.18,26.61 L57.3,26.61 L57.3,24.27 L61.66,24.27 L61.66,31.1 C60.5445053,31.8598929 59.2296312,32.2738348 57.88,32.29 C54.76,32.32 52.37,30 52.37,25.39 Z"/>
    <polygon fill="#414042" points="63.53 18.3 66.18 18.3 66.18 23.94 69.57 23.94 69.57 18.3 72.22 18.3 72.22 32.16 69.57 32.16 69.57 26.44 66.18 26.44 66.18 32.16 63.53 32.16"/>
    <polygon fill="#414042" points="76.36 20.79 73.73 20.79 73.73 18.3 81.65 18.3 81.65 20.79 79.02 20.79 79.02 32.16 76.37 32.16 76.37 20.79"/>
    <path fill="#414042" d="M81.96,30.46 L83.54,28.4 C84.199861,29.2111182 85.1511003,29.7316076 86.19,29.85 C86.5886751,29.8838345 86.983124,29.7479071 87.2763207,29.4756531 C87.5695174,29.203399 87.7342508,28.8200856 87.73,28.42 C87.73,27.81 87.41,27.33 85.85,26.42 C83.75,25.17 82.52,24.08 82.52,22.14 L82.52,22.14 C82.4992458,21.0479467 82.9421238,19.9982232 83.7388423,19.2510614 C84.5355607,18.5038996 85.6115258,18.1292535 86.7,18.22 C88.1124474,18.2221968 89.4629897,18.7999689 90.44,19.82 L88.82,21.82 C88.2691307,21.1317124 87.4587097,20.7011762 86.58,20.63 C86.2318364,20.5906418 85.8831377,20.6992162 85.618861,20.9292701 C85.3545843,21.1593239 85.1989946,21.4897343 85.19,21.84 C85.19,22.49 85.51,22.97 87.43,24.16 C89.35,25.35 90.43,26.44 90.43,28.28 L90.43,28.28 C90.431107,29.3728023 89.9850614,30.4184773 89.1955205,31.1740189 C88.4059795,31.9295605 87.3416958,32.3291767 86.25,32.28 C84.6313181,32.285348 83.0810438,31.6276559 81.96,30.46 L81.96,30.46 Z"/>
    <polygon fill="#414042" points="91.89 18.3 94.54 18.3 94.54 23.94 97.93 23.94 97.93 18.3 100.58 18.3 100.58 32.16 97.93 32.16 97.93 26.44 94.54 26.44 94.54 32.16 91.89 32.16"/>
    <path fill="#414042" d="M102.34,25.47 L102.34,25.01 C102.34,20.63 104.4,18.08 107.34,18.08 C110.28,18.08 112.34,20.63 112.34,24.99 L112.34,25.45 C112.34,29.81 110.28,32.38 107.34,32.38 C104.4,32.38 102.34,29.82 102.34,25.47 Z M109.71,25.37 L109.71,25.1 C109.71,21.97 108.71,20.51 107.37,20.51 C106.03,20.51 105.05,21.96 105.05,25.08 L105.05,25.34 C105.05,28.47 106.05,29.93 107.39,29.93 C108.73,29.93 109.71,28.5 109.71,25.37 Z"/>
    <polygon fill="#414042" points="114.18 18.3 116.83 18.3 116.83 29.69 120.99 29.69 120.99 32.17 114.18 32.17 114.18 18.3"/>
    <path fill="#414042" d="M122.43,18.3 L125.86,18.3 C129.48,18.3 131.64,20.81 131.64,25.07 L131.64,25.39 C131.64,29.63 129.48,32.16 125.86,32.16 L122.43,32.16 L122.43,18.3 Z M125.08,20.72 L125.08,29.72 L125.81,29.72 C127.65,29.72 128.9,28.39 128.9,25.3 L128.9,25.1 C128.9,22.01 127.65,20.68 125.81,20.68 L125.08,20.68 L125.08,20.72 Z"/>
    <polygon fill="#414042" points="133.43 18.3 140.64 18.3 140.64 20.76 136.07 20.76 136.07 23.97 140.07 23.97 140.07 26.43 136.07 26.43 136.07 29.72 140.72 29.72 140.72 32.18 133.43 32.18"/>
    <path fill="#414042" d="M142.43 18.3L146.35 18.3C147.621099 18.2329651 148.866438 18.6756724 149.81 19.53 150.61643 20.4136207 151.031211 21.5858295 150.96 22.78L150.96 22.9C151.061452 24.4993684 150.237367 26.0153739 148.84 26.8L151.28 32.17 148.28 32.17 146.2 27.48 145.03 27.48 145.03 32.17 142.43 32.17 142.43 18.3zM146.13 25.11C146.727492 25.1673118 147.319134 24.9532424 147.741621 24.526879 148.164108 24.1005157 148.372766 23.5069437 148.31 22.91 148.369492 22.3047245 148.150333 21.7052658 147.714479 21.281086 147.278624 20.8569061 146.673438 20.6541003 146.07 20.73L145.07 20.73 145.07 25.1 146.07 25.1 146.13 25.11zM15.5 1.22C6.93958638 1.22 0 8.15958638 0 16.72L0 32.22 15.5 32.22C24.0604136 32.22 31 25.2804136 31 16.72L31 1.22 15.5 1.22zM15.5 29.39C8.50255222 29.39 2.83 23.7174478 2.83 16.72 2.83 9.72255222 8.50255222 4.05 15.5 4.05 22.4974478 4.05 28.17 9.72255222 28.17 16.72 28.17 20.0802929 26.8351288 23.302957 24.4590429 25.6790429 22.082957 28.0551288 18.8602929 29.39 15.5 29.39z"/>
    <path fill="#414042" d="M12.08,20.47 C12.950631,21.3646035 14.1518404,21.8602833 15.4,21.84 C17.1119947,21.8733833 18.7365322,21.0852782 19.77,19.72 L22.09,22.11 C20.53822,23.9509879 18.2977971,25.0730148 15.8941181,25.2129615 C13.4904391,25.3529082 11.1349425,24.4984643 9.38,22.85 C6.12293682,19.5130288 6.12293682,14.1869712 9.38,10.85 C10.9874941,9.25377671 13.1751642,8.38015268 15.44,8.43 C18.0096812,8.37728436 20.4679516,9.47800243 22.14,11.43 L19.89,13.99 C18.8859423,12.6352959 17.2961979,11.8404237 15.61,11.85 C14.3137266,11.8260002 13.0588126,12.3064529 12.11,13.19 C11.1261826,14.122065 10.5968605,15.436244 10.66,16.79 C10.5993754,18.1610256 11.11414,19.4950636 12.08,20.47 L12.08,20.47 Z"/>
  </g>
</svg>
