<svg xmlns="http://www.w3.org/2000/svg" width="176" height="33" viewBox="0 0 176 33">
  <g fill="none">
    <circle cx="15.13" cy="15.82" r="13.81" fill="#FFF"/>
    <polygon fill="#414042" points="37.56 .22 40.01 .22 43.95 7.78 43.95 .22 46.54 .22 46.54 14.12 44.24 14.12 40.14 6.24 40.14 14.12 37.55 14.12 37.55 .22"/>
    <path fill="#414042" d="M48.31,7.39 L48.31,6.93 C48.31,2.55 50.37,0 53.31,0 C56.25,0 58.31,2.55 58.31,6.91 L58.31,7.37 C58.31,11.73 56.25,14.3 53.31,14.3 C50.37,14.3 48.31,11.74 48.31,7.39 Z M55.68,7.29 L55.68,7.03 C55.68,3.9 54.68,2.44 53.34,2.44 C52,2.44 51.02,3.89 51.02,7.01 L51.02,7.27 C51.02,10.4 52.02,11.86 53.36,11.86 C54.7,11.86 55.68,10.42 55.68,7.29 Z"/>
    <polygon fill="#414042" points="63.79 .22 66.43 .22 66.43 6.12 69.74 .22 72.83 .22 69.27 6.08 72.95 14.08 69.95 14.08 67.42 8.59 66.43 10.12 66.43 14.12 63.78 14.12 63.78 .22"/>
    <polygon fill="#414042" points="74.16 .22 76.62 .22 80.56 7.78 80.56 .22 83.15 .22 83.15 14.12 80.85 14.12 76.75 6.24 76.75 14.12 74.16 14.12"/>
    <path fill="#414042" d="M84.91,7.39 L84.91,6.93 C84.91,2.55 86.97,0 89.91,0 C92.85,0 94.91,2.55 94.91,6.91 L94.91,7.37 C94.91,11.73 92.85,14.3 89.91,14.3 C86.97,14.3 84.91,11.74 84.91,7.39 Z M92.28,7.29 L92.28,7.03 C92.28,3.9 91.28,2.44 89.94,2.44 C88.6,2.44 87.62,3.89 87.62,7.01 L87.62,7.27 C87.62,10.4 88.62,11.86 89.96,11.86 C91.3,11.86 92.27,10.42 92.27,7.29 L92.28,7.29 Z"/>
    <polygon fill="#414042" points="95.52 .22 98.29 .22 99.99 9.05 101.89 .2 104.27 .2 106.17 9.05 107.87 .22 110.58 .22 107.51 14.14 104.92 14.14 103.04 5.61 101.16 14.14 98.59 14.14"/>
    <polygon fill="#414042" points="111.93 .22 114.43 .22 118.37 7.78 118.37 .22 120.96 .22 120.96 14.12 118.66 14.12 114.56 6.24 114.56 14.12 111.97 14.12 111.97 .22"/>
    <path fill="#414042" d="M37.19 24.46L37.19 24.12C37.19 19.61 39.41 17.19 42.4 17.19 43.6426297 17.1624609 44.8410812 17.6512553 45.71 18.54L44.2 20.66C43.7428056 20.118213 43.0869256 19.7830656 42.38 19.73 41.01 19.73 39.9 21.25 39.9 24.22L39.9 24.32C39.9 27.49 41.09 28.83 42.34 28.83 43.1188635 28.797501 43.8466827 28.4335915 44.34 27.83L45.75 29.89C44.8400841 30.8393211 43.5849388 31.380332 42.27 31.39 39.15 31.39 37.19 28.98 37.19 24.46zM46.33 24.54L46.33 24.12C46.33 19.74 48.39 17.19 51.33 17.19 54.27 17.19 56.33 19.74 56.33 24.1L56.33 24.56C56.33 28.92 54.27 31.49 51.33 31.49 48.39 31.49 46.33 28.9 46.33 24.54zM53.7 24.44L53.7 24.18C53.7 21.05 52.7 19.59 51.36 19.59 50.02 19.59 49.04 21.04 49.04 24.16L49.04 24.42C49.04 27.55 50.04 29.01 51.38 29.01 52.72 29.01 53.7 27.57 53.7 24.44zM58.17 17.37L61.62 17.37C64.51 17.37 66.41 18.99 66.41 22.08L66.41 22.08C66.41 25.25 64.41 26.79 61.7 26.91L60.83 26.91 60.83 31.19 58.18 31.19 58.18 17.33 58.17 17.37zM61.52 24.54C62.1456175 24.5808167 62.7567516 24.3399734 63.1863186 23.8833166 63.6158856 23.4266598 63.8189522 22.8019564 63.74 22.18 63.74 20.66 63.05 19.8 61.54 19.8L60.83 19.8 60.83 24.53 61.52 24.53 61.52 24.54z"/>
    <polygon fill="#414042" points="70.28 25.77 66.68 17.37 69.57 17.37 71.63 22.7 73.71 17.37 76.52 17.37 72.94 25.75 72.94 31.24 70.29 31.24 70.29 25.77"/>
    <path fill="#414042" d="M77.68,17.37 L81.6,17.37 C82.8710985,17.3029651 84.1164379,17.7456724 85.06,18.6 C85.8664296,19.4836207 86.2812112,20.6558295 86.21,21.85 L86.21,21.97 C86.3114518,23.5693684 85.4873667,25.0853739 84.09,25.87 L86.53,31.24 L83.53,31.24 L81.45,26.55 L80.28,26.55 L80.28,31.24 L77.63,31.24 L77.63,17.38 L77.68,17.37 Z M81.38,24.18 C81.977492,24.2373118 82.5691337,24.0232424 82.9916211,23.596879 C83.4141084,23.1705157 83.6227658,22.5769437 83.56,21.98 C83.6194919,21.3747245 83.4003334,20.7752658 82.9644788,20.351086 C82.5286243,19.9269061 81.9234376,19.7241003 81.32,19.8 L80.32,19.8 L80.32,24.18 L81.32,24.18 L81.38,24.18 Z"/>
    <polygon fill="#414042" points="88.02 17.37 90.65 17.37 90.65 31.23 88.02 31.23"/>
    <path fill="#414042" d="M92.49,24.46 L92.49,24.12 C92.49,19.84 94.83,17.19 98.09,17.19 C99.3839053,17.1823449 100.635915,17.6482916 101.61,18.5 L100.15,20.68 C99.6671109,20.0635079 98.9329271,19.696416 98.15,19.68 C96.45,19.68 95.24,21.32 95.24,24.1 L95.24,24.38 C95.24,27.59 96.61,28.91 98.17,28.91 C98.5649758,28.9198283 98.9553094,28.8231084 99.3,28.63 L99.3,25.63 L97.42,25.63 L97.42,23.29 L101.78,23.29 L101.78,30.16 C100.664505,30.9198929 99.3496312,31.3338348 98,31.35 C94.88,31.39 92.49,29.12 92.49,24.46 Z"/>
    <polygon fill="#414042" points="103.65 17.37 106.3 17.37 106.3 23.01 109.69 23.01 109.69 17.37 112.34 17.37 112.34 31.23 109.69 31.23 109.69 25.51 106.3 25.51 106.3 31.23 103.65 31.23"/>
    <polygon fill="#414042" points="116.43 19.87 113.8 19.87 113.8 17.38 121.72 17.38 121.72 19.87 119.09 19.87 119.09 31.24 116.43 31.24"/>
    <path fill="#414042" d="M31,0.23 L31,15.73 C31,24.2904136 24.0604136,31.23 15.5,31.23 L0,31.23 L0,15.73 C0,7.16958638 6.93958638,0.23 15.5,0.23 L31,0.23 Z M2.83,15.73 C2.83,22.7274478 8.50255222,28.4 15.5,28.4 C22.4974478,28.4 28.17,22.7274478 28.17,15.73 C28.17,8.73255222 22.4974478,3.06 15.5,3.06 C8.50255222,3.06 2.83,8.73255222 2.83,15.73 Z"/>
    <path fill="#414042" d="M20.6 11.99C20.6291732 12.4721851 20.5470567 12.95462 20.36 13.4 20.21 13.7 20.1 13.91 20.03 14.05 19.9099186 14.2656815 19.7656549 14.4669795 19.6 14.65L19.14 15.16 18.07 16.21C17.806946 16.4407136 17.5809673 16.7105388 17.4 17.01 17.2658872 17.3252896 17.2109567 17.6686054 17.24 18.01L17.24 19.42 13.66 19.42 13.66 17.66C13.6349958 17.1673682 13.7204111 16.675376 13.91 16.22 14.1877253 15.743558 14.5236376 15.3035129 14.91 14.91L16.5 13.27C16.7447592 12.9648853 16.8692703 12.5806799 16.85 12.19 16.8660835 11.7825365 16.7307132 11.3835503 16.47 11.07 16.2287022 10.7675617 15.8563862 10.6000195 15.47 10.62 15.0703568 10.6237113 14.6974318 10.8213615 14.47 11.15 14.1677344 11.560303 13.9937521 12.0509333 13.97 12.56L10.23 12.56C10.3220156 11.1582649 10.9356472 9.84181102 11.95 8.87 12.9434449 7.96785746 14.2487417 7.48733609 15.59 7.53 16.8911267 7.470257 18.1677255 7.89816721 19.17 8.73 20.1145637 9.54492096 20.6401586 10.7431303 20.6 11.99zM16.97 20.93C16.1645419 20.1282536 14.8619525 20.130259 14.058967 20.9344818 13.2559814 21.7387045 13.2559814 23.0412955 14.058967 23.8455182 14.8619525 24.649741 16.1645419 24.6517464 16.97 23.85 17.768019 23.0402371 17.768019 21.7397629 16.97 20.93L16.97 20.93z"/>
  </g>
</svg>
