<svg xmlns="http://www.w3.org/2000/svg" width="176" height="33" viewBox="0 0 176 33">
  <g fill="none">
    <circle cx="15.24" cy="15.82" r="13.81" fill="#FFF"/>
    <polygon fill="#414042" points="37.56 .22 40.01 .22 43.95 7.78 43.95 .22 46.54 .22 46.54 14.12 44.24 14.12 40.14 6.24 40.14 14.12 37.55 14.12 37.55 .22"/>
    <path fill="#414042" d="M48.31,7.39 L48.31,6.93 C48.31,2.55 50.37,0 53.31,0 C56.25,0 58.31,2.55 58.31,6.91 L58.31,7.37 C58.31,11.73 56.25,14.3 53.31,14.3 C50.37,14.3 48.31,11.74 48.31,7.39 Z M55.68,7.29 L55.68,7.03 C55.68,3.9 54.68,2.44 53.34,2.44 C52,2.44 51.02,3.89 51.02,7.01 L51.02,7.27 C51.02,10.4 52.02,11.86 53.36,11.86 C54.7,11.86 55.67,10.42 55.67,7.29 L55.68,7.29 Z"/>
    <polygon fill="#414042" points="60.14 .22 62.59 .22 66.53 7.78 66.53 .22 69.12 .22 69.12 14.12 66.83 14.12 62.73 6.24 62.73 14.12 60.14 14.12 60.14 .22"/>
    <polygon fill="#414042" points="71.05 6.65 76.54 6.65 76.54 9.22 71.05 9.22"/>
    <path fill="#414042" d="M78.08 7.31L78.08 6.99C78.08 2.48 80.3.06 83.29.06 84.5326297.0324608867 85.7310812.521255291 86.6 1.41L85.09 3.53C84.6328056 2.98821304 83.9769256 2.65306558 83.27 2.6 81.9 2.6 80.79 4.12 80.79 7.09L80.79 7.19C80.79 10.36 81.98 11.71 83.23 11.71 84.0088635 11.677501 84.7366827 11.3135915 85.23 10.71L86.64 12.77C85.7300841 13.7193211 84.4749388 14.260332 83.16 14.27 80.04 14.24 78.08 11.82 78.08 7.31zM87.22 7.39L87.22 6.93C87.22 2.55 89.28 0 92.22 0 95.16 0 97.22 2.55 97.22 6.91L97.22 7.37C97.22 11.73 95.16 14.3 92.22 14.3 89.28 14.3 87.22 11.74 87.22 7.39zM94.59 7.29L94.59 7.03C94.59 3.9 93.59 2.44 92.25 2.44 90.91 2.44 89.93 3.89 89.93 7.01L89.93 7.27C89.93 10.4 90.93 11.86 92.27 11.86 93.61 11.86 94.59 10.42 94.59 7.29z"/>
    <polygon fill="#414042" points="99.06 .22 101.77 .22 104.21 5.59 106.63 .22 109.36 .22 109.36 14.12 106.77 14.12 106.77 5.49 104.22 10.99 104.22 10.99 101.67 5.52 101.67 14.12 99.12 14.12 99.12 .22"/>
    <polygon fill="#414042" points="111.47 .22 114.18 .22 116.62 5.59 119.04 .22 121.77 .22 121.77 14.12 119.18 14.12 119.18 5.49 116.63 10.99 116.63 10.99 114.08 5.52 114.08 14.12 111.53 14.12 111.53 .22"/>
    <polygon fill="#414042" points="123.83 .22 131.04 .22 131.04 2.68 126.47 2.68 126.47 5.89 130.47 5.89 130.47 8.35 126.47 8.35 126.47 11.64 131.12 11.64 131.12 14.12 123.83 14.12"/>
    <path fill="#414042" d="M132.9.22L136.83.22C138.101099.152965093 139.346438.595672433 140.29 1.45 141.09643 2.33362073 141.511211 3.50582945 141.44 4.7L141.44 4.82C141.541452 6.41936845 140.717367 7.93537393 139.32 8.72L141.76 14.09 138.76 14.09 136.68 9.4 135.51 9.4 135.51 14.12 132.86 14.12 132.86.22 132.9.22zM136.6 7.03C137.197492 7.08731179 137.789134 6.87324243 138.211621 6.44687904 138.634108 6.02051566 138.842766 5.42694367 138.78 4.83 138.839492 4.22472449 138.620333 3.62526581 138.184479 3.20108595 137.748624 2.7769061 137.143438 2.57410027 136.54 2.65L135.54 2.65 135.54 7.03 136.54 7.03 136.6 7.03zM142.83 7.31L142.83 6.99C142.83 2.48 145.05.06 148.04.06 149.28263.0324608867 150.481081.521255291 151.35 1.41L149.84 3.53C149.382806 2.98821304 148.726926 2.65306558 148.02 2.6 146.65 2.6 145.54 4.12 145.54 7.09L145.54 7.19C145.54 10.36 146.73 11.71 147.98 11.71 148.758864 11.677501 149.486683 11.3135915 149.98 10.71L151.39 12.77C150.477672 13.7218033 149.218417 14.2630303 147.9 14.27 144.74 14.24 142.83 11.82 142.83 7.31z"/>
    <polygon fill="#414042" points="152.83 .22 155.46 .22 155.46 14.12 152.83 14.12"/>
    <path fill="#414042" d="M160.66,0.12 L163.33,0.12 L167.19,14.04 L164.48,14.04 L163.73,11.15 L160.17,11.15 L159.44,14.04 L156.83,14.04 L160.66,0.12 Z M163.1,8.79 L161.97,4.24 L160.8,8.79 L163.1,8.79 Z"/>
    <polygon fill="#414042" points="168.43 .22 171.08 .22 171.08 11.61 175.24 11.61 175.24 14.12 168.43 14.12"/>
    <path fill="#414042" d="M37.44 26.48L37.44 17.37 40.09 17.37 40.09 26.62C40.09 28.22 40.78 28.98 41.85 28.98 42.92 28.98 43.61 28.25 43.61 26.64L43.61 17.37 46.24 17.37 46.24 26.46C46.24 29.85 44.46 31.46 41.82 31.46 39.18 31.46 37.44 29.83 37.44 26.48zM47.22 29.53L48.8 27.47C49.459861 28.2811182 50.4111003 28.8016076 51.45 28.92 51.8486751 28.9538345 52.243124 28.8179071 52.5363207 28.5456531 52.8295174 28.273399 52.9942508 27.8900856 52.99 27.49 52.99 26.88 52.67 26.4 51.11 25.49 49.01 24.24 47.78 23.15 47.78 21.21L47.78 21.21C47.7592458 20.1179467 48.2021238 19.0682232 48.9988423 18.3210614 49.7955607 17.5738996 50.8715258 17.1992535 51.96 17.29 53.3726861 17.2910353 54.7236649 17.8689942 55.7 18.89L54.08 20.89C53.5291307 20.2017124 52.7187097 19.7711762 51.84 19.7 51.4918364 19.6606418 51.1431377 19.7692162 50.878861 19.9992701 50.6145843 20.2293239 50.4589946 20.5597343 50.45 20.91 50.45 21.56 50.77 22.04 52.69 23.23 54.61 24.42 55.69 25.51 55.69 27.35L55.69 27.35C55.691107 28.4428023 55.2450614 29.4884773 54.4555205 30.2440189 53.6659795 30.9995605 52.6016958 31.3991767 51.51 31.35 49.8913181 31.355348 48.3410438 30.6976559 47.22 29.53L47.22 29.53z"/>
    <polygon fill="#414042" points="57.16 17.37 64.37 17.37 64.37 19.83 59.83 19.83 59.83 23.04 63.83 23.04 63.83 25.5 59.83 25.5 59.83 28.79 64.48 28.79 64.48 31.25 57.19 31.25 57.19 17.39"/>
    <path fill="#414042" d="M69.45,24.54 L69.45,24.12 C69.45,19.74 71.51,17.19 74.45,17.19 C77.39,17.19 79.45,19.74 79.45,24.1 L79.45,24.56 C79.45,28.92 77.39,31.49 74.45,31.49 C71.51,31.49 69.45,28.9 69.45,24.54 Z M76.82,24.44 L76.82,24.18 C76.82,21.05 75.82,19.59 74.48,19.59 C73.14,19.59 72.16,21.04 72.16,24.16 L72.16,24.42 C72.16,27.55 73.16,29.01 74.5,29.01 C75.84,29.01 76.83,27.57 76.83,24.44 L76.82,24.44 Z"/>
    <polygon fill="#414042" points="81.28 17.37 83.73 17.37 87.67 24.93 87.67 17.37 90.26 17.37 90.26 31.23 87.96 31.23 83.86 23.35 83.86 31.23 81.27 31.23 81.27 17.37"/>
    <polygon fill="#414042" points="92.41 17.37 95.06 17.37 95.06 28.76 99.22 28.76 99.22 31.24 92.41 31.24 92.41 17.38"/>
    <polygon fill="#414042" points="101.83 25.77 98.23 17.37 101.12 17.37 103.18 22.7 105.26 17.37 108.07 17.37 104.49 25.75 104.49 31.24 101.83 31.24"/>
    <path fill="#414042" d="M31,0.23 L31,15.73 C31,24.2904136 24.0604136,31.23 15.5,31.23 L0,31.23 L0,15.73 C0,7.16958638 6.93958638,0.23 15.5,0.23 L31,0.23 Z M7,15.88 C6.95497284,13.6238826 7.8496643,11.450543 9.47,9.88 C11.0804419,8.28940239 13.2670362,7.41981621 15.53,7.47 C17.1244822,7.44419519 18.6941339,7.86692702 20.06,8.69 L23.12,5.63 C18.0799134,1.86229341 11.0375616,2.36833845 6.58795002,6.81795002 C2.13833845,11.2675616 1.63229341,18.3099134 5.4,23.35 L8.26,20.49 C7.37765367,19.1173668 6.92821406,17.5112299 6.97,15.88 L7,15.88 Z M25.51,7.88 L13.16,20.23 C13.8521809,20.6203766 14.6353943,20.8204928 15.43,20.81 C17.1447752,20.843335 18.7723217,20.0555727 19.81,18.69 L22.13,21.09 C20.5267384,23.0494939 18.1317911,24.1901196 15.6,24.2 C13.829496,24.2432467 12.0870585,23.7518793 10.6,22.79 L7.74,25.65 C9.9581294,27.4022859 12.7032369,28.3537352 15.53,28.35 C20.3565722,28.3328166 24.7534389,25.572712 26.8668151,21.2333877 C28.9801914,16.8940634 28.4423295,11.7306035 25.48,7.92 L25.51,7.88 Z M10.74,15.79 C10.7304151,16.424453 10.8250051,17.0561793 11.02,17.66 L17.51,11.17 C16.9306243,10.9571356 16.317191,10.8520724 15.7,10.86 C14.4051095,10.8332926 13.1503764,11.3100912 12.2,12.19 C11.191692,13.1248195 10.6465884,14.4564821 10.71,15.83 L10.74,15.79 Z"/>
  </g>
</svg>
