<svg xmlns="http://www.w3.org/2000/svg" width="176" height="33" viewBox="0 0 176 33"><g fill="none"><circle cx="15.24" cy="15.43" r="13.81" fill="#FFF"/><path fill="#414042" d="M37.18 7.31L37.18 6.99C37.18 2.48 39.4.06 42.39.06 43.6326297.0324608867 44.8310812.521255291 45.7 1.41L44.19 3.53C43.7328056 2.98821304 43.0769256 2.65306558 42.37 2.6 41 2.6 39.89 4.12 39.89 7.09L39.89 7.19C39.89 10.36 41.08 11.71 42.33 11.71 43.1088635 11.677501 43.8366827 11.3135915 44.33 10.71L45.74 12.77C44.8300841 13.7193211 43.5749388 14.260332 42.26 14.27 39.15 14.24 37.18 11.83 37.18 7.31zM46.33 7.39L46.33 6.93C46.33 2.55 48.39 0 51.33 0 54.27 0 56.33 2.55 56.33 6.91L56.33 7.37C56.33 11.73 54.27 14.3 51.33 14.3 48.39 14.3 46.33 11.75 46.33 7.39zM53.7 7.29L53.7 7.03C53.7 3.9 52.7 2.44 51.36 2.44 50.02 2.44 49.04 3.89 49.04 7.01L49.04 7.27C49.04 10.4 50.04 11.86 51.38 11.86 52.72 11.86 53.7 10.42 53.7 7.29z"/><polygon fill="#414042" points="58.17 .22 60.62 .22 64.56 7.78 64.56 .22 67.15 .22 67.15 14.08 64.83 14.08 60.73 6.2 60.73 14.08 58.14 14.08 58.14 .22"/><polygon fill="#414042" points="71.29 2.72 68.66 2.72 68.66 .22 76.58 .22 76.58 2.72 73.95 2.72 73.95 14.09 71.3 14.09 71.3 2.72"/><path fill="#414042" d="M78.08.22L82 .22C83.2710985.152965093 84.5164379.595672433 85.46 1.45 86.2664296 2.33362073 86.6812112 3.50582945 86.61 4.7L86.61 4.82C86.7114518 6.41936845 85.8873667 7.93537393 84.49 8.72L86.93 14.09 83.93 14.09 81.85 9.4 80.68 9.4 80.68 14.09 78.03 14.09 78.03.23 78.08.22zM81.78 7.03C82.377492 7.08731179 82.9691337 6.87324243 83.3916211 6.44687904 83.8141084 6.02051566 84.0227658 5.42694367 83.96 4.83 84.0194919 4.22472449 83.8003334 3.62526581 83.3644788 3.20108595 82.9286243 2.7769061 82.3234376 2.57410027 81.72 2.65L80.72 2.65 80.72 7.03 81.72 7.03 81.78 7.03zM91.3.16L93.97.16 97.83 14.08 95.12 14.08 94.37 11.19 90.83 11.19 90.1 14.08 87.49 14.08 91.3.16zM93.74 8.83L92.61 4.28 91.44 8.83 93.74 8.83 93.74 8.83zM98.25 7.31L98.25 6.99C98.25 2.48 100.47.06 103.46.06 104.70263.0324608867 105.901081.521255291 106.77 1.41L105.26 3.53C104.802094 2.98910997 104.146616 2.65416783 103.44 2.6 102.07 2.6 100.96 4.12 100.96 7.09L100.96 7.19C100.96 10.36 102.15 11.71 103.4 11.71 104.178864 11.677501 104.906683 11.3135915 105.4 10.71L106.81 12.77C105.897672 13.7218033 104.638417 14.2630303 103.32 14.27 100.21 14.24 98.25 11.83 98.25 7.31z"/><polygon fill="#414042" points="110.22 2.72 107.59 2.72 107.59 .22 115.51 .22 115.51 2.72 112.83 2.72 112.83 14.09 110.18 14.09 110.18 2.72"/><path fill="#414042" d="M116.89 9.33L116.89.22 119.54.22 119.54 9.47C119.54 11.07 120.23 11.83 121.3 11.83 122.37 11.83 123.06 11.1 123.06 9.49L123.06.22 125.69.22 125.69 9.31C125.69 12.7 123.91 14.31 121.27 14.31 118.63 14.31 116.89 12.68 116.89 9.33zM130.47.16L133.14.16 137 14.08 134.29 14.08 133.54 11.19 129.98 11.19 129.25 14.08 126.64 14.08 130.47.16zM132.91 8.83L131.78 4.28 130.61 8.83 132.91 8.83z"/><polygon fill="#414042" points="138.25 .22 140.9 .22 140.9 11.6 145.06 11.6 145.06 14.08 138.25 14.08"/><path fill="#414042" d="M37.56,17.38 L41.48,17.38 C42.7510985,17.3129651 43.9964379,17.7556724 44.94,18.61 C45.7464296,19.4936207 46.1612112,20.6658295 46.09,21.86 L46.09,21.98 C46.1914518,23.5793684 45.3673667,25.0953739 43.97,25.88 L46.41,31.25 L43.41,31.25 L41.33,26.56 L40.16,26.56 L40.16,31.25 L37.51,31.25 L37.51,17.39 L37.56,17.38 Z M41.26,24.19 C41.857492,24.2473118 42.4491337,24.0332424 42.8716211,23.606879 C43.2941084,23.1805157 43.5027658,22.5869437 43.44,21.99 C43.4994919,21.3847245 43.2803334,20.7852658 42.8444788,20.361086 C42.4086243,19.9369061 41.8034376,19.7341003 41.2,19.81 L40.2,19.81 L40.2,24.19 L41.2,24.19 L41.26,24.19 Z"/><polygon fill="#414042" points="47.83 17.38 55.04 17.38 55.04 19.84 50.47 19.84 50.47 23.05 54.47 23.05 54.47 25.51 50.47 25.51 50.47 28.8 55.12 28.8 55.12 31.26 47.83 31.26 47.83 17.4"/><path fill="#414042" d="M55.77,29.53 L57.35,27.47 C58.009861,28.2811182 58.9611003,28.8016076 60,28.92 C60.3986751,28.9538345 60.793124,28.8179071 61.0863207,28.5456531 C61.3795174,28.273399 61.5442508,27.8900856 61.54,27.49 C61.54,26.88 61.22,26.4 59.66,25.49 C57.56,24.24 56.33,23.15 56.33,21.21 L56.33,21.21 C56.3092458,20.1179467 56.7521238,19.0682232 57.5488423,18.3210614 C58.3455607,17.5738996 59.4215258,17.1992535 60.51,17.29 C61.9226861,17.2910353 63.2736649,17.8689942 64.25,18.89 L62.63,20.89 C62.0791307,20.2017124 61.2687097,19.7711762 60.39,19.7 C60.0418364,19.6606418 59.6931377,19.7692162 59.428861,19.9992701 C59.1645843,20.2293239 59.0089946,20.5597343 59,20.91 C59,21.56 59.32,22.04 61.24,23.23 C63.16,24.42 64.24,25.51 64.24,27.35 L64.24,27.35 C64.241107,28.4428023 63.7950614,29.4884773 63.0055205,30.2440189 C62.2159795,30.9995605 61.1516958,31.3991767 60.06,31.35 C58.4413181,31.355348 56.8910438,30.6976559 55.77,29.53 L55.77,29.53 Z"/><polygon fill="#414042" points="67.41 19.87 64.78 19.87 64.78 17.37 72.7 17.37 72.7 19.87 70.07 19.87 70.07 31.24 67.42 31.24 67.42 19.87"/><path fill="#414042" d="M74.2,17.38 L78.12,17.38 C79.3944973,17.310258 80.6439498,17.7531474 81.59,18.61 C82.3964296,19.4936207 82.8112112,20.6658295 82.74,21.86 L82.74,21.98 C82.8414518,23.5793684 82.0173667,25.0953739 80.62,25.88 L83.06,31.25 L80.06,31.25 L77.98,26.56 L76.83,26.56 L76.83,31.25 L74.18,31.25 L74.18,17.39 L74.2,17.38 Z M77.9,24.19 C78.497492,24.2473118 79.0891337,24.0332424 79.5116211,23.606879 C79.9341084,23.1805157 80.1427658,22.5869437 80.08,21.99 C80.1394919,21.3847245 79.9203334,20.7852658 79.4844788,20.361086 C79.0486243,19.9369061 78.4434376,19.7341003 77.84,19.81 L76.84,19.81 L76.84,24.19 L77.84,24.19 L77.9,24.19 Z"/><polygon fill="#414042" points="84.53 17.38 87.16 17.38 87.16 31.24 84.53 31.24"/><path fill="#414042" d="M89,24.46 L89,24.14 C89,19.63 91.22,17.21 94.21,17.21 C95.4526297,17.1824609 96.6510812,17.6712553 97.52,18.56 L96.01,20.68 C95.5520939,20.13911 94.8966158,19.8041678 94.19,19.75 C92.82,19.75 91.71,21.27 91.71,24.24 L91.71,24.34 C91.71,27.51 92.9,28.86 94.15,28.86 C94.9288635,28.827501 95.6566827,28.4635915 96.15,27.86 L97.56,29.92 C96.6476719,30.8718033 95.388417,31.4130303 94.07,31.42 C90.96,31.4 89,28.98 89,24.46 Z"/><polygon fill="#414042" points="100.98 19.87 98.35 19.87 98.35 17.37 106.27 17.37 106.27 19.87 103.64 19.87 103.64 31.24 100.99 31.24 100.99 19.87"/><polygon fill="#414042" points="107.83 17.38 110.46 17.38 110.46 31.24 107.83 31.24"/><path fill="#414042" d="M112.32,24.54 L112.32,24.08 C112.32,19.7 114.38,17.15 117.32,17.15 C120.26,17.15 122.32,19.7 122.32,24.06 L122.32,24.52 C122.32,28.88 120.26,31.45 117.32,31.45 C114.38,31.45 112.32,28.9 112.32,24.54 Z M119.69,24.44 L119.69,24.18 C119.69,21.05 118.69,19.59 117.35,19.59 C116.01,19.59 115.03,21.04 115.03,24.16 L115.03,24.42 C115.03,27.55 116.03,29.01 117.37,29.01 C118.71,29.01 119.68,27.6 119.68,24.45 L119.69,24.44 Z"/><polygon fill="#414042" points="124.15 17.38 126.61 17.38 130.55 24.94 130.55 17.38 133.14 17.38 133.14 31.24 130.83 31.24 126.73 23.36 126.73 31.24 124.14 31.24 124.14 17.38"/><path fill="#414042" d="M134.21 29.53L135.79 27.47C136.449861 28.2811182 137.4011 28.8016076 138.44 28.92 138.838675 28.9538345 139.233124 28.8179071 139.526321 28.5456531 139.819517 28.273399 139.984251 27.8900856 139.98 27.49 139.98 26.88 139.66 26.4 138.1 25.49 136 24.24 134.77 23.15 134.77 21.21L134.77 21.21C134.749246 20.1179467 135.192124 19.0682232 135.988842 18.3210614 136.785561 17.5738996 137.861526 17.1992535 138.95 17.29 140.362686 17.2910353 141.713665 17.8689942 142.69 18.89L141.07 20.89C140.519131 20.2017124 139.70871 19.7711762 138.83 19.7 138.481836 19.6606418 138.133138 19.7692162 137.868861 19.9992701 137.604584 20.2293239 137.448995 20.5597343 137.44 20.91 137.44 21.56 137.76 22.04 139.68 23.23 141.6 24.42 142.68 25.51 142.68 27.35L142.68 27.35C142.681107 28.4428023 142.235061 29.4884773 141.44552 30.2440189 140.65598 30.9995605 139.591696 31.3991767 138.5 31.35 136.881318 31.355348 135.331044 30.6976559 134.21 29.53zM31 .23L31 15.73C31 24.2904136 24.0604136 31.23 15.5 31.23L0 31.23 0 15.73C0 7.16958638 6.93958638.23 15.5.23L31 .23zM7 15.88C6.95497284 13.6238826 7.8496643 11.450543 9.47 9.88 11.0804419 8.28940239 13.2670362 7.41981621 15.53 7.47 17.1244822 7.44419519 18.6941339 7.86692702 20.06 8.69L23.12 5.63C18.0799134 1.86229341 11.0375616 2.36833845 6.58795002 6.81795002 2.13833845 11.2675616 1.63229341 18.3099134 5.4 23.35L8.26 20.49C7.37765367 19.1173668 6.92821406 17.5112299 6.97 15.88L7 15.88zM25.51 7.88L13.16 20.23C13.8521809 20.6203766 14.6353943 20.8204928 15.43 20.81 17.1447752 20.843335 18.7723217 20.0555727 19.81 18.69L22.13 21.09C20.5267384 23.0494939 18.1317911 24.1901196 15.6 24.2 13.829496 24.2432467 12.0870585 23.7518793 10.6 22.79L7.74 25.65C9.9581294 27.4022859 12.7032369 28.3537352 15.53 28.35 20.3565722 28.3328166 24.7534389 25.572712 26.8668151 21.2333877 28.9801914 16.8940634 28.4423295 11.7306035 25.48 7.92L25.51 7.88zM10.74 15.79C10.7304151 16.424453 10.8250051 17.0561793 11.02 17.66L17.51 11.17C16.9306243 10.9571356 16.317191 10.8520724 15.7 10.86 14.4051095 10.8332926 13.1503764 11.3100912 12.2 12.19 11.191692 13.1248195 10.6465884 14.4564821 10.71 15.83L10.74 15.79z"/></g></svg>