<svg xmlns="http://www.w3.org/2000/svg" width="196" height="120" viewBox="0 0 196 120">
  <g transform="translate(50 20)">
    <path d="M95.5,52.6 C95.5,45.2 89.9,38.7 81.7,35.2 C81.9,33.9 82,32.5 82,31.2 C82,22.7 77.6,14.8 69.6,9 C62,3.5 51.9,0.4 41.3,0.4 C30.7,0.4 20.6,3.5 13,9 C5,14.8 0.6,22.7 0.6,31.2 C0.6,36.3 2.3,41.3 5.4,45.8 C7.7,49 10.8,51.9 14.4,54.4 C13.5,56.4 12,58.6 9.9,60.9 C8.2,62.7 7.7,65.3 8.7,67.6 C9.7,69.9 11.9,71.3 14.3,71.3 C14.7,71.3 15.1,71.3 15.5,71.2 C23.7,69.6 32,65.4 37.9,62 C39,62.1 40.1,62.1 41.3,62.1 C42.1,62.1 42.9,62.1 43.7,62 C48.3,68.3 57.5,72.6 68,72.6 C69.1,72.6 70.2,72.5 71.3,72.5 C75.4,75 81.8,78.3 88,79.5 C89.4,79.8 90.3,78.1 89.3,77 C86.5,74 85,71 84.3,68.6 C91.1,65 95.5,59.2 95.5,52.6 Z M41.4,57.8 L41.3,57.8 C39.8,57.8 38.4,57.7 36.9,57.6 C31.4,60.9 22.9,65.4 14.7,67 C14.6,67 14.4,67 14.3,67 C12.7,67 11.7,65 12.9,63.7 C16.7,59.7 18.6,55.7 19.5,52.6 C10.5,47.8 4.7,40 4.7,31.2 C4.7,16.5 21.1,4.6 41.3,4.6 C61.5,4.6 77.9,16.5 77.9,31.2 C77.9,32.1 77.8,33 77.7,33.8 C75.9,47.3 60.3,57.8 41.4,57.8 Z"/>
    <circle cx="23.8" cy="31.2" r="5.2"/>
    <circle cx="41.3" cy="31.2" r="5.2"/>
    <circle cx="58.8" cy="31.2" r="5.2"/>
  </g>
</svg>
