<svg xmlns="http://www.w3.org/2000/svg" width="98" height="74" viewBox="0 0 98 74">
  <g>
    <path d="M92.7,0.1 L5.4,0.1 C2.5,0.1 0.1,2.5 0.1,5.4 L0.1,68.5 C0.1,71.4 2.5,73.8 5.4,73.8 L92.7,73.8 C95.6,73.8 98,71.4 98,68.5 L98,5.4 C98,2.5 95.6,0.1 92.7,0.1 Z M95.2,68.6 C95.2,70 94.1,71.1 92.7,71.1 L5.4,71.1 C4,71.1 2.9,70 2.9,68.6 L2.9,13.9 L95.3,13.9 L95.3,68.6 L95.2,68.6 Z M95.2,11.1 L2.8,11.1 L2.8,5.4 C2.8,4 3.9,2.9 5.3,2.9 L92.6,2.9 C94,2.9 95.1,4 95.1,5.4 L95.1,11.1 L95.2,11.1 Z"/>
    <path d="M66.6,5.6 L31.3,5.6 C30.5,5.6 29.9,6.2 29.9,7 C29.9,7.8 30.5,8.4 31.3,8.4 L66.6,8.4 C67.4,8.4 68,7.8 68,7 C68,6.2 67.4,5.6 66.6,5.6 Z"/>
    <circle cx="6.8" cy="7" r="1.4"/>
    <circle cx="11.4" cy="7" r="1.4"/>
    <circle cx="16.1" cy="7" r="1.4"/>
    <polygon points="37.1 48.3 29.8 43.2 37.1 38.1 34.6 34.6 22.3 43.2 34.6 51.8"/>
    <polygon points="57.4 27 52.5 27 40.6 58 45.4 58"/>
    <polygon points="63.4 51.8 75.7 43.2 63.4 34.6 60.9 38.1 68.2 43.2 60.9 48.3"/>
  </g>
</svg>
