<svg xmlns="http://www.w3.org/2000/svg" width="72" height="96" viewBox="0 0 72 96">
  <g>
    <path d="M15 18L57 18C58.1 18 59 17.1 59 16 59 14.9 58.1 14 57 14L15 14C13.9 14 13 14.9 13 16 13 17.1 13.9 18 15 18zM15 28.6L57 28.6C58.1 28.6 59 27.7 59 26.6 59 25.5 58.1 24.6 57 24.6L15 24.6C13.9 24.6 13 25.5 13 26.6 13 27.7 13.9 28.6 15 28.6zM15 39.1L57 39.1C58.1 39.1 59 38.2 59 37.1 59 36 58.1 35.1 57 35.1L15 35.1C13.9 35.1 13 36 13 37.1 13 38.2 13.9 39.1 15 39.1zM15 49.7L57 49.7C58.1 49.7 59 48.8 59 47.7 59 46.6 58.1 45.7 57 45.7L15 45.7C13.9 45.7 13 46.6 13 47.7 13 48.8 13.9 49.7 15 49.7zM15 60.2L57 60.2C58.1 60.2 59 59.3 59 58.2 59 57.1 58.1 56.2 57 56.2L15 56.2C13.9 56.2 13 57.1 13 58.2 13 59.3 13.9 60.2 15 60.2zM15 70.8L57 70.8C58.1 70.8 59 69.9 59 68.8 59 67.7 58.1 66.8 57 66.8L15 66.8C13.9 66.8 13 67.7 13 68.8 13 69.9 13.9 70.8 15 70.8z"/>
    <path d="M68.9,0.6 L3.3,0.5 C1.6,0.5 0.3,1.9 0.3,3.5 L0.2,92.4 C0.2,94.1 1.6,95.4 3.2,95.4 L68.8,95.5 C70.5,95.5 71.8,94.1 71.8,92.5 L71.9,3.6 C71.9,1.9 70.5,0.6 68.9,0.6 Z M36,90.5 C33.8,90.5 32.1,88.8 32.1,86.6 C32.1,84.4 33.9,82.7 36,82.7 C38.2,82.7 39.9,84.5 39.9,86.6 C39.9,88.7 38.1,90.5 36,90.5 Z M65.8,77.7 L6.2,77.6 L6.3,6.6 L65.9,6.7 L65.8,77.7 Z"/>
  </g>
</svg>
