<svg xmlns="http://www.w3.org/2000/svg" width="196" height="120" viewBox="0 0 196 120">
  <g transform="translate(65 16)">
    <path d="M13.75 16.5L52.25 16.5C53.2583333 16.5 54.0833333 15.675 54.0833333 14.6666667 54.0833333 13.6583333 53.2583333 12.8333333 52.25 12.8333333L13.75 12.8333333C12.7416667 12.8333333 11.9166667 13.6583333 11.9166667 14.6666667 11.9166667 15.675 12.7416667 16.5 13.75 16.5zM13.75 26.2166667L52.25 26.2166667C53.2583333 26.2166667 54.0833333 25.3916667 54.0833333 24.3833333 54.0833333 23.375 53.2583333 22.55 52.25 22.55L13.75 22.55C12.7416667 22.55 11.9166667 23.375 11.9166667 24.3833333 11.9166667 25.3916667 12.7416667 26.2166667 13.75 26.2166667zM13.75 35.8416667L52.25 35.8416667C53.2583333 35.8416667 54.0833333 35.0166667 54.0833333 34.0083333 54.0833333 33 53.2583333 32.175 52.25 32.175L13.75 32.175C12.7416667 32.175 11.9166667 33 11.9166667 34.0083333 11.9166667 35.0166667 12.7416667 35.8416667 13.75 35.8416667zM13.75 45.5583333L52.25 45.5583333C53.2583333 45.5583333 54.0833333 44.7333333 54.0833333 43.725 54.0833333 42.7166667 53.2583333 41.8916667 52.25 41.8916667L13.75 41.8916667C12.7416667 41.8916667 11.9166667 42.7166667 11.9166667 43.725 11.9166667 44.7333333 12.7416667 45.5583333 13.75 45.5583333zM13.75 55.1833333L52.25 55.1833333C53.2583333 55.1833333 54.0833333 54.3583333 54.0833333 53.35 54.0833333 52.3416667 53.2583333 51.5166667 52.25 51.5166667L13.75 51.5166667C12.7416667 51.5166667 11.9166667 52.3416667 11.9166667 53.35 11.9166667 54.3583333 12.7416667 55.1833333 13.75 55.1833333zM13.75 64.9L52.25 64.9C53.2583333 64.9 54.0833333 64.075 54.0833333 63.0666667 54.0833333 62.0583333 53.2583333 61.2333333 52.25 61.2333333L13.75 61.2333333C12.7416667 61.2333333 11.9166667 62.0583333 11.9166667 63.0666667 11.9166667 64.075 12.7416667 64.9 13.75 64.9z"/>
    <path d="M63.1583333,0.55 L3.025,0.458333333 C1.46666667,0.458333333 0.275,1.74166667 0.275,3.20833333 L0.183333333,84.7 C0.183333333,86.2583333 1.46666667,87.45 2.93333333,87.45 L63.0666667,87.5416667 C64.625,87.5416667 65.8166667,86.2583333 65.8166667,84.7916667 L65.9083333,3.3 C65.9083333,1.74166667 64.625,0.55 63.1583333,0.55 Z M33,82.9583333 C30.9833333,82.9583333 29.425,81.4 29.425,79.3833333 C29.425,77.3666667 31.075,75.8083333 33,75.8083333 C35.0166667,75.8083333 36.575,77.4583333 36.575,79.3833333 C36.575,81.3083333 34.925,82.9583333 33,82.9583333 Z M60.3166667,71.225 L5.68333333,71.1333333 L5.775,6.05 L60.4083333,6.14166667 L60.3166667,71.225 Z"/>
  </g>
</svg>
