<svg xmlns="http://www.w3.org/2000/svg" width="96" height="62" viewBox="0 0 96 62">
  <g>
    <path d="M95.1 58.3L92.7 58.3 92.7 56C92.7 55.8 92.5 55.6 92.3 55.6L89.9 55.6 89.9 37.3 63.8 37.3 63.8 61.1 95.1 61.1C95.3 61.1 95.5 60.9 95.5 60.7L95.5 58.7C95.5 58.4 95.3 58.3 95.1 58.3zM74.4 50L68.8 50 68.8 43.7 74.4 43.7 74.4 50zM84.9 50L79.3 50 79.3 43.7 84.9 43.7 84.9 50zM6.1 55.6L3.7 55.6C3.5 55.6 3.3 55.8 3.3 56L3.3 58.3.9 58.3C.7 58.3.5 58.5.5 58.7L.5 60.7C.5 60.9.7 61.1.9 61.1L32.2 61.1 32.2 37.3 6.2 37.3 6.2 55.6 6.1 55.6zM21.6 43.7L27.2 43.7 27.2 50 21.6 50 21.6 43.7zM11.1 43.7L16.7 43.7 16.7 50 11.1 50 11.1 43.7zM63.8 35.8L92.3 35.8C93.3 35.8 94 34.8 93.6 33.9L85.7 15C85.5 14.5 85 14.1 84.4 14.1L48.5 14.1 48.5 7.7 54.8 7.7C55.2 7.7 55.6 7.3 55.6 6.9L55.6 2.9C55.6 2.5 55.2 2.1 54.8 2.1L48.5 2.1 48.5 1.3C48.5 1 48.3.8 48 .8L47.6.8C47.3.8 47.1 1 47.1 1.3L47.1 14.1 11.5 14.1C10.9 14.1 10.4 14.4 10.2 15L2.3 33.9C1.9 34.8 2.6 35.8 3.6 35.8L32.1 35.8 32.1 21.8 63.8 21.8 63.8 35.8z"/>
    <polygon points="51.5 32.8 48.5 32.8 48.5 28.5 47.5 28.5 47.5 33.8 51.5 33.8"/>
    <path d="M33.6,61.2 L62.3,61.2 L62.3,23.3 L33.6,23.3 L33.6,61.2 Z M56.8,58.3 L49,58.3 L49,43.7 L56.8,43.7 L56.8,58.3 Z M42,32.8 C42.1,31.5 42.6,30.3 43.4,29.4 L44.3,30.3 L45,29.6 L44.1,28.7 C45.1,27.8 46.5,27.3 48,27.3 C49.5,27.3 50.8,27.8 51.9,28.7 L51,29.6 L51.7,30.3 L52.6,29.4 C53.4,30.3 53.9,31.5 54,32.8 L52.8,32.8 L52.8,33.7 L54,33.7 C53.9,35 53.4,36.2 52.6,37.1 L51.7,36.2 L51,36.9 L51.9,37.8 C51,38.6 49.8,39.1 48.5,39.2 L48.5,38 L47.6,38 L47.6,39.2 C46.3,39.1 45.1,38.6 44.2,37.8 L45.1,36.9 L44.4,36.2 L43.5,37.1 C42.7,36.2 42.2,35 42.1,33.7 L43.3,33.7 L43.3,32.8 L42,32.8 Z M39.2,43.7 L47,43.7 L47,58.3 L39.2,58.3 L39.2,43.7 Z"/>
  </g>
</svg>
