<svg xmlns="http://www.w3.org/2000/svg" width="196" height="120" viewBox="0 0 196 120">
  <g transform="translate(24 22)">
    <path d="M64.7821429,64.0907143 C64.3339797,60.7842459 62.5471193,57.8070921 59.84,55.8564286 C62.0411089,54.5368866 63.8334058,52.633081 65.0178571,50.3564286 C65.3554753,49.6112045 65.1958359,48.7347531 64.6171429,48.1564286 L60.8378571,44.3771429 C58.1548874,41.7101374 56.652231,38.0794252 56.6657143,34.2964286 L56.6657143,24.0821429 C56.6657143,11.0162691 46.0737309,0.424285714 33.0078571,0.424285714 C19.9419834,0.424285714 9.35,11.0162691 9.35,24.0821429 L9.35,34.2964286 C9.36348329,38.0794252 7.86082688,41.7101374 5.17785714,44.3771429 L1.38285714,48.1171429 C0.817833614,48.6897508 0.65905936,49.5489997 0.982142857,50.2857143 C2.15751536,52.5765086 3.94775376,54.4946212 6.15214286,55.825 C3.43879353,57.7862176 1.65383511,60.7791495 1.21785714,64.0985714 L0.605,68.7421429 C0.344798962,70.7275793 0.953141292,72.7288151 2.27429507,74.2335461 C3.59544886,75.738277 5.50115756,76.6004251 7.50357143,76.5992857 L58.4964286,76.5992857 C60.4988424,76.6004251 62.4045511,75.738277 63.7257049,74.2335461 C65.0468587,72.7288151 65.655201,70.7275793 65.395,68.7421429 L64.7821429,64.0907143 Z M7.94357143,47.1428571 C11.3657326,43.7389473 13.2839602,39.1074745 13.2707143,34.2807143 L13.2707143,24.0664286 C13.2707143,13.1702449 22.1038164,4.33714286 33,4.33714286 C43.8961836,4.33714286 52.7292857,13.1702449 52.7292857,24.0664286 L52.7292857,34.2807143 C52.7160398,39.1074745 54.6342674,43.7389473 58.0564286,47.1428571 L60.7435714,49.83 C59.4623628,51.6056495 57.6270006,52.9047764 55.5264286,53.5228571 C55.437673,53.5506728 55.3510228,53.5848077 55.2671429,53.625 L44.055,48.9107143 L44.055,45.43 C47.0641599,42.5620145 48.7677513,38.5869679 48.7692857,34.43 L48.7692857,25.2685714 C48.7692857,25.2266667 48.7692857,25.1821429 48.7692857,25.135 L48.6671429,23.5635714 C48.2515997,17.8184631 43.4743944,13.3668206 37.7142857,13.3571429 L37.6357143,13.3571429 C37.1143973,13.3562118 36.6140922,13.5625523 36.245,13.9307143 C31.5371882,18.7321098 25.5008919,22.0156798 18.9121429,23.3592857 C17.932455,23.4857258 17.1990626,24.3200437 17.1992857,25.3078571 L17.1992857,34.4221429 C17.2008201,38.5791107 18.9044115,42.5541573 21.9135714,45.4221429 L21.9135714,48.8714286 L10.6464286,53.5857143 C10.5154985,53.5067361 10.3757274,53.4434435 10.23,53.3971429 C8.2118172,52.7626207 6.45322258,51.4919121 5.21714286,49.775 L7.94357143,47.1428571 Z M25.1428571,43.0571429 C22.5938151,40.9105011 21.1241336,37.7468031 21.1278571,34.4142857 L21.1278571,26.8792857 C27.6313295,25.2568536 33.5930396,21.9508143 38.4135714,17.2935714 C41.8060093,17.6636423 44.4501977,20.4036825 44.6992857,23.8071429 L44.8014286,25.3235714 L44.8014286,34.4221429 C44.8204416,37.7404495 43.377739,40.8988761 40.8571429,43.0571429 C40.4143176,43.4299135 40.158451,43.9790205 40.1578571,44.5578571 L40.1578571,53.6878571 C36.1290639,57.3924184 29.9337933,57.3924184 25.905,53.6878571 L25.905,44.5578571 C25.8890001,43.968602 25.6092139,43.4176827 25.1428571,43.0571429 Z M60.775,71.6492857 C60.2026204,72.3091893 59.3699534,72.6853251 58.4964286,72.6785714 L7.50357143,72.6785714 C6.63088307,72.679462 5.80032923,72.3034189 5.22523341,71.6470268 C4.6501376,70.9906347 4.38653947,70.1178552 4.50214286,69.2528571 L5.115,64.6092857 C5.50454124,61.7321697 7.38321264,59.2740671 10.0571429,58.1428571 L21.945,53.1457143 L21.945,54.5128571 C21.9457884,55.0123562 22.1368395,55.4927935 22.4792857,55.8564286 C25.2109495,58.754731 29.0172692,60.3977482 33,60.3977482 C36.9827308,60.3977482 40.7890505,58.754731 43.5207143,55.8564286 C43.8631605,55.4927935 44.0542116,55.0123562 44.055,54.5128571 L44.055,53.1378571 L55.9428571,58.1428571 C58.6189809,59.2754636 60.498061,61.7370884 60.885,64.6171429 L61.4978571,69.2607143 C61.6171548,70.1242529 61.3530944,70.9968 60.775,71.6492857 Z" transform="translate(42)"/>
    <path d="M39.982582,47.8714771 C39.9794388,47.8699757 39.9763269,47.8684904 39.9732464,47.8670213 C39.2177383,47.5212766 38.7369604,46.7606383 38.7369604,45.8617021 L38.7369604,40.8829787 C38.7369604,40.606383 38.7369604,40.3297872 38.8743255,40.1223404 C39.4924685,38.8776596 39.9045638,37.4946809 40.1792941,35.9042553 C40.3166592,35.2819149 40.6600719,34.7978723 41.2095324,34.5904255 C41.4842626,34.4521277 41.8276754,34.3829787 42.1024056,34.4521277 C42.3084532,34.106383 42.7205486,33.2765957 43.2013264,31.6170213 C43.7507869,29.75 43.6821043,28.9202128 43.6134218,28.643617 C42.9265962,28.2978723 42.5831835,27.537234 42.7205486,26.7765957 C44.0941996,20 42.9952788,17.2340426 42.1710881,16.1276596 C41.4842626,15.2287234 40.7287545,15.0904255 40.7287545,15.0904255 C40.1792941,15.0904255 39.6298336,14.7446809 39.3551034,14.1914894 C39.3551034,14.1914894 38.5995953,12.8085106 36.6078013,11.7021277 C34.8220549,10.5957447 32.7615782,10.1808511 30.495054,10.3882979 C29.6708633,10.4574468 28.8466727,10.5957447 28.0911646,10.8723404 C27.1982914,11.1489362 26.3054182,11.6329787 25.412545,12.2553191 C25.412545,12.3244681 25.3438624,12.3244681 25.3438624,12.3244681 C24.3136241,13.0159574 23.2833858,13.8457447 22.4591951,14.7446809 C20.8794964,16.4042553 19.8492581,18.1329787 19.4371628,20.0691489 C18.8877023,22.0744681 18.9563849,24.0797872 19.6432104,25.9468085 C19.8492581,26.5 19.711893,27.1223404 19.3684802,27.606383 C19.0250674,28.0212766 18.5442896,28.2978723 17.9948291,28.2978723 C17.9261466,28.643617 17.9261466,29.4734043 18.4069245,31.1329787 C19.0250674,33.2074468 19.5058453,33.9680851 19.6432104,34.1755319 C20.2613534,34.3138298 20.7421313,34.8670213 20.8794964,35.5585106 C21.2229092,37.5638298 21.7723696,39.3617021 22.6652428,40.8138298 C22.8026079,41.0904255 22.8712905,41.4361702 22.8712905,41.712766 L22.8712905,46 C22.8712905,46.8297872 22.3905126,47.5904255 21.6350045,48.0053191 C20.2613534,48.6276596 13.3244155,52.1542553 6.52484263,57.4787234 C4.60173112,59 3.4341277,61.3510638 3.4341277,63.8404255 L3.4341277,67.2978723 C3.4341277,67.9202128 3.98358813,68.4042553 4.60173112,68.3351064 L38.9490939,68.3351064 L38.9490939,72 L4.60173112,72 C2.06047662,72 0,69.9255319 0,67.3670213 L0,63.9095745 C0,60.3829787 1.64838129,56.9946809 4.39568345,54.8510638 C10.7144784,49.9414894 17.1019559,46.4840426 19.4371628,45.3085106 L19.4371628,42.1968085 C18.6129721,40.6755319 17.9948291,38.9468085 17.6514164,37.0797872 C16.4151304,36.1117021 15.6596223,34.106383 15.1101619,32.1010638 C14.2859712,29.1968085 14.3546538,27.2606383 15.247527,26.0159574 C15.4535746,25.7393617 15.6596223,25.5319149 15.86567,25.393617 C15.3848921,23.3882979 15.4535746,21.3829787 16.0030351,19.3085106 C16.6211781,16.8191489 17.9261466,14.4680851 19.9179406,12.393617 C20.948179,11.287234 22.1157824,10.3191489 23.4207509,9.4893617 C24.5883543,8.7287234 25.7559577,8.10638298 26.9235612,7.69148936 C28.022482,7.34574468 29.1214029,7.13829787 30.2203237,7.06914894 C30.6324191,7 31.1131969,7 31.5252923,7 C33.9978642,7 36.2643885,7.62234043 38.2561826,8.79787234 C40.1792941,9.83510638 41.3468975,11.1489362 41.8963579,11.9787234 C42.651866,12.2553191 43.8194694,12.8776596 44.8497077,14.1914894 C46.7728192,16.8191489 47.2535971,20.9680851 46.2233588,26.5691489 C47.1849146,27.7446809 47.2535971,29.8191489 46.4294065,32.7234043 C45.8112635,34.9361702 44.9183903,37.356383 43.2013264,38.0478723 C42.9265962,39.2234043 42.5831835,40.3297872 42.1024056,41.3670213 L42.1024056,45.2393617 C42.1545224,45.2655971 42.2086576,45.2929346 42.2647653,45.3213673 C41.3328375,45.9956151 40.5519706,46.8657908 39.982582,47.8714771 Z"/>
    <path d="M141.982582,47.8714771 C141.979439,47.8699757 141.976327,47.8684904 141.973246,47.8670213 C141.217738,47.5212766 140.73696,46.7606383 140.73696,45.8617021 L140.73696,40.8829787 C140.73696,40.606383 140.73696,40.3297872 140.874326,40.1223404 C141.492469,38.8776596 141.904564,37.4946809 142.179294,35.9042553 C142.316659,35.2819149 142.660072,34.7978723 143.209532,34.5904255 C143.484263,34.4521277 143.827675,34.3829787 144.102406,34.4521277 C144.308453,34.106383 144.720549,33.2765957 145.201326,31.6170213 C145.750787,29.75 145.682104,28.9202128 145.613422,28.643617 C144.926596,28.2978723 144.583183,27.537234 144.720549,26.7765957 C146.0942,20 144.995279,17.2340426 144.171088,16.1276596 C143.484263,15.2287234 142.728754,15.0904255 142.728754,15.0904255 C142.179294,15.0904255 141.629834,14.7446809 141.355103,14.1914894 C141.355103,14.1914894 140.599595,12.8085106 138.607801,11.7021277 C136.822055,10.5957447 134.761578,10.1808511 132.495054,10.3882979 C131.670863,10.4574468 130.846673,10.5957447 130.091165,10.8723404 C129.198291,11.1489362 128.305418,11.6329787 127.412545,12.2553191 C127.412545,12.3244681 127.343862,12.3244681 127.343862,12.3244681 C126.313624,13.0159574 125.283386,13.8457447 124.459195,14.7446809 C122.879496,16.4042553 121.849258,18.1329787 121.437163,20.0691489 C120.887702,22.0744681 120.956385,24.0797872 121.64321,25.9468085 C121.849258,26.5 121.711893,27.1223404 121.36848,27.606383 C121.025067,28.0212766 120.54429,28.2978723 119.994829,28.2978723 C119.926147,28.643617 119.926147,29.4734043 120.406924,31.1329787 C121.025067,33.2074468 121.505845,33.9680851 121.64321,34.1755319 C122.261353,34.3138298 122.742131,34.8670213 122.879496,35.5585106 C123.222909,37.5638298 123.77237,39.3617021 124.665243,40.8138298 C124.802608,41.0904255 124.87129,41.4361702 124.87129,41.712766 L124.87129,46 C124.87129,46.8297872 124.390513,47.5904255 123.635004,48.0053191 C122.261353,48.6276596 115.324415,52.1542553 108.524843,57.4787234 C106.601731,59 105.434128,61.3510638 105.434128,63.8404255 L105.434128,67.2978723 C105.434128,67.9202128 105.983588,68.4042553 106.601731,68.3351064 L140.949094,68.3351064 L140.949094,72 L106.601731,72 C104.060477,72 102,69.9255319 102,67.3670213 L102,63.9095745 C102,60.3829787 103.648381,56.9946809 106.395683,54.8510638 C112.714478,49.9414894 119.101956,46.4840426 121.437163,45.3085106 L121.437163,42.1968085 C120.612972,40.6755319 119.994829,38.9468085 119.651416,37.0797872 C118.41513,36.1117021 117.659622,34.106383 117.110162,32.1010638 C116.285971,29.1968085 116.354654,27.2606383 117.247527,26.0159574 C117.453575,25.7393617 117.659622,25.5319149 117.86567,25.393617 C117.384892,23.3882979 117.453575,21.3829787 118.003035,19.3085106 C118.621178,16.8191489 119.926147,14.4680851 121.917941,12.393617 C122.948179,11.287234 124.115782,10.3191489 125.420751,9.4893617 C126.588354,8.7287234 127.755958,8.10638298 128.923561,7.69148936 C130.022482,7.34574468 131.121403,7.13829787 132.220324,7.06914894 C132.632419,7 133.113197,7 133.525292,7 C135.997864,7 138.264388,7.62234043 140.256183,8.79787234 C142.179294,9.83510638 143.346897,11.1489362 143.896358,11.9787234 C144.651866,12.2553191 145.819469,12.8776596 146.849708,14.1914894 C148.772819,16.8191489 149.253597,20.9680851 148.223359,26.5691489 C149.184915,27.7446809 149.253597,29.8191489 148.429406,32.7234043 C147.811263,34.9361702 146.91839,37.356383 145.201326,38.0478723 C144.926596,39.2234043 144.583183,40.3297872 144.102406,41.3670213 L144.102406,45.2393617 C144.154522,45.2655971 144.208658,45.2929346 144.264765,45.3213673 C143.332837,45.9956151 142.551971,46.8657908 141.982582,47.8714771 Z" transform="matrix(-1 0 0 1 251 0)"/>
  </g>
</svg>
