<svg xmlns="http://www.w3.org/2000/svg" width="196" height="120" viewBox="0 0 196 120">
  <g>
    <path d="M82.45,81.57 C81.8796106,77.3617675 79.6054246,73.5726627 76.16,71.09 C78.9614113,69.4105829 81.2425165,66.9875577 82.75,64.09 C83.1796958,63.141533 82.9765184,62.0260494 82.24,61.29 L77.43,56.48 C74.0153112,53.0856294 72.1028394,48.4647229 72.12,43.65 L72.12,30.65 C72.12,14.0207062 58.6392938,0.54 42.01,0.54 C25.3807062,0.54 11.9,14.0207062 11.9,30.65 L11.9,43.65 C11.9171606,48.4647229 10.0046888,53.0856294 6.59,56.48 L1.76,61.24 C1.04087915,61.9687737 0.838802821,63.0623632 1.25,64 C2.74592864,66.9155564 5.02441388,69.3567906 7.83,71.05 C4.37664631,73.5460951 2.10488104,77.3552811 1.55,81.58 L0.77,87.49 C0.438835043,90.0169192 1.21308892,92.5639465 2.89455737,94.4790586 C4.57602582,96.3941708 7.00147326,97.4914502 9.55,97.49 L74.45,97.49 C76.9985267,97.4914502 79.4239742,96.3941708 81.1054426,94.4790586 C82.7869111,92.5639465 83.561165,90.0169192 83.23,87.49 L82.45,81.57 Z M10.11,60 C14.4654778,55.6677511 16.9068584,49.7731494 16.89,43.63 L16.89,30.63 C16.89,16.7621299 28.1321299,5.52 42,5.52 C55.8678701,5.52 67.11,16.7621299 67.11,30.63 L67.11,43.63 C67.0931416,49.7731494 69.5345222,55.6677511 73.89,60 L77.31,63.42 C75.6793708,65.6799175 73.3434553,67.3333517 70.67,68.12 C70.5570383,68.1554018 70.4467563,68.1988462 70.34,68.25 L56.07,62.25 L56.07,57.82 C59.8998399,54.1698366 62.0680472,49.1106864 62.07,43.82 L62.07,32.16 C62.07,32.1066667 62.07,32.05 62.07,31.99 L61.94,29.99 C61.4111269,22.6780439 55.3310475,17.0123171 48,17 L47.9,17 C47.2365057,16.998815 46.5997537,17.2614303 46.13,17.73 C40.1382395,23.840867 32.4556806,28.0199561 24.07,29.73 C22.8231246,29.8909238 21.8897161,30.9527829 21.89,32.21 L21.89,43.81 C21.8919528,49.1006864 24.0601601,54.1598366 27.89,57.81 L27.89,62.2 L13.55,68.2 C13.3833617,68.0994823 13.2054712,68.0189281 13.02,67.96 C10.4514037,67.1524264 8.21319238,65.5351608 6.64,63.35 L10.11,60 Z M32,54.8 C28.7557646,52.0679105 26.8852609,48.0413858 26.89,43.8 L26.89,34.21 C35.1671466,32.1450864 42.7547777,27.9374 48.89,22.01 C53.2076482,22.4809993 56.5729788,25.9683232 56.89,30.3 L57.02,32.23 L57.02,43.81 C57.0441984,48.0332993 55.2080315,52.0531151 52,54.8 C51.4364042,55.2744354 51.1107558,55.9732988 51.11,56.71 L51.11,68.33 C45.9824449,73.0448962 38.0975551,73.0448962 32.97,68.33 L32.97,56.71 C32.9496365,55.9600389 32.5935449,55.2588689 32,54.8 Z M77.35,91.19 C76.6215168,92.0298773 75.5617588,92.5085956 74.45,92.5 L9.55,92.5 C8.43930573,92.5011335 7.3822372,92.0225331 6.65029707,91.187125 C5.91835695,90.3517169 5.58286842,89.2409066 5.73,88.14 L6.51,82.23 C7.00577976,78.568216 9.39681609,75.4397217 12.8,74 L27.93,67.64 L27.93,69.38 C27.9310035,70.015726 28.1741594,70.6271917 28.61,71.09 C32.0866631,74.7787486 36.9310699,76.8698613 42,76.8698613 C47.0689301,76.8698613 51.9133369,74.7787486 55.39,71.09 C55.8258406,70.6271917 56.0689965,70.015726 56.07,69.38 L56.07,67.63 L71.2,74 C74.6059756,75.4414991 76.9975322,78.5744762 77.49,82.24 L78.27,88.15 C78.4218333,89.2490491 78.0857566,90.3595636 77.35,91.19 Z" transform="translate(56 11)"/>
    <path d="M53.676412,71.7755262 C53.0823285,71.2621917 52.7276786,70.4935359 52.7276786,69.6234043 L52.7276786,63.2659574 C52.7276786,62.912766 52.7276786,62.5595745 52.9040179,62.2946809 C53.6975446,60.7053191 54.2265625,58.9393617 54.5792411,56.9085106 C54.7555804,56.1138298 55.1964286,55.4957447 55.9017857,55.2308511 C56.2544643,55.0542553 56.6953125,54.9659574 57.0479911,55.0542553 C57.3125,54.612766 57.8415179,53.5531915 58.4587054,51.4340426 C59.1640625,49.05 59.0758929,47.9904255 58.9877232,47.637234 C58.1060268,47.1957447 57.6651786,46.2244681 57.8415179,45.2531915 C59.6049107,36.6 58.1941964,33.0680851 57.1361607,31.6553191 C56.2544643,30.5074468 55.2845982,30.3308511 55.2845982,30.3308511 C54.5792411,30.3308511 53.8738839,29.8893617 53.5212054,29.1829787 C53.5212054,29.1829787 52.5513393,27.4170213 49.9944196,26.0042553 C47.7020089,24.5914894 45.0569196,24.0617021 42.1473214,24.3265957 C41.0892857,24.4148936 40.03125,24.5914894 39.0613839,24.9446809 C37.9151786,25.2978723 36.7689732,25.9159574 35.6227679,26.7106383 C35.6227679,26.7989362 35.5345982,26.7989362 35.5345982,26.7989362 C34.2120536,27.6819149 32.8895089,28.7414894 31.8314732,29.8893617 C29.8035714,32.0085106 28.4810268,34.2159574 27.9520089,36.6882979 C27.2466518,39.2489362 27.3348214,41.8095745 28.2165179,44.193617 C28.4810268,44.9 28.3046875,45.6946809 27.8638393,46.312766 C27.4229911,46.8425532 26.8058036,47.1957447 26.1004464,47.1957447 C26.0122768,47.637234 26.0122768,48.6968085 26.6294643,50.8159574 C27.4229911,53.4648936 28.0401786,54.4361702 28.2165179,54.7010638 C29.0100446,54.8776596 29.6272321,55.5840426 29.8035714,56.4670213 C30.2444196,59.0276596 30.9497768,61.3234043 32.0959821,63.1776596 C32.2723214,63.5308511 32.3604911,63.9723404 32.3604911,64.3255319 L32.3604911,69.8 C32.3604911,70.8595745 31.7433036,71.8308511 30.7734375,72.3606383 C29.0100446,73.1553191 20.1049107,77.6585106 11.3761161,84.4574468 C8.90736607,86.4 7.40848214,89.4021277 7.40848214,92.5808511 L7.40848214,96.9957447 C7.40848214,97.7904255 8.11383929,98.4085106 8.90736607,98.3202128 L53,98.3202128 L53,103 L8.90736607,103 C5.64508929,103 3,100.351064 3,97.0840426 L3,92.6691489 C3,88.1659574 5.11607143,83.8393617 8.64285714,81.1021277 C16.7544643,74.8329787 24.9542411,70.4180851 27.9520089,68.9170213 L27.9520089,64.943617 C26.8939732,63.0010638 26.1004464,60.793617 25.6595982,58.4095745 C24.0725446,57.1734043 23.1026786,54.612766 22.3973214,52.0521277 C21.3392857,48.343617 21.4274554,45.8712766 22.5736607,44.2819149 C22.8381696,43.9287234 23.1026786,43.6638298 23.3671875,43.487234 C22.75,40.9265957 22.8381696,38.3659574 23.5435268,35.7170213 C24.3370536,32.5382979 26.0122768,29.5361702 28.5691964,26.887234 C29.8917411,25.4744681 31.390625,24.2382979 33.0658482,23.1787234 C34.5647321,22.2074468 36.0636161,21.412766 37.5625,20.8829787 C38.9732143,20.4414894 40.3839286,20.1765957 41.7946429,20.0882979 C42.3236607,20 42.9408482,20 43.4698661,20 C46.6439732,20 49.5535714,20.7946809 52.1104911,22.2957447 C54.5792411,23.6202128 56.078125,25.2978723 56.7834821,26.3574468 C57.7533482,26.7106383 59.2522321,27.5053191 60.5747768,29.1829787 C63.0435268,32.5382979 63.6607143,37.8361702 62.3381696,44.9882979 C63.5725446,46.4893617 63.6607143,49.1382979 62.6026786,52.8468085 C61.8091518,55.6723404 60.6629464,58.762766 58.4587054,59.6457447 C58.1060268,61.1468085 57.6651786,62.5595745 57.0479911,63.8840426 L57.0479911,68.0427175 C55.5608164,68.8893118 54.3715478,70.1989901 53.676412,71.7755262 Z"/>
    <path d="M182.676412,71.7755262 C182.082329,71.2621917 181.727679,70.4935359 181.727679,69.6234043 L181.727679,63.2659574 C181.727679,62.912766 181.727679,62.5595745 181.904018,62.2946809 C182.697545,60.7053191 183.226562,58.9393617 183.579241,56.9085106 C183.75558,56.1138298 184.196429,55.4957447 184.901786,55.2308511 C185.254464,55.0542553 185.695312,54.9659574 186.047991,55.0542553 C186.3125,54.612766 186.841518,53.5531915 187.458705,51.4340426 C188.164062,49.05 188.075893,47.9904255 187.987723,47.637234 C187.106027,47.1957447 186.665179,46.2244681 186.841518,45.2531915 C188.604911,36.6 187.194196,33.0680851 186.136161,31.6553191 C185.254464,30.5074468 184.284598,30.3308511 184.284598,30.3308511 C183.579241,30.3308511 182.873884,29.8893617 182.521205,29.1829787 C182.521205,29.1829787 181.551339,27.4170213 178.99442,26.0042553 C176.702009,24.5914894 174.05692,24.0617021 171.147321,24.3265957 C170.089286,24.4148936 169.03125,24.5914894 168.061384,24.9446809 C166.915179,25.2978723 165.768973,25.9159574 164.622768,26.7106383 C164.622768,26.7989362 164.534598,26.7989362 164.534598,26.7989362 C163.212054,27.6819149 161.889509,28.7414894 160.831473,29.8893617 C158.803571,32.0085106 157.481027,34.2159574 156.952009,36.6882979 C156.246652,39.2489362 156.334821,41.8095745 157.216518,44.193617 C157.481027,44.9 157.304687,45.6946809 156.863839,46.312766 C156.422991,46.8425532 155.805804,47.1957447 155.100446,47.1957447 C155.012277,47.637234 155.012277,48.6968085 155.629464,50.8159574 C156.422991,53.4648936 157.040179,54.4361702 157.216518,54.7010638 C158.010045,54.8776596 158.627232,55.5840426 158.803571,56.4670213 C159.24442,59.0276596 159.949777,61.3234043 161.095982,63.1776596 C161.272321,63.5308511 161.360491,63.9723404 161.360491,64.3255319 L161.360491,69.8 C161.360491,70.8595745 160.743304,71.8308511 159.773437,72.3606383 C158.010045,73.1553191 149.104911,77.6585106 140.376116,84.4574468 C137.907366,86.4 136.408482,89.4021277 136.408482,92.5808511 L136.408482,96.9957447 C136.408482,97.7904255 137.113839,98.4085106 137.907366,98.3202128 L182,98.3202128 L182,103 L137.907366,103 C134.645089,103 132,100.351064 132,97.0840426 L132,92.6691489 C132,88.1659574 134.116071,83.8393617 137.642857,81.1021277 C145.754464,74.8329787 153.954241,70.4180851 156.952009,68.9170213 L156.952009,64.943617 C155.893973,63.0010638 155.100446,60.793617 154.659598,58.4095745 C153.072545,57.1734043 152.102679,54.612766 151.397321,52.0521277 C150.339286,48.343617 150.427455,45.8712766 151.573661,44.2819149 C151.83817,43.9287234 152.102679,43.6638298 152.367188,43.487234 C151.75,40.9265957 151.83817,38.3659574 152.543527,35.7170213 C153.337054,32.5382979 155.012277,29.5361702 157.569196,26.887234 C158.891741,25.4744681 160.390625,24.2382979 162.065848,23.1787234 C163.564732,22.2074468 165.063616,21.412766 166.5625,20.8829787 C167.973214,20.4414894 169.383929,20.1765957 170.794643,20.0882979 C171.323661,20 171.940848,20 172.469866,20 C175.643973,20 178.553571,20.7946809 181.110491,22.2957447 C183.579241,23.6202128 185.078125,25.2978723 185.783482,26.3574468 C186.753348,26.7106383 188.252232,27.5053191 189.574777,29.1829787 C192.043527,32.5382979 192.660714,37.8361702 191.33817,44.9882979 C192.572545,46.4893617 192.660714,49.1382979 191.602679,52.8468085 C190.809152,55.6723404 189.662946,58.762766 187.458705,59.6457447 C187.106027,61.1468085 186.665179,62.5595745 186.047991,63.8840426 L186.047991,68.0427175 C184.560816,68.8893118 183.371548,70.1989901 182.676412,71.7755262 Z" transform="matrix(-1 0 0 1 324.335 0)"/>
  </g>
</svg>
