<svg xmlns="http://www.w3.org/2000/svg" width="76" height="92" viewBox="0 0 76 92">
  <g>
    <path d="M59.9 21.8L59.9 31.1 64.2 24.6 64.2 24.5 65.2 23 65.2 22.9 65.5 22.4 65.5 21.7C65.5 15.5 60.5 10.5 54.3 10.5L49.7 10.5 49.7 16.3 54.3 16.3C57.5 16.4 59.9 18.8 59.9 21.8zM59.9 80.8C59.9 83.8 57.5 86.2 54.5 86.2L11.4 86.2C8.4 86.2 6 83.8 6 80.8L6 21.8C6 18.8 8.4 16.4 11.4 16.4L16 16.4 16 10.6 11.4 10.6C5.2 10.6.2 15.6.2 21.8L.2 80.8C.2 87 5.2 92 11.4 92L54.5 92C60.7 92 65.7 87 65.7 80.8L65.7 44.8 59.9 53.4 59.9 80.8z"/>
    <path d="M19.9,18.4 L46,18.4 C46.6,18.4 47,17.9 47,17.4 L47,9.9 C47,9.2 46.5,8.5 45.9,8.3 L37.9,6.4 L37.9,5 C37.9,2.2 35.6,0 32.9,0 C30.1,0 27.9,2.3 27.9,5 L27.9,6.4 L19.9,8.3 C19.2,8.5 18.8,9.2 18.8,9.9 L18.8,17.4 C18.8,17.9 19.3,18.4 19.9,18.4 Z M32.9,2.5 C34.1,2.5 35,3.4 35,4.6 C35,5.8 34.1,6.7 32.9,6.7 C31.7,6.7 30.8,5.8 30.8,4.6 C30.8,3.5 31.8,2.5 32.9,2.5 Z"/>
    <rect width="38.8" height="5.8" x="15.6" y="32.1"/>
    <polygon points="52.1 42.9 15.6 42.9 15.6 48.7 48.3 48.7"/>
    <polygon points="44.8 53.8 15.6 53.8 15.6 59.5 41 59.5"/>
    <path d="M15.6 64.7L15.6 70.5 39.4 70.5C39.3 70.3 39.3 70.1 39.2 69.8L38.8 66.2C38.7 65.7 38.7 65.2 38.8 64.7L15.6 64.7zM74.7 23.2L71.9 21.3C71.5 21 71 20.9 70.5 20.9 70.4 20.9 70.3 20.9 70.2 20.9 70.1 20.9 70 20.9 69.9 21 69.8 21 69.7 21 69.6 21.1 69.5 21.1 69.4 21.2 69.3 21.2 69.1 21.3 68.9 21.4 68.8 21.6 68.7 21.7 68.6 21.8 68.6 21.8 68.5 21.9 68.5 22 68.4 22.1L67 24 74.1 28.7 75.4 26.7C76.2 25.6 75.9 24 74.7 23.2zM65.7 26L59.9 34.6 54.3 42.9 50.5 48.7 47.1 53.8 43.3 59.6 42.1 61.5 41.7 62C40.9 63.2 40.5 64.6 40.7 66L41.1 69.6C41.1 69.8 41.3 70 41.4 70.2 41.5 70.2 41.5 70.3 41.6 70.3 41.7 70.3 41.9 70.3 42.1 70.3L45.6 69.3C46.9 68.9 48.1 68 48.9 66.8L51.2 63.3 53.6 59.6 54.5 58.2 60 50 65.8 41.4 73 30.5 65.9 25.8 65.7 26zM47.5 65.9C46.9 66.8 46 67.5 45.1 67.8L42.5 68.5 42.2 65.8C42.1 64.8 42.4 63.8 43 62.8L43.4 62.2 48 65.2 47.5 65.9z"/>
  </g>
</svg>
