<?xml version="1.0" standalone="no"?>
<!DOCTYPE svg PUBLIC "-//W3C//DTD SVG 20010904//EN"
 "http://www.w3.org/TR/2001/REC-SVG-20010904/DTD/svg10.dtd">
<svg version="1.0" xmlns="http://www.w3.org/2000/svg"
 width="300.000000pt" height="300.000000pt" viewBox="0 0 300.000000 300.000000"
 preserveAspectRatio="xMidYMid meet">
<metadata>
Created by potrace 1.11, written by Peter Selinger 2001-2013
</metadata>
<g transform="translate(0.000000,300.000000) scale(0.100000,-0.100000)"
fill="#000000" stroke="none">
<path d="M0 2275 l0 -725 725 0 725 0 0 725 0 725 -725 0 -725 0 0 -725z m950
414 c106 -50 194 -168 221 -297 17 -82 7 -233 -20 -304 -31 -79 -78 -146 -137
-190 -82 -63 -107 -67 -404 -69 -262 -1 -265 -1 -268 20 -3 19 1 21 52 21 l56
0 0 405 0 405 -55 0 c-49 0 -55 2 -55 21 0 20 3 20 278 17 274 -3 278 -3 332
-29z"/>
<path d="M652 2662 c-9 -7 -12 -92 -10 -393 l3 -384 107 0 c92 0 110 3 135 21
36 27 70 77 83 123 23 81 33 241 22 351 -18 177 -60 255 -150 280 -44 12 -172
13 -190 2z"/>
<path d="M1550 2275 l0 -725 725 0 725 0 0 725 0 725 -725 0 -725 0 0 -725z
m911 421 c132 -49 196 -179 155 -318 -12 -42 -27 -65 -60 -96 -63 -58 -105
-73 -226 -81 l-105 -6 0 -160 0 -160 55 -5 c45 -4 55 -8 55 -24 0 -17 -12 -18
-200 -18 -188 0 -200 1 -200 18 0 16 9 19 58 22 l57 3 -2 402 -3 402 -57 3
c-55 3 -72 15 -50 36 4 4 113 6 242 4 189 -4 244 -8 281 -22z"/>
<path d="M2238 2664 c-5 -4 -8 -99 -8 -211 l0 -203 60 0 c120 0 152 42 153
200 1 162 -28 209 -135 217 -35 3 -66 2 -70 -3z"/>
<path d="M0 725 l0 -725 725 0 725 0 0 725 0 725 -725 0 -725 0 0 -725z m785
429 c0 -16 -9 -19 -58 -22 l-57 -3 2 -397 3 -397 131 0 c109 1 136 4 159 19
31 20 55 71 55 118 0 43 13 63 35 54 15 -6 17 -15 11 -68 -3 -33 -6 -87 -6
-120 l0 -58 -341 1 -340 1 3 21 c3 19 10 22 56 25 l52 3 0 400 0 399 -49 0
c-50 0 -67 10 -58 33 3 9 57 12 203 11 189 -1 199 -2 199 -20z"/>
<path d="M1550 725 l0 -725 725 0 725 0 0 725 0 725 -725 0 -725 0 0 -725z
m928 38 l165 -433 47 0 c48 0 75 -16 62 -36 -5 -7 -77 -10 -207 -10 -193 1
-200 2 -200 21 0 17 8 20 53 23 29 2 52 7 50 11 -2 4 -21 56 -43 115 l-40 106
-144 -2 -145 -3 -37 -93 c-58 -142 -58 -130 3 -134 45 -3 53 -6 53 -23 0 -19
-7 -20 -135 -20 -128 0 -135 1 -135 20 0 17 8 21 54 25 l55 5 166 420 c91 231
169 426 174 433 23 38 43 -2 204 -425z"/>
<path d="M2167 786 c-31 -79 -57 -149 -57 -155 0 -7 39 -11 115 -11 63 0 115
4 115 9 0 10 -97 268 -109 289 -5 8 -30 -43 -64 -132z"/>
</g>
</svg>
